<svg xmlns="http://www.w3.org/2000/svg" width="137.49" height="134.223" viewBox="0 0 137.49 134.223"><g transform="translate(0 0.003)"><path d="M67,78.15q-7.19-3.03-12.94,2.71c-1.81,1.81-3.61,3.62-5.42,5.43-3.1.3-5.49-1.55-8.13-2.67a6.5,6.5,0,0,0-3.06-1.31c-1.69-.45-3.65-.4-4.56-2.36a4.973,4.973,0,0,1,2.61-3.92c2.59-.37,5.31.15,7.75-1.39.92-.58,2.39-.43,2.31,1.12-.07,1.45.72,1.46,1.65,1.62,1.41.24,1.32-.85,1.68-1.71.81-1.93.21-4.81,3.36-5.25.79.15.74,1.62,1.77,1.25a1.913,1.913,0,0,0,1.17-2.27,18.468,18.468,0,0,0-1.26-3.34,3.025,3.025,0,0,1,.78-2.58,1.452,1.452,0,0,1,1.01-.29,7.249,7.249,0,0,1,2.02,1.64,7.249,7.249,0,0,0,1.38,1.44c2.52-.38,5.18-.21,7.31-1.97,2.72-.62,2.76-4.22,5.76-4.5-4.43-4.36.49-8.15-.1-12.05a2.789,2.789,0,0,1,1.13-.46,14.328,14.328,0,0,1,7.1,2.44c-3.35,5.24-3.44,5.42,2.32,8.48,9.87,5.23,19.88,10.18,29.8,15.33a45.852,45.852,0,0,1,11.79,8.16c-12.8-.11-24.76-1.08-36.02-6.28-1.28-.1-1.63.96-2.28,1.77.87.5,1.67-.67,2.48-.03.49.59.97,1.18,1.46,1.77.93,2.29,2.09,4.51,2.08,7.07a3.607,3.607,0,0,1-1.88,2.99c-2.03.88-4.26-.08-6.34.75-.97.39-1.81-.34-2.26-1.27-.96-2,.85-2.84,2.25-4.34-1.6.82-2.01,2.52-3.64,2.16-.63-.69-.63-1.74-1.37-2.36-1.12-.92-2.43-1.8-1.74-3.55.7-1.79,2.58-.66,3.78-1.31-.43-1.25-1.81-1.07-2.48-1.87-1.72-2.92,2.97-2.76,2.39-5.42-2.01.33-2.42,5.92-5.81,1.94-1.58-1.85-5.22-2.62-3.55-4.59-1.04,1.68-.24,5.2.43,8.57.32,1.64.94,2.86-1.46,2.88-.25-.21-.5-.41-.76-.62-.44-1.18-1.58-1.37-2.54-1.82Z" fill="#62eddd"/><path d="M33.12,79.71a8.163,8.163,0,0,0,4.9,1.62c-.05,2.67-3.5,2.97-3.77,5.46a7.8,7.8,0,0,0,.65,1.37c-.26,3.02-1.53,3.76-4.12,1.86a5.138,5.138,0,0,0-5.47-.64c-3.4.56-3.3,4.67-6.01,5.93-2.92-2.05.28-3.62.28-5.32-3.51,2.69-10.64,2.55-8.59,10.2-1.2,1.32-1.9,2.57-.03,4,2.11,1.61,2.4,3.73.45,5.54-2.04,1.89-4.43,2.75-6.61-.05C1.3,96.86,3.56,84.6,8.39,72.59c.18-.44.76-.72,1.15-1.07a1.943,1.943,0,0,1,1.54-.5,5.989,5.989,0,0,1,1.09.27,15.959,15.959,0,0,1,3.62,1.76c1.94,1.23,3.62,3.55,6.08.43.71-.9,2.55-.57,3.76.29,1.11,1.67-2.33,1.25-1.32,2.87a12.6,12.6,0,0,1-3.09,2.55c1.84-.68,3.12-2.17,4.98-2.5,2.58.35,5.05.97,6.9,3.01Z" fill="#bbe5ef"/><path d="M4.82,109.69c1.74.99,3.59,1.29,5.26.09,1.75-1.26,3.1-2.81.43-4.61-.22-.15-.4-.35-.61-.52-2.37-1.87-3.59-3.6.55-4.7.98-1.24-.44-3.93,2.74-3.96,2.61-.02,4.48.33,5.06,3.25a2.671,2.671,0,0,0,3.12,2.46,2.946,2.946,0,0,1,2.83,1.18c.86,1.69-.32,2.76-1.03,3.76q2.5-2.75.84-4.67,2.85-2.36,9.46-1.79c-.46-2.93-.51-5.93,3.2-6.53,2.65-.42,4.28,1.1,4.57,3.85q-4.44,7.71-8.86,15.43c-1.49.59-2.9-.24-4.35-.33-1.82-.12-3.27-.34-4.19,1.74a2.851,2.851,0,0,1-3.05,1.64c-3.58-1.08-7.48,1.74-10.91-1.04-.77-.63-1.78.32-2.71.43a17.734,17.734,0,0,1-2.37-5.72Z" fill="#cae9f2"/><path d="M126.37,19.68c4.47,3.83,6.87,9.16,11.12,14.66-11.22-1.41-21.28-.41-31.34.65a5.25,5.25,0,0,0-1.37-4.43c-3.67-3.14-2.49-6.2-.44-9.45a4.07,4.07,0,0,1,3.8-.82c2.56,1.04,4.31.09,6.56-1.08,3.39-1.78,3.69,1.74,4.89,3.82-.23-1.38-.88-2.79.8-3.56,1.92,2.11,4-.52,5.97.21Z" fill="#5ae9da"/><path d="M41.27,97.53c-.5-.62-.98-1.24-1.49-1.84-1.19-1.38-2.6-1.93-4.22-.81a2.968,2.968,0,0,0-1.13,4.17c.47.89,1.73,1.74.68,2.76-.9.87-2.04-.12-2.96-.44a7.961,7.961,0,0,0-7.9,1.05q.285.285.15.54c-.08.16-.16.23-.24.23-.76-.23-1.71-.86-2.25-.61-3.21,1.48-4.01-.48-4.73-2.93-.35-1.2.17-3.15-2.46-2.69-1.88.33-3.79.03-3.53,2.83a4.517,4.517,0,0,1-.75.18c-1.18-5.79-.38-7.27,5.67-8.87,2.08-.55,2.26-3.56,4.92-3.11.75,2.66-3.19,4.29-1.71,7.11A27.844,27.844,0,0,0,25,88.63c2.18-.98,4.34-2.42,6.15.71a2.049,2.049,0,0,0,2.89.6c1-.62.07-1.41-.09-2.13,2.89-3.21,4.97-3,6.9.57,1.02,1.89.86,4.16,2.1,5.95a5.013,5.013,0,0,1-1.7,3.21Z" fill="#bfe5ee"/><path d="M120.73,19.67c-2.08,1.93,1.28,3.92-.08,6.06-.36-.3-.76-.46-.89-.75-1.78-3.92-3.41-7.98-8.19-2.53-.92,1.05-1.63-.56-2.43-.94-1.29-.61-3.06-.21-4.63-.23a8.653,8.653,0,0,1-2.47.87c-1.87.17-3.74.14-5.61.37a2.015,2.015,0,0,1-1.07-.43c-1.04-1.96.19-3.29,1.38-4.52a11.407,11.407,0,0,0,3.08-4.99c1.33-1.4.54-3.45,1.5-4.97,8.82,1.27,16.78,4.41,23.35,10.63-.55,2.6-2.06,2.51-3.93,1.41Z" fill="#50e5d8"/><path d="M7.19,115.41c1.2-2.1,2.45-3.8,4.32-.53.13.23.31.57.49.6,2.31.28,4.34-1.63,6.91-.48,2.51,1.12,3.77-.82,5.38-2.74,1.59-1.89,4.47-.63,6.77-.14.48.1.89.56,1.34.85-.58,2.66-2.23,4.83-3.3,7.27-.9.91-2.09,1.67-1.58,3.26a7.047,7.047,0,0,1-.08.79c-.99.9-2.25,1.47-3.08,2.59-2.25,3.07-5.07,3.19-8.19,1.46-3.28-4.11-7.31-7.7-8.99-12.93Z" fill="#c0e5ef"/><path d="M80.19,86.18c.94-.53,1.98-1.07,1.96-2.29-.02-.87-.17-1.68.99-1.65a2.059,2.059,0,0,1,1.34.72c.67.78.22,1.5-.39,2.08-.58.55-1.27.97-1.83,1.53a1.27,1.27,0,0,0,0,1.81c.3.34,1.19.72,1.28.61,2.01-2.28,4.29.18,6.37-.41.9.65.64,1.68.89,2.56.54,1.87,1.71,1.57,3.49.73-3.34-.14-4.13-1.17-2.72-3.31.79-1.21,1.38-2.85,3.16-3.17,2.59,3.25,5.27,6.44,6.54,10.5a1.609,1.609,0,0,1-.09.77c-1.41,2.09.21,2.22,1.59,2.52.8,2.92,2.27,5.71,1.73,8.89-3.63.72-6.06-1.78-8.85-3.29q-4.065-3.66-8.12-7.32c.82-2.6-1.5-1.76-2.54-2.33a31.289,31.289,0,0,1-6.55-6.45c.14-1.14.48-2.15,1.75-2.51Z" fill="#72f2de"/><path d="M89.05,42.26c-.52.31-1.04.63-1.55.94-.17-.07-.35-.14-.53-.21-2.43-2.08-6.59-2.09-7.35-6.22-.11-.59-.94-.41-1.37-.07-3.28,2.58-4.35.2-5.35-2.37,1.34-1.45,3.44-1.21,4.97-2.24.46-.3.9-.61,1.34-.94a25.658,25.658,0,0,1,5.75-3.41c1.82-.52,3.53-1.39,5.46-1.51a5.272,5.272,0,0,1,1.12.13,25.158,25.158,0,0,1,3.18.93c1.18.59,1.48,1.97,2.46,2.75a4.064,4.064,0,0,1,1.12,1.18c-.02,2.54-.77,3.76-3.65,2.6-2.73-1.1-3.11-.69-2.68,1.98.29.18.57.38.84.58.88.77,2.15.97,2.86,1.97-1.91,1.09-3.83,2.18-5.74,3.26A2.133,2.133,0,0,1,89.17,40c-.69.72.43,1.53-.11,2.26Z" fill="#60e7da"/><path d="M42,32.59c2.91-4.85,6.03-9.53,10.59-13.04a12.747,12.747,0,0,1,1.63.21c5.69,2.36,6.34,6.06,1.69,9.82a2.163,2.163,0,0,0-.69,1.77,22.7,22.7,0,0,0-5.95,8.1c-1.78.85-2.87-.38-4.07-1.31a28.561,28.561,0,0,1-3.4-4.48,1.166,1.166,0,0,1,.21-1.05Z" fill="#78e2e7"/><path d="M95.66,38.35c-1.39.02-2.7-.13-3.32-1.65.49-.23.27.41.22-.12-.02-.26-.26-.21-.22.12-1.9.11-2.88-.69-2.21-2.62a2.842,2.842,0,0,1,4.49-1.59c2.71,2.25,2.93.52,3.39-1.48.08-.17.15-.33.22-.5,2.08-1.99,1.44-4.67,1.81-7.1a1.719,1.719,0,0,1,.52-.89c.68-.52,1.62-.54,2.24-1.19.57-.06,1.12-.94,1.7-.04-.16.85.76,1.72-.27,2.6-2.01,1.72-1.96,3.2.48,4.72,1.67,1.05,1.28,3.76,3.37,4.89.47.26-1.58.55-1.93,1.5q-5.25,1.68-10.49,3.36Z" fill="#54e4da"/><path d="M69.69,10.04c3.94-1.33,7.9-2.54,12.11-2.51.95,1.22.04,1.91-.71,2.71-.58.62-1.45,5.32-1.25,6.35.5.87,1.02,1.73.13,2.67-4.25,1.57-8.54,2.29-12.98.79a18.627,18.627,0,0,0,2.69-10Z" fill="#8de3f0"/><path d="M32.99,17.37c-2.98-1.6-4.81.2-6.55,2.24-1.01.61-1.59.49-1.45-.85a12.9,12.9,0,0,1,1.57-1.79c2.14-1.68,3.04-3.31,2.04-6.37s-1.06-6.63,1.44-9.5c1.38-1.59,2.31-1.51,3,.56a20.35,20.35,0,0,1,.76,9.1c1.65,3.21,1.43,4.99-.81,6.61Z" fill="#f1b640"/><path d="M69.69,10.04c1.4,3.78,1.63,7.26-2.48,9.63-.65.69-1.33.38-2.01.05-1.74-.95-3.67-.94-5.57-1.08-.33.06-.67.11-1.01.15a7.962,7.962,0,0,0-3.83,1.06c-.43.27-.98.27-1.37.63l-.84-.93c4.59-5.16,10.54-7.88,17.09-9.51Z" fill="#98e3f4"/><path d="M70.29,80.59c.4-.33,1.18-.89,1.13-.97a9.531,9.531,0,0,1-1-6.86c.61-3.72-.13-3.84,2.94-6.98-.34,2.12.34,3.79,3.71,8.92a17.317,17.317,0,0,1,3.69-5.14c2.08,3.39,2.09,3.41-1.49,5.55-.91.55-.6,1.38-.71,2.13-2.37,1.38-3.14,4.89-6.53,4.93l-1.74-1.59Z" fill="#68f1e0"/><path d="M11.25,68.32a5.315,5.315,0,0,1,2.4-4.09c2.01-.96,2.65-2.88,3.33-4.78l-.02-.03a7.019,7.019,0,0,1,3.59-1.22,5.677,5.677,0,0,1,6.33,4.55c.36,1.74-.77,2.25-2.05,2.22a5.935,5.935,0,0,0-4.48,1.32c-1.01.57-2.18.88-2.46,2.32-.79,4.11-3.29,4.49-6.63,2.95h0c-1.95-1.06-.12-2.16-.03-3.24Z" fill="#a3e6f6"/><path d="M23.35,41.6c-.52-.54-1.04-1.07-1.55-1.61-.84-1.24-1.18-3.19.04-3.58,3.51-1.12,4.82-4.84,8.03-6.14q3.675,1.2,7.35,2.39c-.3,2.2-2.19,1.98-3.65,2.41-.75.18-1.54-.3-2.38.14,2.04.86,4.2.19,6.17.85a1.966,1.966,0,0,1,.82.69c-.42,1.63-2.06,2.27-2.91,3.55-.13.02-.32.12-.39.06-2.41-2.09-1.01.82-1.55,1.18a47.752,47.752,0,0,0-10,.05Z" fill="#beeaf7"/><path d="M42.97,94.31c-1.42-.06-2.39-.06-2.3-2.23.23-5.33-1.98-6.6-6.7-4.28-.27-.27-.54-.55-.81-.82,1.84-2.39,3.94-4.31,7.26-4.05,2.74,1.12,5.48,2.23,8.22,3.35a38.544,38.544,0,0,1-5.66,8.03Z" fill="#b6e5ee"/><path d="M79.38,16.43c-.93.33-2.04,1.33-2.65-.19-.4-.99.7-1.17,1.42-1.45.48-.19.92-.47,1.38-.7-2.95-3.48,2-4.21,2.28-6.56,2.91-1.02,5.92-.92,8.93-.77.48.95,1.03,1.86,1.43,2.85.19,1.54.18,3.51-1.87,3.04-3.64-.84-6.06.74-8.45,2.97-.65.61-1.4,1.3-2.47.81Z" fill="#9de9f0"/><path d="M29.87,30.27a11.458,11.458,0,0,0-2.92,4.19c-.39.79-.63,1.99-1.86,1.72-3.55-.79-3.23,1.65-3.3,3.81a9.622,9.622,0,0,1-3.31-3.25c.61-1.52,2.71-1.75,3.2-3.92-2.01.45-2.47,2.51-3.96,3.11l-1.59-1.68c-.23-.38-.08-.76-.06-1.16q.26-4.93,4.92-5.39l8.87,2.55Z" fill="#ace5f6"/><path d="M32.99,17.37c2.13-1.97.09-4.46.81-6.61,2.64,1.19,4.05-2.24,6.52-1.74,3.62.44,4.51,2.16,3.32,6.41-1.75,1.1-3.45,2.33-5.61,2.55-.91-1.73-1.67-.52-2.45.13a2.842,2.842,0,0,1-2.59-.74Z" fill="#f7c25a"/><path d="M16.18,128.33c2.75-.54,6.63,1.82,7.64-3.29.26-1.33,2.37-.58,3.63-.76a14.422,14.422,0,0,1-.68,2.29c-1.27,2.7-1.14,7.26-4.08,7.63C20.09,134.53,18.06,130.73,16.18,128.33Z" fill="#cae9f2"/><path d="M33.16,41.56c.2-2.06-1.99-2.12-3.05-3.3,2.88-2.13,3.39,2.19,5.49,1.67a5.673,5.673,0,0,1-.8,8.03,2,2,0,0,0-1.92,2.35,2.644,2.644,0,0,1-.43,1.04,4.137,4.137,0,0,1-4.05.6c-.6-.29-1.08-.66-.9-1.43.74-1.15,2.64-1.45,2.43-3.3-1.36-3.72-1.06-4.24,3.24-5.66Z" fill="#cceef9"/><path d="M72.04,82.18c2.58-1.11,2.85-5.27,6.53-4.93,1.26-.73,2.33-.23,3.28.6a2.125,2.125,0,0,1,.56,2.57c-.5,1.06-1.33.41-2.05.15-.94-.35-2.15-1.41-2.75.04-.57,1.39.54,2.07,1.92,2.37,2.49.54.28,2.16.66,3.21-.58.84-1.16,1.67-1.75,2.51-.52-.54-1.03-1.08-1.55-1.62-.38-2.33-2.11-3.33-4.06-4.12-.27-.26-.54-.51-.81-.77Z" fill="#57ebdf"/><path d="M21,27.72c-.4,3.15-3.12-.31-4.11,1.46-.85,1.5,2.37,3.13-.24,4.48-.22.11-.35.4-.52.6-1.09-.74-1.44-2.42-3.09-2.46l-.12-.11c-.15-.5-.32-1.01-.45-1.51-.4-1.48-2.76-2.66-1.61-4.14,1.22-1.57,3.41-.68,5.19-.29.77.17,1.55.32,2.33.48l.1.1c.84.47,1.67.93,2.51,1.39Z" fill="#bee9f7"/><path d="M80.34,49.73c-2.78.74-4.83-1.71-7.45-1.68.5-4.26,2.13-5.41,5.55-3.55,1.9,1.03,3.07,1.02,4.38-.78,1.19-1.65,2.85-1.83,4.57-.61l.11.09q-3.57,3.27-7.15,6.53Z" fill="#5ce9db"/><path d="M95.65,104.79c3.26.25,5.79,2.49,8.85,3.29-.23,1.78,1.05,4.45-.8,5.12-1.63.59-2.91-1.96-4.15-3.3a62.629,62.629,0,0,1-3.9-5.11Z" fill="#9ee8e3"/><path d="M20.98,59.4l-4.02.03c2.5-3.79,6.3-6.15,9.77-8.88a4.638,4.638,0,0,1,.85,3.08c-.64,3.69-4.29,3.95-6.59,5.76Z" fill="#d4f0f9"/><path d="M33.17,34.28c1.41-.39,2.92-.53,4.05-1.62a6.868,6.868,0,0,1,.79.03c1.23.91,2.84-.19,4.06.76,1.77.79,2.46,2.46,3.26,4.04a.656.656,0,0,1,.19.65c-.07.22-.13.33-.19.33a1.66,1.66,0,0,1-1.1.03c-1.6-1.93-3.08-.68-4.56.19-1.29-.05-1.24-1.22-1.66-1.99h0c-1.09-.79-2.34-.3-3.51-.43-1.28-.14-2.16-.48-1.34-2Z" fill="#97e6ef"/><path d="M94.73,85.4c.31,2.56-3.65,2.9-3.01,5.7,1.68.45,1.21-1.99,2.82-1.8.23,1.42.47,2.9.74,4.51-3.82.16-6.04-1.05-5.37-5.22.54-.81,1.09-1.61,1.63-2.42.27-1.42.7-2.6,2.52-1.65.22.29.45.58.67.88Z" fill="#80f4de"/><path d="M91.54,9.13c-1.23-.46-1.53-1.25-.8-2.37,1.36.02,2.72.04,4.07.05,1.69-.29,2.98,2.21,4.84.69.56.04,1.11.09,1.67.13.11,1.65,1.82,3.59-.86,4.74-1.62.81,1.26-2.49-1.08-1.16a5.666,5.666,0,0,1-4.34.19,7.512,7.512,0,0,1-3.5-2.27Z" fill="#7de5e5"/><path d="M33.16,41.56c-1.38,1.71-4.26,2.57-3.24,5.66a1.574,1.574,0,0,1-1.62-.79A4.116,4.116,0,0,0,25,43.27c-.55-.56-1.1-1.12-1.64-1.68,3.26-1.83,6.53-2.47,9.81-.03Z" fill="#abe7f5"/><path d="M17.73,35.94c-.02-1.68,1.46-2.45,2.22-3.65.65-1.03,1.44-1.77,2.48-.58.82.94,1.36,2.19-.13,3.03-1.25.71-2.2,2-3.81,2.01-.25-.27-.5-.53-.76-.8Z" fill="#99def1"/><path d="M13.05,31.8c.76,2.48-1.67,3.44-2.55,5.13-1.42,2.74-3.24,5.28-4.89,7.9-.75.17-1.15-.01-.88-.87,2.63-4.16,4.63-8.74,8.2-12.27l.12.11Z" fill="#f4c583"/><path d="M26.69,53.73c.01-1.06.03-2.12.04-3.17a3.291,3.291,0,0,1,.77-.03c.27.26.53.53.8.79.96.71,2.07.36,3.11.38,1.18.01,2.23.12,2.23,1.6,0,1.59-1.16,2.03-2.46,1.97a8.227,8.227,0,0,1-4.49-1.54Z" fill="#aae8f6"/><path d="M43.64,15.44c-.78-2.31.37-5.62-3.32-6.41,1.01-.96,2.23-.66,3.41-.59a6.677,6.677,0,0,1,2.42,4.75,4.968,4.968,0,0,1-2.51,2.25Z" fill="#fad07e"/><path d="M94.06,84.52c-1.28-.12-1.67,1.11-2.52,1.65a18.351,18.351,0,0,1-1.64-7.25A23.5,23.5,0,0,1,94.06,84.52Z" fill="#72f2de"/><path d="M4.73,43.96c.29.29.59.58.88.87C4.17,47.58,2.87,50.42,0,52.3q2.37-4.17,4.73-8.35Z" fill="#f4dbae"/><path d="M46.15,13.19a8.817,8.817,0,0,1-2.42-4.75c1.07-.04,2.14-.07,3.21-.11a3.111,3.111,0,0,1,.98,2.47,3.616,3.616,0,0,1-1.77,2.4Z" fill="#f9cb63"/><path d="M102.78,99.18c-1.54-.13-2.07,1.41-3.33,2.35-1.33-2.81.68-4.08,1.82-5.63C102.28,96.76,102.32,98.07,102.78,99.18Z" fill="#8ef5e0"/><path d="M88.44,77.15c-.12.06-.23.13-.36.18-1.21.43-1.65,2.31-3.24,1.89-.7-.18-.73-1.13-.48-1.72.71-1.69,1.78-2.9,3.88-2.09-.73.67.04,1.17.2,1.74Z" fill="#76f4de"/><path d="M72.84,82.95c2.78-.04,5.57-.08,4.06,4.12Z" fill="#68f1e0"/><path d="M84.99,95.14a9.886,9.886,0,0,1,1.45-.65c1.23-.34,2.6-.36,3.06.99.51,1.5-1.62.99-1.97,1.99a5.277,5.277,0,0,1-2.54-2.33Z" fill="#89f4df"/><path d="M120.73,19.67c1.46-.05,3.07.31,3.93-1.41a2.124,2.124,0,0,1,1.71,1.42c-1.05.52-2.1,1.03-3.14,1.57C121.49,22.15,120.85,21.33,120.73,19.67Z" fill="#6eeedf"/><path d="M24.99,18.76a1.448,1.448,0,0,0,1.45.85c-.73,1.66-2.38,2.35-3.67,3.43-.86.17-1.2-.17-1.03-1.03C22.82,20.93,23.91,19.85,24.99,18.76Z" fill="#f7bb5e"/><path d="M16.98,59.46c-.11,2.29.52,5.1-3.33,4.78C14.07,62.17,15.72,60.95,16.98,59.46Z" fill="#c4ecfa"/><path d="M89.05,42.26c-1.55-1.79-1.87-3.37.87-4.62v3.98c-.29.21-.58.43-.87.65Z" fill="#73ece2"/><path d="M21.73,22.01l1.03,1.03c-1.18,1.42-2.29,2.92-4.27,3.29l-.1-.1c.32-2.03,1.84-3.12,3.34-4.22Z" fill="#f8c780"/><path d="M35.58,18.12A3.425,3.425,0,0,1,38,14.97c1.19,1.14-.22,2.06.04,3.02-.82.06-1.6.83-2.45.13Z" fill="#f7ca71"/><path d="M25,43.28c2.36-.27,4.51-.31,3.3,3.16A10.269,10.269,0,0,1,25,43.28Z" fill="#cceef9"/><path d="M27.53,123.49c-2.05-2-1.95-2.23,1.58-3.26A4.669,4.669,0,0,1,27.53,123.49Z" fill="#cae9f2"/><path d="M99.64,7.5c-2.26,4.28-3.14-1.03-4.84-.69C96.5,6.41,98.04,7.17,99.64,7.5Z" fill="#8de8ea"/><path d="M11.25,68.32c1.89,1.06-1.57,2.18.03,3.24l-1.71-.03C9.57,70.17,9.85,68.95,11.25,68.32Z" fill="#bce9f5"/><path d="M47.92,10.79c-1.09-.52-.95-1.53-.98-2.47.74-.07,1.74-.39,2.1.32.46.93-.41,1.59-1.11,2.14Z" fill="#f9d084"/><path d="M67,78.15c1.36-.12,2.67-.15,2.54,1.82Z" fill="#68f1e0"/><path d="M42.07,33.45c-1.37-.15-2.89.49-4.06-.76,1.33-.03,2.66-.07,3.99-.1.02.29.04.58.07.86Z" fill="#beeaf7"/><path d="M72.08,48.06c1.6,2.65-.16,4.93-.83,7.33-.36,1.29-1.85,3.22,1.37,2.32.73-.2.96-.03,1.04.65.13,1.12-.54,1.72-1.4,2.23-2.13,1.27-4.1,2.66-3.56,5.56-1.89.44-1.26-1.62-2.3-1.86-.11-.11-.22-.23-.33-.34a2.053,2.053,0,0,1-.16-.88A8.549,8.549,0,0,0,66,62.2c-.38-.66-1.15-.46-1.68-.76-.82-1.09-1.48-2.23-3.29-1.48a4.332,4.332,0,0,1-3.12-.11,1.943,1.943,0,0,1-.88-2.45c2.27-2.3-.22-3.41-1.25-4.88-1-1.95-2.82-3.07-4.46-4.36-.23-1.24.01-2.51-.26-3.74,0-.94.14-1.81,1.14-2.24.28.05.67.03.73-.18.38-1.4-.71-3.85,2.58-2.93,2.64.74,4.14,1.76,2.75,4.67,1.14-2.23,2.08-4.3-1.9-4.54-1.26-.08-1.75-1.24-1.66-2.39.1-1.39,1.23-1.69,2.36-1.62,1.59.09,3.21.59,4.62-.63a3.293,3.293,0,0,1,2.81.1c-.48,2.92.4,6.02-1.47,8.78a3.7,3.7,0,0,0-.35,3.81c.19.8-.27,1.56-.03,2.89,1.78-3.13,4.72-2.74,7.35-3.19.52.71,2.15-.64,2.1,1.12Z" fill="#5ce9db"/><path d="M72.08,48.06l-1.62-.81c-2.7-1.14-5.41.64-8.11,0-3.09-1.86-.27-3.74.16-5.49.13-.53,1.77-.84.8-1.96-2.12-2.45.14-3.4,1.48-4.7.17-.54.85-1.22.99-1.07,2.32,2.53,4.49-.25,6.71-.12.13.13.26.26.4.39,1.73,1.34,3.17,4.45,5.62.65a1.187,1.187,0,0,1,2.14.6c-.11,3.49,2.32,4.26,4.8,5.27.88.36,2.06.88,1.95,2.28-1.82.11-3.63-.21-4.48,2.32-.49,1.45-1.99,2.67-3.76.76-3.29-3.57-4.92-1.26-6.26,1.87h-.81Z" fill="#56e5da"/><path d="M55.06,63.46c-.28.81-.55,1.62-.82,2.43-.93,1.49,1.19,4-1.62,4.87-2.75.95-2.95,3.84-2.81,5.62.27,3.4-.57,3.07-2.88,1.86-.87-.45-2.1-.22-3.15-.31-.82-1.43,1.59-1.34.93-3.04-2.81,1.71-5.82,2.9-9.11,1.53-.87-1.92-.96-3.59,1.43-4.46a6.363,6.363,0,0,0,3.72-1.31c.98-.78.03-.99-.47-1.32a7.029,7.029,0,0,1-1.49-4.45,12.583,12.583,0,0,1,4.01-1.79,1.988,1.988,0,0,1,1.07.22,12.516,12.516,0,0,1,1.81,2.74c.15,1.17.28,2.35.34,3.53.66-3.02,4.87-6.93,7.95-7.29.72-.09,1.33.21,1.1,1.16Z" fill="#58e8dd"/><path d="M38.84,65.09c1.17,1.09,1.07,2.7,1.62,4.04.18,2.28-1.27,3-3.17,3.28-2.41.56-.78,2.83-1.7,4.03-.82,1.09-1.64,2.18-2.47,3.27l-7.29-2.43c-.94.44-1.75.65-1.53-.9-2.51-2.71,2.2-.84,1.51-2.4.04-.19.09-.38.13-.57,2.99-3.95,7.99-5.25,11.43-8.64.36-.36,1.03-.07,1.46.3Z" fill="#4ae1da"/><path d="M55.06,63.46c-3.13-.06-7.06,2.76-7.52,5.5-.2,1.2-.92,1.83-2.32,2.52.2-2.01-1.04-3.73.11-5.58,2.29-3.2,3.16-3.85,7.05-5.21-1.17-.22-3.16.68-2.94-1.13.28-2.28,2.07-3.68,4.48-4.01,1.24.35,3.14-.97,3.58,1.42.02.9-.15,1.86.81,2.45,2.81,2.43,2.44,4.86,0,7.29a1.662,1.662,0,0,1-.81-1.62c-.67-.41-.66-1.5-1.62-1.62h-.8Z" fill="#64eadd"/><path d="M58.3,66.71c.78-2.43,1.66-4.86,0-7.29,2.44-.57,4.9-1.23,6.48,1.62.37.72,2.12.04,1.62,1.62v.81c-1.16.97-2.31-.42-3.39-.04a8.529,8.529,0,0,1,3.4.85h0c-.29,1.29.89,4.22-2.4,2.14-1.25-.79-1.94.2-2.66.91-1.35,1.3-2.29.88-3.04-.62Z" fill="#6ef0df"/><path d="M52.62,70.76c1.14-.81.67-1.76.29-2.75-.49-1.26-.02-1.98,1.33-2.12,3.02,3.47,3.11,5.03.34,6.74-.62.38-1.16,1.35-2.07.66-1.1-.84-.15-1.69.11-2.52Z" fill="#6ef0df"/><path d="M40.42,82.93l-7.26,4.05c.34-2.98,3.28-3.73,4.86-5.65a2.051,2.051,0,0,1,2.39,1.6Z" fill="#f5fafb"/><path d="M55.86,63.46c.14-.32.29-.63.43-.95a3.218,3.218,0,0,1,1.19,2.58,1.479,1.479,0,0,1-1.62-1.62Z" fill="#6ef0df"/><path d="M11.27,71.57c3.43.72,5.75.08,5.77-4.14.01-2.05,1.91-1.36,3.14-1.54.08.15.15.3.24.45.29,1.5,1.44.61,2.2.77,1.75.35,2.84,1.68,1.95,3.07-1.39,2.17.23,2.24,1.37,2.84a.718.718,0,0,1-.08.99h-.04c-1.93.24-4.68-1.08-4.79,2.63-.01.46-.7,1.37-1.7.31-2.26-2.38-5.32-3.65-8.06-5.37Z" fill="#bce9f5"/><path d="M25.03,88.62c-.15,3.69-2.75,5.23-5.68,6.47C21.11,92.82,21.08,88.97,25.03,88.62Z" fill="#f3f9fb"/><path d="M24.3,76.38l1.53.9a13.59,13.59,0,0,1-6.66,3.56C20.67,79.13,21.61,76.84,24.3,76.38Z" fill="#f8fbfc"/><path d="M24.17,103.18a6.7,6.7,0,0,0,.08-.77c.89.06,2.11-.45,2.57.44.43.84-.44,1.7-1.03,2.41a16.51,16.51,0,0,1-3.67,3.6c-.46-2.51,1.68-3.73,2.06-5.68Z" fill="#f6fafc"/><path d="M94.79,10.74a18.64,18.64,0,0,0,4.38-.27c2.98-.91.85,1.3,1.29,1.91.37,2.19-.65,3.71-2.22,5.11-1.32,1.18-3.02,2.27-2.58,4.51a1.407,1.407,0,0,1-1.46.55c-1.4-.33-2.39-2.22-4.18-1.1a7.614,7.614,0,0,1-6.36,1.47,4.3,4.3,0,0,1-1.09-.39,2.426,2.426,0,0,1-1.04-1.37,2.628,2.628,0,0,1,.54-1.64,4.5,4.5,0,0,1,.84-.79c1.29-.85,2.82-.61,4.23-.92,3.67-.79,6.79-2.31,7.43-6.57.07-.17.15-.33.22-.5Z" fill="#8de8ea"/><path d="M94,22.19c.55-.07,1.1-.14,1.65-.2a4.448,4.448,0,0,0,.73,0c1.62.16,3.57-1.53,4.78.87a2.206,2.206,0,0,0-.61.21c-1.31,1.87-3.22,2.27-5.32,2.2-1.62-.54-2.31-1.45-1.22-3.07Z" fill="#f1fbfb"/><path d="M101.15,22.85c-1.35-1.61-3.24-.3-4.78-.87,2.04-1.25,4.28-.5,6.43-.65a2.034,2.034,0,0,1-1.66,1.52Z" fill="#8de8ea"/><path d="M18.2,125.28c.08.86-.13,1.29-.8,1.29-.57,0-1.05-.23-1.1-.87-.04-.54.06-1.17.77-1.07C17.51,124.69,17.91,125.11,18.2,125.28Z" fill="#cae9f2"/><path d="M94.95,98.97c-1.18-.32-2.4-.53-2.43-1.84-.02-1.18.9-.98,1.73-.75a1.566,1.566,0,0,0,1.13-.09c1.12-.67,2.15-1.7,3.59-.84a1.156,1.156,0,0,1,.21.98c-1.41.91-2.87,1.74-4.23,2.55Z" fill="#85f5e0"/><path d="M81.81,21.28c.27.27.54.55.81.82.16,1.02.14,2.09,1.32,2.63,3.29,1.52,1.91,2.61-.35,3.61-1.64.89-3.96.95-4.2,3.51-.27.27-.54.55-.81.82-1.84.33-3.54,1.32-5.49,1.16-2.54-.95-.93-2.68-.78-4.14.5-3.27,3.61-4.75,5.16-7.35.71-1.18,2.7-1.46,4.35-1.06Z" fill="#9ae9ea"/><path d="M94,22.19c-.09,1.26.13,2.31,1.67,2.46,1.3,1.14,3.98-.12,4.4,2.49A3.423,3.423,0,0,1,98,30.98l.02.03c-.52,0-1.04,0-1.56-.01-.8-.95-.08-2.68-1.67-3.21-1.1-.18-2.4.37-3.23-.86-1.92-1.8-3.24-3.76-1.64-6.45,2.34-1.76,3.07.32,4.09,1.71Z" fill="#a9ecec"/><path d="M83.4,27.69c.61-.42,1.23-.85,1.83-1.27-.97-1.43-5.92-.39-2.61-4.32h0c3.16.77,6.36,1.48,8.03,4.76-1.88.57-3.76,1.13-5.63,1.7-.46-.44-1.32-.12-1.62-.86Z" fill="#b0eeee"/><path d="M90.65,26.86a44.808,44.808,0,0,0-8.03-4.76c2.55,0,5.2.42,7.29-1.62-.49,2.41,1.3,4.25,1.64,6.45C91.25,26.91,90.95,26.88,90.65,26.86Z" fill="#9ae9ea"/><path d="M83.4,27.69c.64.1,1.31.14,1.62.86l-5.64,3.3c-1.13-1.09-2.25-2.19.24-2.98C80.88,28.47,82.14,28.08,83.4,27.69Z" fill="#ecfaf9"/><path d="M72.88,33.48c1.9-.27,3.79-.53,5.69-.8a8.768,8.768,0,0,1-5.69,1.62v-.02c-.27-.17-.36-.35-.27-.53S72.79,33.48,72.88,33.48Z" fill="#7fe3ec"/><path d="M94.78,27.79c2.17.23,1.4,1.99,1.67,3.21C95.25,30.27,95.55,28.75,94.78,27.79Z" fill="#76e9dd"/><path d="M81.81,21.28c-1.02.29-1.52,1.62-2.8,1.4a2.4,2.4,0,0,0-1.16-.02c-2.05.83,3.02,4.49-.81,3.49-4.11-1.08-1.77,2.27-2.99,2.83-.36.17-.75.29-1.12.43-1.09.25-1.41,1.14-1.58,2.06-.44,2.34-1.41,3.68-4.08,2.6-1.88-.76-4.05,1.94-5.87-.4.89-3.46-1.54-1.18-2.5-1.44a11.686,11.686,0,0,1-3.36-1.08c-.16-.04-.32-.08-.48-.13-2.18-.51-1.62-1.57-.22-2.17,1.88-.8,4.1-1.24,3.35-3.94-.64-2.3-1.93-4.29-4.75-4.44.27-.27.54-.54.81-.82,1.42-1.16,3.57-.09,4.87-1.62h0q2.81,1.44,1.68,5.56a6.406,6.406,0,0,1,4.8-4.74,1.706,1.706,0,0,0,1.63.8c3.17.61,6.29-.3,9.45-.32a26.713,26.713,0,0,0,3.53-.48c1.18-.85,1.9-.3,2.42.81-.27.54-.54,1.07-.8,1.61Z" fill="#7fe3ec"/><path d="M61.54,35.08c-.49,2.33-2,1.56-3.42,1.15-1-.29-2.44-.88-2.69.54-.26,1.54.65,1.47,2.19,1.21,1.31-.22,3.05,1.43,2.73,3.23-.3,1.72-.22,4.46-3.61,3.38-.08-1.33,2.11-2.2,1.04-3.71-.84-1.18-2.32-1.14-3.6-1.47-1.07,1.19.39,2.28.05,3.41-.18.59.07,1.61-.85,1.48-1.03-.14-.66-1.25-.79-1.98a6.655,6.655,0,0,1-3.2-3.21c-.26-4.2,2.46-6.32,5.66-8.1h0c1.28-.48,1.81.77,2.7,1.17a8.049,8.049,0,0,0,2.78,1.34c.56.37,1.44.54,1,1.55Z" fill="#56e5da"/><path d="M49.39,39.12a5.04,5.04,0,0,1,3.2,3.21c-.91.61-.79,1.57-.84,2.47-1.71.21-1.35-1.69-2.47-2.37.62,4.9-3,5.6-6.31,6.63-1.16.09-1.71-.73-2.3-1.5-1.05-4.39,1.71-6.86,4.65-9.24V37.5c1.54.07,2.26,2.19,4.06,1.62Z" fill="#90e3f2"/><path d="M98,30.98c1.88-2.46,3.1-4.68-1.61-5.09-.27-.02-.48-.81-.72-1.25,1.62-.53,3.25-1.06,4.87-1.58-.25,2.83,1.88,6.43-2.55,7.92Z" fill="#76e9dd"/><path d="M92.35,36.7c.07-.99-.21-2.07.78-3.13,1.27,1.66.43,2.44-.78,3.13Z" fill="#60e7da"/><path d="M82.61,19.67c-.81-.27-1.62-.54-2.42-.81l-.81-2.43c2.63-1.52,4.05-4.76,7.52-5.19.77-.1,1.45-.47,2.18,0,3.22,2.09,2.24-.71,2.47-2.11a4.492,4.492,0,0,1,3.25,1.61v.02c-.41,1.05-.42,2.33-1.66,2.89-1.48.66-3.12.37-4.64.74-.93.23-2.27.17-1.91,1.82.23,1.01.72,2.34-1.07,2.08a2.493,2.493,0,0,0-2.88,1.37h-.01Z" fill="#8de8ea"/><path d="M65.58,18.87c-2.08,2.46-4.83,4.42-5.63,7.94-1.42-3.04,3.26-6.2-.85-8.76a9.073,9.073,0,0,1,6.48.83Z" fill="#8de3f0"/><path d="M59.11,18.05c-.74,3.19-3.09,1.54-4.87,1.62C55.3,17.43,57.36,18.2,59.11,18.05Z" fill="#8de3f0"/><path d="M26.69,53.73c1.51-.57,2.77-.05,4.13.65.75.39,2.02.35,2.13-1.01.08-1.08-.86-1.16-1.68-1.23-1.04-.09-2.19.22-2.97-.81,1.36-.23,2.92.53,4.05-.82.87-.43,1.49.06,2.12.56.77,2.46,3.39,3.64,4.21,6.08a2.626,2.626,0,0,1-2.75.4,23.851,23.851,0,0,0-3.33-.64c-1.18-.17-2.34-.28-1.22,1.44a8.975,8.975,0,0,0,1.92,1.82c.74.4.94.14.72-.63a2.375,2.375,0,0,1-.22-1.48c.52-.81,1.22-.71,1.97-.42,1.52,1.01,1.82,2.54,1.83,4.2-.67,2.48-2.43,3.53-4.87,3.67-2.73-1.77-4,1.87-6.29,1.71-1.95-1.1-4.26-.4-6.25-1.28v-.03c.92-3.63,3.81-1.49,6.07-2.05-2.63-.65-.28-6.65-5.28-4.44,1.41-2.38,4.69-2.88,5.7-5.67Z" fill="#b9eaf8"/><path d="M33.97,51.3l-1.62-.81c-.01-.26-.01-.53-.01-.79-.54-1.54.98-1.7,1.64-2.44.83-.08,2.18-.64,1.94-1.02-1.29-2.11.74-4.28-.31-6.29-1.47-2.78,1.89-1.95,2.42-3.24.55.54,1.09,1.08,1.64,1.62,1.63,1.89,3.25-.71,4.88-.01h.8c-1.76,2.05-2.19,4.94-4.27,6.8-.81.73.04,1.41.22,2.11-.13.13-.26.25-.38.38-1.28.32-2.82.5-1.14,2.29,1.21,1.17,3.94,1.83,1.45,4.25-1.44.6-2.72.08-3.98-.57-1.13-.7-2.07-1.68-3.27-2.28Z" fill="#a6e7f6"/><path d="M33.17,34.28c.49,3.05,3.8.49,4.85,2.43-2.14-.11-4.29-.16-6.43-.37-.85-.08-2.52.85-2.3-1.12.17-1.61,1.32-1.83,2.7-1.17a4.573,4.573,0,0,0,1.18.23Z" fill="#a6e7f6"/><path d="M33.97,47.26c-.55.81-1.09,1.63-1.64,2.44C30.93,47.58,32.72,47.6,33.97,47.26Z" fill="#aae8f6"/><path d="M44.53,38.31c-1.09.65-2.18,1.32-3.29,1.96-.69.4-1.55.77-1.99-.15-.21-.44.24-1.19.4-1.8C41.27,34.85,42.89,34.91,44.53,38.31Z" fill="#b6eaf9"/><path d="M42.86,48.84c.57-1.26,1.71-1.41,2.92-1.7a3.186,3.186,0,0,0,2.61-4.16c-.19-.92-1.33-2.22.25-2.58,1.25-.28,1.99,1.05,2.27,2.28.17.76.06,1.61.85,2.12.83,1.06.14,2.11-.02,3.17a2.542,2.542,0,0,1-1.77,1.92c-1.05,0-2.12-.34-3.13.21a4.683,4.683,0,0,1-3.64-.82c-.11-.14-.22-.29-.33-.44Z" fill="#b6ecf3"/><path d="M61.54,35.08a1.653,1.653,0,0,0-1.59-.8c-.17-1.31.55-1.24,1.43-.92,2.62,1.82,5.35-.52,8.11.2.93.24.91-1.58.86-2.66-.1-2.07.82-2.55,2.58-1.48-.02,1.35-.03,2.71-.05,4.06v.79c-2.63-.15-3.77.93-2.65,3.42-3.2,1.41-2.04-4.81-5.45-2.6H61.54Z" fill="#70e4e3"/><path d="M62.34,47.24c2.7-.35,5.41-3.41,8.11,0-1.15.44-1.91,2-3.53,1.12-.99-.54-1.61.06-2.35.81-.88.89-1.18,3.46-2.96,2.24-1.84-1.26.46-2.75.73-4.17Z" fill="#68edde"/><path d="M57.49,56.97c-.75-1.63-2.33.14-3.26-.79-.36-.35-.91-.53-1.03-1.1a4.529,4.529,0,0,1,1.35-2.18,2.269,2.269,0,0,1,1.32-.77c3.85.28,2.48,3.52,3.02,5.61.05.2-.84-.64-1.41-.76Z" fill="#49e1da"/><path d="M55.87,52.12c-.26.28-.51.57-.77.85l-.53-.15c-1.12-1.31-2.92-1.54-4.17-2.64-.06-.17-.12-.35-.18-.52.51-.56,1.01-1.12,1.52-1.69a4.138,4.138,0,0,1,4.14,4.15Z" fill="#64eadd"/><path d="M59.96,57.58c1.04-2.85,2.99-2.09,5.01-2.56C63.82,57.71,61.89,56.99,59.96,57.58Z" fill="#6ef0df"/><path d="M66.4,64.27c-1.21-.15-2.63.45-3.51-1.04,1.28-1.25,2.34.52,3.51.23v.82Z" fill="#62eddd"/><path d="M66.41,62.65l-1.62-1.62c.99.29,2.08-1.34,2.86-.1.51.81-.54,1.32-1.23,1.72Z" fill="#62eddd"/><path d="M78.89,38.39c-2.61,1.57-4.28,2.61-6,3.58a1.388,1.388,0,0,1-1.99-.73c-.61-1.12.46-1.37,1.13-1.6a17.771,17.771,0,0,1,6.86-1.26Z" fill="#e6faf8"/><path d="M53.43,55.35l.8.83c-2.24.29-3.23,1.99-4.42,3.58,2,1.29,3.87-2.63,4.65-.48.83,2.28-2.35,2.1-3.88,2.93a49.3,49.3,0,0,0-5.25,3.7c-1.63-.08-1.64-1.24-1.62-2.42,1.73-2.68,1.13-6.75,4.88-8.24,1.63-.51,3.26-1.3,4.84.11Z" fill="#53e2db"/><path d="M32.37,65.09c1.85-.73,3.75-1.39,4.84-3.25a12.346,12.346,0,0,0,5.59.63c.23.19.32.38.26.59s-.13.32-.2.32c-.97,1.44-2.45,1.7-4.03,1.72q-6.495,4.455-12.98,8.91c-.02-.28-.04-.57-.05-.85-.67-1.8.43-3.38.62-5.07,1.91-1.14,3.13-3.66,5.94-2.98Z" fill="#aae8f6"/><path d="M42.87,63.37a4.821,4.821,0,0,0,0-.76,1.163,1.163,0,0,1-.39-.92,2.294,2.294,0,0,1,.82-1.24,1.984,1.984,0,0,0,.76-2.1,2.782,2.782,0,0,1,.29-1.02c1.1-1.29,2.04-2.89,4.18-2.16a.668.668,0,0,1,.19.67c-.07.22-.13.33-.2.33-1.09.55-2.46,1.53-2.18,2.52.75,2.7-1.55,3.35-2.66,4.81-.28-.04-.56-.07-.84-.11Z" fill="#b6ecf3"/><path d="M37.29,72.41c1.06-1.09,2.11-2.19,3.17-3.28.92-.54,1.95-1.32,2.75-.05.77,1.22-.58,1.7-1.27,1.96-1.5.56-2.58,2.75-4.65,1.38Z" fill="#f5fcfb"/><path d="M26.7,68.37c.96,1.83-.09,3.28-.9,4.78-1.43-.08-2.92.41-4.28-.39-.3-1.21.74-1.34,1.35-1.7,1.08-.64,1.71-1.4.9-2.59-.68-1.01-1.55-.85-2.4-.13s-1.72.88-2.35-.2c-.74-1.27.9-1.42,1.16-2.23,2.31-.91,4.54-1.16,6.49.8.54.55-.03,1.11.02,1.66Z" fill="#d2f0f9"/><path d="M82.62,19.66c.22-1.44.57-2.61,2.51-1.99,1.59.51.9-.56.72-1.22,1.7-2.69,4.9-1.96,7.25-3.16.56-.85,1.11-1.69,1.67-2.54,1.98,3.12-.76,5.02-2.45,6.13-1.78,1.17-3.99,2.63-6.65,2.05C84.75,18.73,83.64,19.39,82.62,19.66Z" fill="#9aeaed"/><path d="M61.38,33.36c-.48.31-.95.61-1.43.92a2.822,2.822,0,0,1-2.55-1.63c-.17-.74.09-1.07.86-.88,1.9-.58,3.8-1.17,6.17-1.9-.57,2.11-2.45,2.24-3.06,3.49Z" fill="#edfafb"/><path d="M78.09,21.15c-2.78,1.01-4.59,1.74-6.44,2.31a1.33,1.33,0,0,1-1.72-1.2c-.12-.85.7-.95,1.36-1.04,1.92-.25,3.79-1.16,6.81-.07Z" fill="#f5fbfc"/><path d="M58.27,31.77c-.29.29-.58.59-.86.88-.78-.54-1.57-1.08-2.35-1.62C56.51,29.64,57.32,31.03,58.27,31.77Z" fill="#78e2e7"/><path d="M41.27,53.72c1.45-2.78-1.88-1.95-2.44-3.22.83-1.07,1.54-2.21,2.42-3.24l.03-.04c.53.54,1.06,1.07,1.58,1.61l.05.03a7.156,7.156,0,0,1,2.17,3.67c.28,1.63.37,3.31-2.16,2.99a3.453,3.453,0,0,1-1.66-1.81Z" fill="#aae8f6"/><path d="M93.1,13.29c-1.94,2.15-4.89,1.98-7.25,3.16-.88-1.04-2.25-2.02.45-2.61a22.29,22.29,0,0,1,6.8-.55Z" fill="#f0fbfb"/><path d="M42.89,61.84c0,.26,0,.51-.01.77-2.13,1.54-4.11,1.99-5.66-.77L35.6,57.79c-.28-.18-.37-.36-.28-.54s.19-.27.28-.27h3.24c.16.08.33.16.49.24.45,2.11,2.9,2.68,3.56,4.63Z" fill="#caeff8"/><path d="M33.97,58.59l.81.81c-.19.89-.16,1.99-1.61,1.63a33.682,33.682,0,0,0-2.86-2.22c-1.08-.67-1.09-1.38-.5-2.34.72-1.18,1.52-1.48,2.53-.33.34.95,1.37,1.45,1.64,2.45Z" fill="#caf0fa"/><path d="M33.97,51.3c1.39-.08,2.63.14,3.25,1.61.38,1.4,1.75,1.43,2.74,1.99a1.272,1.272,0,0,1,.72,1.64c-.37.9-1.04,1.09-1.84.44h0c-3.07-.65-4.09-3.06-4.87-5.67Z" fill="#aae8f6"/><path d="M26.7,68.37c-.95-.54-.1-1.11-.02-1.66.89-.77,1.82-1.5,2.67-2.31,1.38-1.31,2.31-.82,3.02.69-1.89,1.09-3.78,2.19-5.67,3.28Z" fill="#f7fbfc"/><path d="M27.18,58.48a1.463,1.463,0,0,1-1.45-1.14c-.42-1.3.71-1.12,1.37-1.34.96-.32,1.15.29,1.15,1.04a1.3,1.3,0,0,1-1.07,1.45Z" fill="#96e3f3"/><path d="M33.97,58.59c-.64-.75-2.99-.36-1.64-2.45a5.781,5.781,0,0,1,3.27.84v.81a1.7,1.7,0,0,0-1.62.8Z" fill="#aae8f6"/><path d="M33.16,61.03c.54-.54,1.07-1.09,1.61-1.63a1.453,1.453,0,0,1,.07,2.57C33.92,62.66,33.55,61.67,33.16,61.03Z" fill="#aae8f6"/><path d="M38.84,56.97c1.42-.37,2.1-.86.18-1.57-1.19-.44-3.18-.21-1.8-2.48l4.05.81a1.645,1.645,0,0,1,1.61.84c-.7,1.71,1.41,1.99,1.64,3.23v.79a6.241,6.241,0,0,0-.81,2.43l-.82.82c-.56-.38-1.1-1.06-1.67-1.09-2.72-.13-2.73-1.81-2.38-3.78Z" fill="#bdecf7"/><path d="M41.25,47.27c.1,1.76.13,3.46-2.42,3.24-1.17-.97-.77-2.35-1.06-3.71,1.24.17,2.36.32,3.48.48Z" fill="#c4ecf9"/><path d="M44.52,57.8c-1.83-.43-3.35-1.01-1.64-3.23,1.72-.41,2-.7,1.33-2.04-.59-1.18-1.54-2.18-1.28-3.65l4.01.78a2.307,2.307,0,0,1,.7.82c.32,1.45,1.8,2.28,2.02,3.79a1.273,1.273,0,0,1-1.13,1.07c-1.85-.03-2.52,1.87-4,2.46Z" fill="#caeff8"/><path d="M46.94,50.49c0-.28-.01-.56-.02-.84,1.1-3.4,2.2.29,3.29,0h0a1.508,1.508,0,0,1-.88,2.5C48.02,52.57,47.57,51.31,46.94,50.49Z" fill="#d6f0fa"/><path d="M48.52,55.34c.28-.28.56-.56.84-.83,1.7-1.09,3.33-2.46,5.59-1.66l.16.13c.04,1.22-1.19,1.54-1.67,2.38-1.63.27-3.26.53-4.89.8,0-.27-.02-.54-.03-.81Z" fill="#64eadd"/><path d="M54.95,52.84c-1.87.53-3.37,2.31-5.59,1.66-.59-1.47-2.96-1.86-2.41-4.01,1.37.8,2.94,2.39,3.27-.84,1.71.86,4.43.23,4.73,3.19Z" fill="#b6ecf3"/><path d="M43.71,61.02c-1.56-1.42-1.37-2.26.81-2.43C45.82,59.93,45.46,60.71,43.71,61.02Z" fill="#caeff8"/></g></svg>