<svg xmlns="http://www.w3.org/2000/svg" xmlns:xlink="http://www.w3.org/1999/xlink" width="18" height="18" viewBox="0 0 18 18"><defs><clipPath id="a"><rect width="18" height="18" transform="translate(731 47)" fill="#fff" stroke="#707070" stroke-width="1"/></clipPath></defs><g transform="translate(-731 -47)" clip-path="url(#a)"><path d="M10.125-14.625A1.124,1.124,0,0,0,9-13.5a1.124,1.124,0,0,0,1.125,1.125h1.782L5.955-6.42a1.127,1.127,0,0,0,0,1.593,1.127,1.127,0,0,0,1.593,0L13.5-10.782V-9a1.124,1.124,0,0,0,1.125,1.125A1.124,1.124,0,0,0,15.75-9v-4.5a1.124,1.124,0,0,0-1.125-1.125ZM2.813-13.5A2.812,2.812,0,0,0,0-10.687v9A2.812,2.812,0,0,0,2.813,1.125h9a2.812,2.812,0,0,0,2.813-2.812V-4.5A1.124,1.124,0,0,0,13.5-5.625,1.124,1.124,0,0,0,12.375-4.5v2.813a.564.564,0,0,1-.562.563h-9a.564.564,0,0,1-.562-.562v-9a.564.564,0,0,1,.563-.562H5.625A1.124,1.124,0,0,0,6.75-12.375,1.124,1.124,0,0,0,5.625-13.5Z" transform="translate(732 63)" fill="#fff"/></g></svg>