<svg xmlns="http://www.w3.org/2000/svg" xmlns:xlink="http://www.w3.org/1999/xlink" width="40" height="40" viewBox="0 0 40 40">
  <defs>
    <clipPath id="clip-path">
      <rect id="長方形_2204" data-name="長方形 2204" width="40" height="40" transform="translate(803 303)" fill="#fff"/>
    </clipPath>
  </defs>
  <g id="header_icon5" transform="translate(-803 -303)" clip-path="url(#clip-path)">
    <path id="bbbb" d="M-4699.641,20.977a3.022,3.022,0,0,1-2.681-1.74,6.628,6.628,0,0,1-.708-2.94,3.787,3.787,0,0,1,.523-1.415.448.448,0,0,1,.231-.2,3.182,3.182,0,0,1,2.926-.222c.992.52,2.011.991,2.984,1.544a3.137,3.137,0,0,1,.844.863.714.714,0,0,1,.117.576c-.283.759-.611,1.5-.933,2.244a.619.619,0,0,1-.2.226,4.461,4.461,0,0,1-2.7,1.084A3.467,3.467,0,0,1-4699.641,20.977Zm9.17-1.745a6.816,6.816,0,0,1-1.22-1.379,2.216,2.216,0,0,1-.354-1.159,10.439,10.439,0,0,1,.206-2.145,8.564,8.564,0,0,0,.042-3.194c-.172-.91-.27-1.835-.449-2.743a8.8,8.8,0,0,0-.46-1.463c-.052-.132-.259-.206-.458-.354a23.633,23.633,0,0,1-.5,2.768c-.239.792-.43,1.586-.622,2.387a23.362,23.362,0,0,1-.879,2.614.343.343,0,0,1-.5.207c-.163-.095-.37-.244-.408-.4a4.041,4.041,0,0,1,.143-2.131,11.421,11.421,0,0,1,.458-1.149,12.554,12.554,0,0,0,.908-5.44c0-.1-.072-.272-.115-.273a.942.942,0,0,0-.557.078,31.749,31.749,0,0,0-3.775,3.653,1.509,1.509,0,0,1-.434.421.761.761,0,0,1-.534-.024.34.34,0,0,1-.168-.529,4.284,4.284,0,0,1,.719-.988c1.337-1.15,2.306-2.634,3.541-3.875a3.868,3.868,0,0,0,.345-.512c.245-.344.322-.743.146-.791a1.379,1.379,0,0,0-.565-.095c-1.212.233-2.415.516-3.63.726a1.3,1.3,0,0,1-1.162-.251.618.618,0,0,1-.182-.229c-.073-.236,0-.455.228-.5,1.392-.306,2.789-.59,4.182-.89a.449.449,0,0,0,.225-.187.357.357,0,0,0-.095-.549,13.1,13.1,0,0,0-1.269-.868,9.636,9.636,0,0,1-2.432-1.876c-.291-.31-.429-.635-.937-.452-.384.138-.814.15-1.2.29a2.951,2.951,0,0,1-3.1-.823,7.19,7.19,0,0,1-1.028-1.154,1.81,1.81,0,0,1-.382-.832,5.65,5.65,0,0,1,.88-4.131,2.742,2.742,0,0,1,2.582-1.388,9.4,9.4,0,0,1,1.232.086,2.741,2.741,0,0,1,1.111.492,12.2,12.2,0,0,1,2.459,2.761,1.74,1.74,0,0,1,.146,1.766c-.361.733-.766,1.444-1.122,2.108A3.6,3.6,0,0,0-4698-1.511c.849.585,1.7,1.161,2.556,1.743a.44.44,0,0,0,.69-.245c.048-.513.1-1.026.131-1.541.06-1.134.1-2.269.157-3.4.046-.824.07-1.654.189-2.47a13.462,13.462,0,0,0-.24-2.438c0-.135.221-.333.383-.4a.359.359,0,0,1,.487.248c.038.095.125.18.132.273a4.49,4.49,0,0,1,.02.926,21.251,21.251,0,0,0,.2,5.234c.014.143.2.286.339.39.045.033.22-.03.277-.1.533-.628,1.042-1.276,1.582-1.9a.94.94,0,0,1,.778-.358c.233.012.259.471.048.829-.729,1.244-1.461,2.488-2.183,3.737a1.157,1.157,0,0,0-.195.572.94.94,0,0,0,.259.488c.042.051.217.045.3,0a5.273,5.273,0,0,0,.77-.51c1.025-.865,2.03-1.755,3.06-2.614a3.681,3.681,0,0,1,.8-.44c.049-.024.171.047.226.105s.141.189.121.261c-.079.288-.107.7-.309.829-1.21.805-1.961,2.114-3.205,2.875-.21.129-.05.65.225.746a9.84,9.84,0,0,0,1.166.376,4.674,4.674,0,0,1,1.939.909.7.7,0,0,1,.184.534.633.633,0,0,1-.7.453,8.039,8.039,0,0,1-.855-.331,4.708,4.708,0,0,0-2.71-.385.637.637,0,0,0-.41.417,3.217,3.217,0,0,0-.086,1.221c.443,2.322.929,4.637,1.4,6.953a.5.5,0,0,0,.666.391,5.17,5.17,0,0,1,2.149-.073,2.408,2.408,0,0,1,1.684,1.243,1.568,1.568,0,0,1,.22.573,6.176,6.176,0,0,1-.876,4.45,8.513,8.513,0,0,1-1.013,1.154,1.884,1.884,0,0,1-1.355.539A2.351,2.351,0,0,1-4690.47,19.232Zm-14.549-7.931a10.52,10.52,0,0,1-.707-1.354c-.438-.929.266-1.6,1.119-1.718a2.453,2.453,0,0,1,.417-.011c.065,0,.13,0,.195,0a2.1,2.1,0,0,1,1.6.77,1.591,1.591,0,0,1,.174,2.216,1.547,1.547,0,0,1-1.389.829A1.713,1.713,0,0,1-4705.019,11.3Zm20.415-2.679a1.973,1.973,0,0,1-1.293-1.909,9.107,9.107,0,0,0-.263-1.8,16.8,16.8,0,0,1,1.975-3.49,2.909,2.909,0,0,1,3.048-.934,1.651,1.651,0,0,1,1.114,1.665,4.6,4.6,0,0,1-.264,1.192,1.359,1.359,0,0,0,.07,1.165,7.42,7.42,0,0,1,.422,1.156.977.977,0,0,1-.016.6,5.688,5.688,0,0,1-1.11,1.835,3.05,3.05,0,0,1-2.172.919A3.111,3.111,0,0,1-4684.6,8.622Zm-23-3.224a20.629,20.629,0,0,1-2.883-1.719,2.133,2.133,0,0,1-.57-1.043,2.879,2.879,0,0,1-.078-.793,4.069,4.069,0,0,1,3.336-3.973c.168-.048.48-.044.54.052.479.765,1.364.842,2.041,1.263a2.526,2.526,0,0,1,.508.337,1.959,1.959,0,0,1,.526.713c.164.584.2,1.2.354,1.791a1.939,1.939,0,0,1-.2,1.466c-.093.18-.151.378-.234.565a2.738,2.738,0,0,1-2.43,1.539A2.122,2.122,0,0,1-4707.6,5.4Zm24.46-7.969a12.861,12.861,0,0,1-1.794-.393A1.9,1.9,0,0,1-4686.433-5c0-.047.005-.093.007-.119a9.476,9.476,0,0,1,1.2-3.954,1.528,1.528,0,0,1,.691-.583,8.932,8.932,0,0,1,1.154-.419,1.22,1.22,0,0,1,1.145.255,1.856,1.856,0,0,1,.856,1.232,4.909,4.909,0,0,0,.924,2.239,1,1,0,0,1,.078.858,18.921,18.921,0,0,1-1.392,2.38,1.436,1.436,0,0,1-1.2.549C-4683.024-2.563-4683.085-2.566-4683.145-2.572Zm-6.777-5.656a1.876,1.876,0,0,1-1.635-2.2,4.1,4.1,0,0,1,1.221-2.424,19.2,19.2,0,0,1,2.113-1.779,1.718,1.718,0,0,1,2.222.352c.329.394.735.862.543,1.367a9.221,9.221,0,0,0-.549,3.3,1.578,1.578,0,0,1-1.173,1.291c-.7.114-1.417.163-1.832.208Zm-7.273-3.942c-.266-.156-.542-.3-.793-.474a1.838,1.838,0,0,1-.8-1.577,3.626,3.626,0,0,1,.023-.407,2.873,2.873,0,0,1,.805-2.151,11.688,11.688,0,0,0,.792-.944,3.817,3.817,0,0,1,2.4-1.262,1.565,1.565,0,0,1,.887.145,4.175,4.175,0,0,1,1.756,1.682c.7,1.155.019,3.77-1.3,4.334-.661.281-1.324.557-1.993.821a1.943,1.943,0,0,1-.715.14A2.068,2.068,0,0,1-4697.194-12.17Z" transform="translate(5518.446 322)" fill="#d1e041"/>
  </g>
</svg>
