<svg xmlns="http://www.w3.org/2000/svg" xmlns:xlink="http://www.w3.org/1999/xlink" width="40" height="40" viewBox="0 0 40 40">
  <defs>
    <clipPath id="clip-path">
      <rect id="長方形_2200" data-name="長方形 2200" width="40" height="40" transform="translate(325 289)" fill="#fff"/>
    </clipPath>
  </defs>
  <g id="header_icon1" transform="translate(-325 -289)" clip-path="url(#clip-path)">
    <g id="ss" transform="translate(325.744 289)">
      <path id="パス_33007" data-name="パス 33007" d="M38.441,21.8c-.326-1.529-.686-2.066-2.2-2.231-.574-.063-1.151-.1-1.728-.13a4.165,4.165,0,0,1-1.922-.725c-.6-.355-.729-1.036-.242-1.411.548-.421,1.121-.809,1.679-1.217.65-.475,1.307-.94,1.939-1.437a3.42,3.42,0,0,0,1.227-2.4,4.764,4.764,0,0,0-1.68-4.33q-1.151-1.048-2.372-2.018a12.736,12.736,0,0,0-1.447-.944A1.513,1.513,0,0,0,30.36,4.83a16.978,16.978,0,0,0-2.186,1.03c-1.4.8-2.767,1.666-4.162,2.48a5.125,5.125,0,0,1-.956.332,1.761,1.761,0,0,1-.3-1.3A10.761,10.761,0,0,1,23.663,3a2.585,2.585,0,0,0,.169-1.018A1.276,1.276,0,0,0,23.279.8a3.714,3.714,0,0,0-2.6-.77c-1.14.15-2.274.321-3.425.408A5.179,5.179,0,0,0,14.718,1.47a3.133,3.133,0,0,0-1.541,2.915A14.358,14.358,0,0,0,13.4,6.091c.182.9.422,1.783.616,2.678.014.064-.132.2-.23.24A.374.374,0,0,1,13.464,9a9.123,9.123,0,0,1-1.048-.878c-.56-.583-1.071-1.212-1.621-1.8C9.112,4.5,5.943,3.7,3.916,5.451c-.257.221-.605.334-.874.544a2.069,2.069,0,0,0-.413.54,3.161,3.161,0,0,0-.312,2.954,8.673,8.673,0,0,0,3.558,4.935c.075.046.1.177.155.283a1.7,1.7,0,0,1-1.48.73,6.335,6.335,0,0,1-1.361-.188c-.444-.111-.863-.321-1.3-.46a1.16,1.16,0,0,0-1.166.538,3.514,3.514,0,0,0-.7,2.277,21.314,21.314,0,0,0,.8,4.411A3.042,3.042,0,0,0,2.335,23.8c.4.2.442.52.117.814a3.46,3.46,0,0,0-1.081,2.808,10.928,10.928,0,0,0,1.385,5.294,4.915,4.915,0,0,0,3.276,2.36,1.66,1.66,0,0,0,1.819-.669c.512-.768,1.053-1.521,1.492-2.33a9.987,9.987,0,0,1,1.912-2.429c.063-.06.446.071.531.206a1.921,1.921,0,0,1,.35.947c-.009,1.153-.087,2.306-.149,3.458-.049.922-.152,1.843-.156,2.764a2.05,2.05,0,0,0,.938,1.762,5.239,5.239,0,0,0,2.538,1.019c3.649.28,2.9.422,6.046-.842.535-.215,1.056-.464,1.588-.686a4.015,4.015,0,0,0,2.638-3.123c-.192-.765-.4-1.664-.645-2.551a5.949,5.949,0,0,1-.032-2.879,17.185,17.185,0,0,0,3.73,1.867l.415.22a18.186,18.186,0,0,0,1.688,1.009,3.967,3.967,0,0,0,.8.312l.223.118,0-.066a5.284,5.284,0,0,0,1.658.091,1.962,1.962,0,0,0,1.467-.82,16.294,16.294,0,0,0,2.525-5.273c.286-1.115.509-2.238.885-3.336a4.028,4.028,0,0,0,.145-2.048" transform="translate(0 0)" fill="#9fd9ed"/>
      <g id="グループ_5485" data-name="グループ 5485">
        <path id="パス_33008" data-name="パス 33008" d="M173.265,251.945a1,1,0,0,1,1.07,1.037,1.051,1.051,0,0,1-.884.893.944.944,0,0,1-1.053-1.022,1.038,1.038,0,0,1,.867-.908" transform="translate(-159.369 -232.909)" fill="#fff"/>
        <path id="パス_33009" data-name="パス 33009" d="M180.055,207.6a5.588,5.588,0,0,1-.768-.672.792.792,0,0,1,.285-1.14,1.981,1.981,0,0,1,.613-.226,1.187,1.187,0,0,1,1.157.489,1.046,1.046,0,0,1-.389,1.168,4.586,4.586,0,0,1-.9.382" transform="translate(-165.612 -190.021)" fill="#fff"/>
        <path id="パス_33010" data-name="パス 33010" d="M199.349,298.694c.155.148.376.269.452.45a1.121,1.121,0,0,1-.352,1.208.974.974,0,0,1-1.235.028.536.536,0,0,1-.274-.581,1.4,1.4,0,0,1,1.079-1.155c.092-.033.219.031.33.05" transform="translate(-182.979 -276.072)" fill="#fff"/>
        <path id="パス_33011" data-name="パス 33011" d="M293.072,263.793a.958.958,0,0,1-.886.81.879.879,0,0,1-.939-.7,1.176,1.176,0,0,1,1.032-1.059c.292.006.778.585.792.944" transform="translate(-269.241 -242.99)" fill="#fff"/>
        <path id="パス_33012" data-name="パス 33012" d="M252.5,296.745c-.24-.16-.481-.236-.57-.4a.892.892,0,0,1,.229-1.162.809.809,0,0,1,1.158.09.657.657,0,0,1-.01,1.093,4.148,4.148,0,0,1-.807.376" transform="translate(-232.781 -272.695)" fill="#fff"/>
        <path id="パス_33013" data-name="パス 33013" d="M244.526,192.2a.913.913,0,0,1-1.569.216.546.546,0,0,1,.174-.826,1.025,1.025,0,0,1,1.208.032.426.426,0,0,1,.186.578" transform="translate(-224.489 -176.949)" fill="#fff"/>
        <path id="パス_33014" data-name="パス 33014" d="M295.787,213.908c-.181.388-.475.572-.754.474a.656.656,0,0,1-.47-.751.641.641,0,0,1,.762-.446c.4.136.6.434.463.724" transform="translate(-272.285 -197.054)" fill="#fff"/>
      </g>
    </g>
  </g>
</svg>
