<svg xmlns="http://www.w3.org/2000/svg" xmlns:xlink="http://www.w3.org/1999/xlink" width="40" height="40" viewBox="0 0 40 40">
  <defs>
    <clipPath id="clip-path">
      <rect id="長方形_2202" data-name="長方形 2202" width="40" height="40" transform="translate(546 288)" fill="#fff"/>
    </clipPath>
  </defs>
  <g id="header_icon3" transform="translate(-546 -288)" clip-path="url(#clip-path)">
    <path id="fff" d="M10.486,13.553a8.438,8.438,0,0,0,1.055-3.937,11.325,11.325,0,0,1,.93-3.67,13.834,13.834,0,0,1,1.062-1.939,3.516,3.516,0,0,1,.651-.69,1.393,1.393,0,0,1,.517-.358c1.577-.422,2.546-1.893,4.1-2.35C19.408.431,20,.18,20.609.03a2.791,2.791,0,0,1,.938.036A.75.75,0,0,1,22.129,1a6.17,6.17,0,0,1-.3.558c-.293.439-.588.879-.908,1.3a3.72,3.72,0,0,0-.713,1.4,7.1,7.1,0,0,1-2.565,3.9,26.949,26.949,0,0,1-3.314,2.45,8.177,8.177,0,0,0-1.514,1.143,2.209,2.209,0,0,0-.627,1.068A10.972,10.972,0,0,0,12.08,14.7c0,.092.077.248.148.267.175.047.429.112.542.027.587-.446,1.141-.935,1.7-1.414a12.267,12.267,0,0,1,3.511-2.121,2.545,2.545,0,0,1,.926-.073.632.632,0,0,1,.559.645,11.566,11.566,0,0,1-1.194,2.921q-1.009,1.8-2.072,3.565A4.951,4.951,0,0,1,13.9,20.624a3.09,3.09,0,0,0-.549.317,1.351,1.351,0,0,0-.646,1.034,4.037,4.037,0,0,0-.041.948,30.551,30.551,0,0,0,1.561,6.77,1.151,1.151,0,0,0,.889.769c.027.009.151-.159.162-.254a16.21,16.21,0,0,0,.2-1.882,14.631,14.631,0,0,1,1.012-4.3,6.413,6.413,0,0,1,1.675-2.665c.61-.587,1.272-1.12,1.877-1.712a11.943,11.943,0,0,1,5.651-2.72,3.463,3.463,0,0,1,1.882.1c.333.1.711.674.57,1.008a15.621,15.621,0,0,0-.878,5.288,12.489,12.489,0,0,1-.848,4.651,6.33,6.33,0,0,1-1.484,3.109c-.258.335-.547.647-.791.991a5.423,5.423,0,0,1-3.721,2.209,16.118,16.118,0,0,0-3.126.758,4.988,4.988,0,0,0,.415.776c.975,1.246,2.1,2.367,2.994,3.682.049.073.063.264.028.283-.176.1-.4.255-.557.208a1.494,1.494,0,0,1-.776-.468c-1.4-2.006-3.186-3.68-4.681-5.6a1.822,1.822,0,0,0-1.4-.635c-1.479-.1-2.957-.231-4.438-.291a6.046,6.046,0,0,1-2.684-.874,27.642,27.642,0,0,1-3.326-2.429,3.189,3.189,0,0,1-.659-.684C1.471,27.981.756,26.938.041,25.9c-.136-.2.093-.682.358-.783A1.866,1.866,0,0,1,.985,24.9c.952-.005,1.9.025,2.857.043a10.958,10.958,0,0,1,7.028,2.5,3.493,3.493,0,0,0,.821.436c.065.029.19-.027.265-.077s.216-.162.206-.229c-.148-1.041-.255-2.093-.5-3.112a9.3,9.3,0,0,1-.31-2.19A2.9,2.9,0,0,0,10.29,20.06a2.78,2.78,0,0,0-.461-.434c-1.767-.977-2.563-2.766-3.583-4.348a5.164,5.164,0,0,1-.516-1.81A1.6,1.6,0,0,1,7,11.878a2.519,2.519,0,0,1,1.813.391c.588.39.871,1.179,1.673,1.284" transform="translate(551.917 288)" fill="#d1e041"/>
  </g>
</svg>
