<svg xmlns="http://www.w3.org/2000/svg" xmlns:xlink="http://www.w3.org/1999/xlink" width="40" height="40" viewBox="0 0 40 40">
  <defs>
    <clipPath id="clip-path">
      <rect id="長方形_2201" data-name="長方形 2201" width="40" height="40" transform="translate(426 335)" fill="#fff"/>
    </clipPath>
  </defs>
  <g id="header_icon2" transform="translate(-426 -335)" clip-path="url(#clip-path)">
    <g id="ddd" transform="translate(426.662 335)">
      <path id="パス_33000" data-name="パス 33000" d="M33,16.476a1.3,1.3,0,0,0,.646.883c.955.631,1.927,1.24,2.864,1.9a4.947,4.947,0,0,1,2.165,4.423,9.2,9.2,0,0,1-1.943,5.289,4.046,4.046,0,0,1-3.746,1.7,10.455,10.455,0,0,1-2.505-.48c-.046-.015-.2.121-.2.181.043.753.153,1.505.154,2.258a6.781,6.781,0,0,1-1.26,3.738A8.758,8.758,0,0,1,25.535,39.5a3.314,3.314,0,0,1-2.231.214,4.633,4.633,0,0,1-.8-.312,13.554,13.554,0,0,1-2.559-1.265c-.834-.579-1.108-1.536-1.653-2.308a.492.492,0,0,0-.727-.084c-.176.224-.351.448-.522.676a9.118,9.118,0,0,1-.859,1.138,6.3,6.3,0,0,1-4.558,2.086,7.049,7.049,0,0,0-1.4.253,7.8,7.8,0,0,1-2.849-.061,1.375,1.375,0,0,1-.533-.194c-.629-.432-1.258-.867-1.854-1.343a1.653,1.653,0,0,1-.478-.7,16.86,16.86,0,0,1-.486-1.645,3.439,3.439,0,0,1,.12-2.252,19.124,19.124,0,0,1,1.266-2.876c.26-.4.475-.828.706-1.246a.431.431,0,0,0-.224-.665,8.189,8.189,0,0,1-4.612-2.7,7.015,7.015,0,0,1-.673-.925A4.245,4.245,0,0,1,.222,21.7a2.3,2.3,0,0,1,.6-.952c.616-.6,1.287-1.138,1.935-1.7a.4.4,0,0,0-.033-.684A7.7,7.7,0,0,1,.684,16.378a3.01,3.01,0,0,1-.153-3.489,5.708,5.708,0,0,1,.8-1.183A16.015,16.015,0,0,1,6.181,8.2a4.361,4.361,0,0,1,2.5-.5,4.931,4.931,0,0,0,.573.034,6.372,6.372,0,0,1,3.782,1.134,1.994,1.994,0,0,0,.517.22.337.337,0,0,0,.463-.218,6.338,6.338,0,0,0,.317-2.249,9.939,9.939,0,0,1,1.733-4.491,3.051,3.051,0,0,1,1.014-.993A9.348,9.348,0,0,1,21.174,0a2.6,2.6,0,0,1,2.249,1.031,4.823,4.823,0,0,1,.953,1.734,12.1,12.1,0,0,1,.332,3.684.651.651,0,0,0,.254.484.755.755,0,0,0,.537,0,1.231,1.231,0,0,0,.489-.285A8.5,8.5,0,0,1,30.38,4.7a3.857,3.857,0,0,1,2.759.476,8.191,8.191,0,0,1,3.192,3.193,1.757,1.757,0,0,1,.2,1.385,25.741,25.741,0,0,1-1.206,3.508A10.52,10.52,0,0,1,33,16.476" transform="translate(0 0)" fill="#e591b3"/>
      <path id="パス_33001" data-name="パス 33001" d="M194.612,202.1c-.372-.439-.912-.215-1.336-.4-.209-.091-.311-.227-.271-.391a.409.409,0,0,1,.146-.237,2.876,2.876,0,0,1,.746-.4,10.7,10.7,0,0,1,1.128-.147.457.457,0,0,0,.227-.135c-.064-.173-.114-.43-.244-.486-.6-.254-1.228-.441-1.836-.676a.351.351,0,0,1-.183-.486,1.2,1.2,0,0,1,.374-.409c.232-.175.445-.339.391-.676-.038-.235.067-.407.29-.413.568-.015,1.138.007,1.706,0,.083,0,.227-.08.235-.139a.865.865,0,0,0-.034-.485c-.17-.334-.414-.63-.577-.967a.355.355,0,0,1,.2-.479c.159-.068.4-.164.507-.095a9.008,9.008,0,0,1,.866.737.371.371,0,0,0,.624-.207c.135-.452.049-.967.367-1.366a.307.307,0,0,1,.469-.048c.065.052.149.148.139.212-.042.279-.147.55-.167.829-.018.249.437.553.61.441.475-.308.942-.627,1.422-.927.181-.114.637.218.589.444-.057.273-.192.53-.272.8a.288.288,0,0,0,.082.221c.053.058.169.132.217.11.431-.194.848-.418,1.279-.612.173-.078.335.024.418.24a.348.348,0,0,1,.005.279c-.24.289-.5.56-.758.837-.236.256-.186.513.2.583.66.119,1.039.4,1,1.119a2.215,2.215,0,0,0,.108.558c.02.093.089.207.058.274-.071.152-.167.371-.294.4-.737.194-1.488.34-2.231.511-.088.02-.235.093-.234.139a.746.746,0,0,0,.1.471c.612.6,1.26,1.164,1.872,1.764a.735.735,0,0,1,.183.516.956.956,0,0,1-.256.462.265.265,0,0,1-.254.042,2.787,2.787,0,0,1-.671-.477,5.62,5.62,0,0,0-2.055-1.518c-.079-.033-.227-.074-.249-.043-.107.148-.266.327-.252.48.054.564.214,1.119.25,1.682a15.477,15.477,0,0,1-.047,1.716.858.858,0,0,1-.422.684c-.2.133-.489-.053-.625-.424-.1-.265-.155-.546-.259-.808a.415.415,0,0,0-.7-.043c-.491.576-.819,1.3-1.513,1.688a.818.818,0,0,1-.532.1.338.338,0,0,1-.24-.43c.044-.185.124-.361.169-.545a.448.448,0,0,0-.017-.262c-.1-.231-.226-.206-.441-.044a7.339,7.339,0,0,1-.965.584.285.285,0,0,1-.27-.047c-.108-.138-.284-.365-.237-.456a11.144,11.144,0,0,1,.753-1.186.443.443,0,0,0,.013-.531.953.953,0,0,1,.148-1.286c.2-.2.37-.432.55-.647" transform="translate(-178.69 -179.766)" fill="#fff"/>
    </g>
  </g>
</svg>
