<svg xmlns="http://www.w3.org/2000/svg" xmlns:xlink="http://www.w3.org/1999/xlink" width="40" height="40" viewBox="0 0 40 40">
  <defs>
    <clipPath id="clip-path">
      <rect id="長方形_2203" data-name="長方形 2203" width="40" height="40" transform="translate(694 311)" fill="#fff"/>
    </clipPath>
  </defs>
  <g id="header_icon4" transform="translate(-694 -311)" clip-path="url(#clip-path)">
    <g id="qqqqq" transform="translate(700.226 311)">
      <path id="パス_32996" data-name="パス 32996" d="M130.706,169.1c.125-.5.25-1.189.466-1.847a19.47,19.47,0,0,1,3.838-6.574,11.083,11.083,0,0,1,2.38-2.019,23.213,23.213,0,0,1,6.978-3.072,5.42,5.42,0,0,1,2.411-.051.84.84,0,0,1,.6,1.055c-.32.619-.664,1.224-.982,1.844-.37.722-.721,1.454-1.081,2.181-.057,1.531-1.222,2.472-2.023,3.562a16.686,16.686,0,0,1-2.544,2.358,2.207,2.207,0,0,1-.594.361q-4.325,1.839-8.656,3.663c-.186.079-.772-.374-.775-.587,0-.231-.009-.462-.018-.876" transform="translate(-119.885 -142.561)" fill="#d1e041"/>
      <path id="パス_32997" data-name="パス 32997" d="M46.481,188.317c.7.045,1.4.042,2.089.143a5.743,5.743,0,0,1,3.618,1.921c.305.351.576.733.888,1.078a4.351,4.351,0,0,1,1.087,3.214c-.04,1.317-.426,1.837-1.782,2.175a1.463,1.463,0,0,1-.682.066c-.9-.238-1.789-.494-2.664-.8a2.339,2.339,0,0,1-.867-.57c-.813-.832-1.591-1.7-2.384-2.549a5.283,5.283,0,0,1-.913-1.865,3.278,3.278,0,0,0-1.181-1.678c-.341-.231-.435-.817-.257-.9a2.506,2.506,0,0,1,.957-.323c.7-.013,1.393.071,2.09.116l0-.03" transform="translate(-39.756 -172.647)" fill="#d1e041"/>
      <path id="パス_32998" data-name="パス 32998" d="M.041,149.5c.026-.113.017-.255.083-.334a2.863,2.863,0,0,1,.71-.735c2.309-1.244,3.8-3.3,5.485-5.217,2.809-3.2,4.469-6.992,6.216-10.774.59-1.276.665-2.7,1.318-3.939.461-2.5,1.328-4.925,1.339-7.506a1.952,1.952,0,0,1,.389-1.3.868.868,0,0,1,.57-.308c.148,0,.36.217.427.385a1.963,1.963,0,0,1,.051.688,24.513,24.513,0,0,1-1.542,8.153,9.729,9.729,0,0,0-.505,1.653,15.75,15.75,0,0,1-1.691,4.534c-.814,1.666-1.843,3.211-2.635,4.895a14.986,14.986,0,0,1-1.985,2.839c-1.158,1.447-2.349,2.871-3.582,4.256a11.215,11.215,0,0,1-4,2.676c-.189.083-.455-.006-.685-.016Z" transform="translate(0 -109.502)" fill="#d1e041"/>
      <path id="パス_32999" data-name="パス 32999" d="M126.82,1.139A1.471,1.471,0,0,0,127.139,1c2.059-1.513,2.28-1.219,3.781.232a2.031,2.031,0,0,0,.388.211c.372-.1.815-.219,1.252-.356a2.362,2.362,0,0,1,2.714,2.975,13.331,13.331,0,0,1-1.5,3.851,15.115,15.115,0,0,1-1.321,1.59,3.589,3.589,0,0,1-2.123,1.075c-.912.122-1.812.35-2.726.449a4.09,4.09,0,0,1-3.641-2.212c-.1-.332-.211-.661-.34-.982a11.219,11.219,0,0,1-.431-6.134,1.638,1.638,0,0,1,2.4-1.136c.207.1.377.272.584.369a4.6,4.6,0,0,0,.645.2" transform="translate(-112.782 -0.001)" fill="#e591b3"/>
    </g>
  </g>
</svg>
