<svg xmlns="http://www.w3.org/2000/svg" xmlns:xlink="http://www.w3.org/1999/xlink" width="40" height="40" viewBox="0 0 40 40"><defs><clipPath id="a"><rect width="40" height="40" transform="translate(729 42)" fill="#fff" stroke="#707070" stroke-width="1"/></clipPath></defs><g transform="translate(-729 -42)" clip-path="url(#a)"><path d="M12.883-33.078a3.115,3.115,0,0,0-3.7-1.812L2.3-33.016A3.134,3.134,0,0,0,0-30,35,35,0,0,0,35,5a3.134,3.134,0,0,0,3.016-2.3L39.891-4.18a3.115,3.115,0,0,0-1.813-3.7l-7.5-3.125a3.115,3.115,0,0,0-3.617.906L23.8-6.25A26.4,26.4,0,0,1,11.25-18.8L15.1-21.953a3.118,3.118,0,0,0,.906-3.617l-3.125-7.5Z" transform="translate(729 77)" fill="#966a3e"/></g></svg>