<svg xmlns="http://www.w3.org/2000/svg" xmlns:xlink="http://www.w3.org/1999/xlink" width="40" height="40" viewBox="0 0 40 40"><defs><clipPath id="a"><rect width="40" height="40" transform="translate(274 30)" fill="#fff" stroke="#707070" stroke-width="1"/></clipPath><clipPath id="b"><rect width="31.379" height="40" fill="#ffcb57"/></clipPath></defs><g transform="translate(-274 -30)" clip-path="url(#a)"><g transform="translate(278.311 30)"><g clip-path="url(#b)"><path d="M40.134,69.67a23.736,23.736,0,0,1-.5,2.768c-.238.791-.43,1.586-.621,2.387a23.635,23.635,0,0,1-.881,2.613.342.342,0,0,1-.495.207c-.163-.094-.37-.243-.408-.4a4.035,4.035,0,0,1,.142-2.13,11.318,11.318,0,0,1,.459-1.149,12.573,12.573,0,0,0,.909-5.441c0-.1-.073-.271-.115-.272a.93.93,0,0,0-.557.078,31.581,31.581,0,0,0-3.776,3.654,1.5,1.5,0,0,1-.434.42.762.762,0,0,1-.535-.024.34.34,0,0,1-.168-.528,4.231,4.231,0,0,1,.719-.988c1.338-1.151,2.306-2.634,3.541-3.875a3.845,3.845,0,0,0,.346-.512c.244-.344.321-.743.145-.791a1.354,1.354,0,0,0-.565-.095c-1.212.232-2.414.514-3.629.725a1.3,1.3,0,0,1-1.164-.251.612.612,0,0,1-.181-.229c-.074-.236,0-.455.227-.5,1.392-.307,2.789-.59,4.182-.89A.447.447,0,0,0,37,64.254a.356.356,0,0,0-.1-.549,13.036,13.036,0,0,0-1.268-.868A9.622,9.622,0,0,1,33.2,60.961c-.291-.309-.429-.635-.937-.451-.384.138-.815.15-1.2.29a2.953,2.953,0,0,1-3.1-.823,7.146,7.146,0,0,1-1.027-1.154,1.808,1.808,0,0,1-.382-.832,5.652,5.652,0,0,1,.88-4.132,2.745,2.745,0,0,1,2.582-1.388,9.29,9.29,0,0,1,1.232.087,2.717,2.717,0,0,1,1.111.492,12.135,12.135,0,0,1,2.459,2.761,1.735,1.735,0,0,1,.146,1.765c-.36.733-.766,1.444-1.122,2.109A3.607,3.607,0,0,0,35.3,61.362c.849.584,1.7,1.161,2.556,1.743a.439.439,0,0,0,.691-.245c.048-.513.1-1.026.131-1.54.06-1.134.1-2.269.158-3.4.045-.825.07-1.655.188-2.47a13.473,13.473,0,0,0-.24-2.439c0-.135.222-.333.384-.4a.358.358,0,0,1,.487.248c.038.094.125.18.132.273a4.4,4.4,0,0,1,.02.925,21.328,21.328,0,0,0,.2,5.234c.015.144.2.287.34.39.045.034.219-.029.276-.1.533-.628,1.043-1.276,1.582-1.9a.942.942,0,0,1,.778-.358c.233.012.259.471.049.829-.731,1.244-1.462,2.488-2.184,3.738a1.166,1.166,0,0,0-.195.572.941.941,0,0,0,.259.489c.041.05.218.044.3,0a5.156,5.156,0,0,0,.77-.509c1.025-.866,2.031-1.754,3.06-2.614a3.632,3.632,0,0,1,.8-.439c.05-.024.172.047.225.105s.141.188.121.261c-.079.288-.108.695-.309.828-1.211.806-1.961,2.115-3.205,2.876-.211.129-.05.651.224.746a9.967,9.967,0,0,0,1.167.376,4.662,4.662,0,0,1,1.938.909.7.7,0,0,1,.183.535.633.633,0,0,1-.7.452,7.829,7.829,0,0,1-.854-.332,4.717,4.717,0,0,0-2.71-.385.636.636,0,0,0-.41.418,3.221,3.221,0,0,0-.087,1.221c.443,2.323.929,4.637,1.4,6.954a.5.5,0,0,0,.667.391,5.162,5.162,0,0,1,2.149-.074,2.411,2.411,0,0,1,1.684,1.243,1.558,1.558,0,0,1,.219.573,6.175,6.175,0,0,1-.875,4.45,8.573,8.573,0,0,1-1.014,1.155,2.162,2.162,0,0,1-2.836.012,6.8,6.8,0,0,1-1.221-1.379,2.205,2.205,0,0,1-.354-1.158,10.468,10.468,0,0,1,.2-2.146A8.547,8.547,0,0,0,41.5,74.23c-.173-.91-.27-1.835-.449-2.743a8.7,8.7,0,0,0-.461-1.462c-.052-.133-.259-.206-.458-.354" transform="translate(-22.164 -43.873)" fill="#ffcb57"/><path d="M152.624,122.918a16.839,16.839,0,0,1,1.974-3.49,2.911,2.911,0,0,1,3.049-.935,1.652,1.652,0,0,1,1.113,1.665,4.579,4.579,0,0,1-.263,1.192,1.358,1.358,0,0,0,.07,1.165,7.512,7.512,0,0,1,.422,1.156.978.978,0,0,1-.016.6,5.681,5.681,0,0,1-1.111,1.835,3.04,3.04,0,0,1-3.682.521,1.973,1.973,0,0,1-1.294-1.91,9.1,9.1,0,0,0-.263-1.8" transform="translate(-127.65 -99.007)" fill="#ffcb57"/><path d="M0,106.913a4.07,4.07,0,0,1,3.336-3.972c.168-.048.48-.044.54.052.478.765,1.364.842,2.04,1.263a2.521,2.521,0,0,1,.509.337,1.952,1.952,0,0,1,.525.712c.165.584.2,1.205.354,1.792a1.935,1.935,0,0,1-.2,1.466c-.094.18-.152.378-.234.565a2.644,2.644,0,0,1-3.342,1.341,20.6,20.6,0,0,1-2.882-1.719,2.132,2.132,0,0,1-.57-1.043A2.866,2.866,0,0,1,0,106.913" transform="translate(0 -86.071)" fill="#ffcb57"/><path d="M52.922,209.611a3.02,3.02,0,0,1-2.682-1.74,6.617,6.617,0,0,1-.707-2.94,3.794,3.794,0,0,1,.522-1.415.453.453,0,0,1,.232-.195,3.181,3.181,0,0,1,2.926-.222c.992.52,2.012.991,2.985,1.544a3.147,3.147,0,0,1,.844.864.713.713,0,0,1,.117.576c-.282.759-.611,1.5-.933,2.244a.629.629,0,0,1-.2.226,4.223,4.223,0,0,1-3.1,1.059" transform="translate(-41.428 -169.634)" fill="#ffcb57"/><path d="M75.452,4.371a2.874,2.874,0,0,1,.806-2.15,11.689,11.689,0,0,0,.792-.943,3.821,3.821,0,0,1,2.4-1.262,1.57,1.57,0,0,1,.888.145,4.174,4.174,0,0,1,1.755,1.683c.7,1.156.019,3.77-1.3,4.334-.661.282-1.325.558-1.993.821a1.94,1.94,0,0,1-1.771-.169c-.265-.156-.542-.3-.793-.474a1.842,1.842,0,0,1-.8-1.578,3.73,3.73,0,0,1,.024-.407" transform="translate(-63.086 0)" fill="#ffcb57"/><path d="M150.96,59.227a9.417,9.417,0,0,1,1.2-3.986,1.52,1.52,0,0,1,.691-.583,8.9,8.9,0,0,1,1.153-.419,1.218,1.218,0,0,1,1.145.255,1.856,1.856,0,0,1,.857,1.231,4.893,4.893,0,0,0,.924,2.24,1,1,0,0,1,.078.859A18.966,18.966,0,0,1,155.62,61.2a1.493,1.493,0,0,1-1.378.541,12.978,12.978,0,0,1-1.795-.393,1.9,1.9,0,0,1-1.493-2.039c0-.1.013-.2.005-.086" transform="translate(-126.252 -45.316)" fill="#ffcb57"/><path d="M122.115,31.834l-.911-.11a1.877,1.877,0,0,1-1.635-2.2,4.1,4.1,0,0,1,1.222-2.424,19.1,19.1,0,0,1,2.112-1.78,1.719,1.719,0,0,1,2.221.353c.329.394.735.862.543,1.367a9.252,9.252,0,0,0-.549,3.3,1.577,1.577,0,0,1-1.172,1.291c-.7.114-1.416.163-1.832.208" transform="translate(-99.991 -20.952)" fill="#ffcb57"/><path d="M34.1,166.325a2.1,2.1,0,0,1,1.6.77,1.592,1.592,0,0,1,.174,2.216,1.647,1.647,0,0,1-2.8.093,10.22,10.22,0,0,1-.707-1.354c-.439-.929.266-1.6,1.118-1.718a4.8,4.8,0,0,1,.612-.007" transform="translate(-26.962 -139.103)" fill="#ffcb57"/></g></g></g></svg>