<svg xmlns="http://www.w3.org/2000/svg" xmlns:xlink="http://www.w3.org/1999/xlink" width="40" height="40" viewBox="0 0 40 40"><defs><clipPath id="a"><rect width="40" height="40" transform="translate(733 394)" fill="#fff"/></clipPath></defs><g transform="translate(-733 -394)" clip-path="url(#a)"><g transform="translate(733.738 394)"><path d="M24.829,102.115c.4.782,1.3,1.413.772,2.483a.232.232,0,0,1-.334-.044c-.132-.148-.07-.5-.217-.491-.226.009-.291.32-.414.509a.821.821,0,0,0-.072.244c-.075.278.079.788-.2.8-.473.016-.877.519-1.375.186a.469.469,0,0,0-.152-.007c-.176.164-.31.4-.606.353a.665.665,0,0,1-.41-.228.071.071,0,0,0-.011.112c.1.11.227.171.325.269a.684.684,0,0,1,.109.139c.055.123.069.346-.03.336-.531-.052-.869.364-1.321.488a.352.352,0,0,1-.149-.094c-.213-.328.05-.767-.252-1.075a.7.7,0,0,1-.063-.167c-.012-.527-.009-1.05-.78-1.023a.428.428,0,0,1-.444-.39c-.026-.289.218-.261.4-.271.213-.012.323-.105.271-.325a.647.647,0,0,1,.157-.528c.015-.038.017-.1-.01-.1-.105-.014-.085.095-.125.15-.161.348-.39.561-.806.421a1.043,1.043,0,0,1-.173-.08.687.687,0,0,1-.338-.434.671.671,0,0,1,.316-.875c.244-.129.219-.4.34-.594v0c.237-.139.566,0,.766-.255.024-.031.1-.058.114-.043.448.611,1.016-.071,1.5.141.66-.184,1.278.257,1.973.087.357-.087.754.443,1.241.313" transform="translate(-17.033 -93.347)" fill="#ffcb57"/><path d="M143.427,298.877a2.788,2.788,0,0,1,1.42-.011c.288.3.664.08.991.168.216.058.453-.058.676.035.44.172.7.589,1.125.8.242.122.186.539.321.8.245.509.1,1.092.4,1.629.192.337-.287.8-.416,1.222a3.883,3.883,0,0,1-.187.47c-.248.359-.574.346-.793-.04-.083-.146-.123-.315-.208-.463-.113-.2-.141-.521-.475-.13-.191.223-.6-.224-.865.11-.33.125-.63.45-1.023.06-.078-.077-.319.325-.588.161a.71.71,0,0,1-.234-.274.343.343,0,0,1,.016-.421c.494-.435.27-.871.044-1.324-.074-.148-.236-.256-.217-.45.009-.1.1-.2-.014-.288a.093.093,0,0,0-.121.009.309.309,0,0,0-.028.359c.078.179.271.265.367.439.181.327.282.642-.089.9-.225.156-1.014-.063-1.007-.313.013-.448-.371-.7-.409-1.09a5.785,5.785,0,0,0,.112-1.009.934.934,0,0,1,.525-1.011.466.466,0,0,1,.175-.026c.408.023.444.5.761.624.119.047.213.239.293.175s-.04-.233-.068-.357a.573.573,0,0,0-.376-.4c-.124-.092-.245-.185-.11-.355" transform="translate(-130.608 -274.586)" fill="#ffcb57"/><path d="M195.943,198.132l-.363.523c-.485-.105-.8.264-1.193.423-.373-.128,0-.715-.422-.748-.3-.023-.447.362-.73.47-.142.054-.312.147-.424.049-.373-.328-.429.07-.592.231a.358.358,0,0,1-.183.03.883.883,0,0,1-.421-.978c.011-.091.017-.183.031-.274.224-.481-.3-.865-.127-1.34a.909.909,0,0,0,.018,1.269.848.848,0,0,1,.04.287c-.03.39-.3.5-.628.52a.247.247,0,0,1-.25-.233c-.048-.163.358-.6-.26-.423a.471.471,0,0,1-.425-.318,4.895,4.895,0,0,1,.433-2.515.661.661,0,0,1,.643-.358c.349-.005.455.266.532.541.085.073.109.014.122-.066-.158-.559.48-.706.58-1.129.334-.533.872-.108,1.287-.272a.818.818,0,0,1,.476.253c.121.159.166.524.459.111a.292.292,0,0,1,.519.06c.1.52.594.737.777,1.174a.834.834,0,0,0,.1.146h0c.144.1.136.265.157.415a2.948,2.948,0,0,0,.1.343c.04.224.248.411.151.666v0c-.236.27-.1.64-.248.933a.548.548,0,0,1-.162.215" transform="translate(-174.597 -178.123)" fill="#ffcb57"/><path d="M200.185,428.33l-.216.138a.246.246,0,0,0-.129.131c-.424.825-.424.825-1.167.311a.978.978,0,0,0-1.338.147,2.172,2.172,0,0,1-.922.546,2.322,2.322,0,0,0-.632.433.386.386,0,0,1-.316-.533c.147-.392-.016-.81.189-1.194.173-.323-.059-.626-.2-.9-.12-.23-.328-.149-.492-.011a1.1,1.1,0,0,1-.88.319c-.184-.306.1-.247.237-.3.091-.315-.1-.61-.007-.959.114-.421.045-.864.686-.832.142.007.231-.179.317-.3.129-.185.259-.337.529-.226a.557.557,0,0,0,.592-.162c.315-.28.543-.219.677.168a.539.539,0,0,0,.569.423c.109,0,.259,0,.3.091.291.708.549.211.8-.02.463-.428.518-.427.941.1.035.079.078.179.038.247-.361.613.028.854.514,1.054.384.47.117.9-.081,1.333" transform="translate(-178.31 -390.369)" fill="#ffcb57"/><path d="M394.19,340.746l-.139.331a7.142,7.142,0,0,0-.695,1.138.526.526,0,0,1-.6.262,3.439,3.439,0,0,0-.96-.02c-.323.049-.617.2-.5.584a.505.505,0,0,1-.231.651c-.266.17-.359-.119-.517-.235a.658.658,0,0,0-.181-.061c-.594-.234-.444-.8-.559-1.247a1.432,1.432,0,0,0-.112-.938,1.249,1.249,0,0,1,.406-1.82.6.6,0,0,0,.148-.28,2.117,2.117,0,0,0,.145-.515.42.42,0,0,1,.213-.282c.472-.162.69.235.966.465.237.2.418.338.7.07a.405.405,0,0,1,.659.058,1.776,1.776,0,0,0,.317.3c.164.126.377.191.485.387.1.136-.056.4.157.448.452.107.329.416.3.7" transform="translate(-357.932 -310.888)" fill="#ffcb57"/><path d="M101.752,192.207c.685.093.5.941,1.021,1.173.013.017.04.046.037.049-.637.721-.1,1.595-.312,2.37l-.62.674c-.221.351-.223.831-.634,1.07-.316.345-.536.009-.776-.118a.378.378,0,0,1-.2-.539c.18-.346,0-.365-.264-.318-.405.071-.632,0-.654-.5-.02-.453-.553-.3-.816-.488a.986.986,0,0,1-.651-.8,1.028,1.028,0,0,1,.495-.908,2.239,2.239,0,0,0,.178-.183,1.053,1.053,0,0,1,1.7-.256c.191.144.183.025.242-.042a1.643,1.643,0,0,0,.4-.72c.109-.472.383-.64.848-.465" transform="translate(-89.958 -176.583)" fill="#ffcb57"/><path d="M31.2,298.55c.275-.627-.433-1.32.131-1.928.6.158.813-.314,1.105-.66.272-.159.351.06.456.231.19.415.426.323.676.06a.507.507,0,0,1,.688.305c.192.633.672.714,1.212.714a.839.839,0,0,1,.712.21.674.674,0,0,1,.14.717c-.111.3-.38.267-.639.246.7.212.816.356.775,1.029a.554.554,0,0,0,.108.477.36.36,0,0,1,.022.519c-.193.214-.509-.019-.7.192a.571.571,0,0,1-.166.058c-.642-.079-.641-.8-1.078-1.085-.082-.054-.093-.189-.177-.261-.041.028-.04.063-.029.112.055.251.374.547.061.745-.338.214-.571-.138-.805-.346a1.67,1.67,0,0,1-.345-.605,1.344,1.344,0,0,0-1-.245,1.464,1.464,0,0,1-.676-.066,1.169,1.169,0,0,1-.47-.421" transform="translate(-28.585 -271.949)" fill="#ffcb57"/><path d="M6.049,216.87c.165.02.368-.082.47.143-.058.3-.185.522-.553.456-.03-.005-.1-.082-.1,0,0,.039.087.085.131.132a1.027,1.027,0,0,1-.045,1.35,2.236,2.236,0,0,0-.427.915.415.415,0,0,1-.588.19c-.411-.242-.551,0-.694.3-.086.05-.157.012-.234-.031-.542-.307-.6-.287-.9.294-.106.287-.444.286-.45.1-.016-.52-.571-.8-.5-1.323-.016-.056-.028-.114-.038-.171a2.034,2.034,0,0,0-.165-.574,1.278,1.278,0,0,1,0-.345c.163-.294-.011-.562-.066-.84a1.959,1.959,0,0,1,.465-1.425c.172-.039.423-.02.455.1.121.451.4.206.635.192.1.091.152.435.354.065a.574.574,0,0,1,.337-.259,3.76,3.76,0,0,1,1.914.719" transform="translate(-1.737 -198.542)" fill="#ffcb57"/><path d="M279.689,127.96c-.419.437-.156,1.206-.758,1.554-.142.11-.183.288-.285.424-.156.207-.387.282-.539.062-.249-.362-.471-.273-.748-.067-.237.176-.492.434-.8.206-.276-.2-.529-.465-.387-.873.111-.318-.39-.442-.282-.662.348-.7-.287-.737-.613-.986-.068-.273-.041-.572-.337-.765-.186-.121-.168-.369-.183-.577l.5-.4a.932.932,0,0,1,1.342.009l-.006-.006c.2.171.5.255.466.612a.216.216,0,0,0,.159.247c.134.027.172-.1.228-.185.2-.3.414-.568.829-.33.263.046.181-.3.377-.331l.881,1.3c-.257.321-.069.549.161.769" transform="translate(-252.508 -115.428)" fill="#ffcb57"/><path d="M390.742,135.056a.124.124,0,0,1,.024.089,1.529,1.529,0,0,1,.371,1.234c.154.029.322.062.309.257a1.207,1.207,0,0,0,.07.533c.327.9-.057,1.54-1.117,1.976a.765.765,0,0,1-.18.032.531.531,0,0,1-.4-.17c-.159-.182-.112-.49-.375-.609l-.2-.133c-.07-.042-.14-.083-.212-.12-.39.05-.771-.206-1.162-.024a1.032,1.032,0,0,1-.6.07.413.413,0,0,1-.236-.525,1.133,1.133,0,0,1,.289-.4.645.645,0,0,0,.02-.947.58.58,0,0,1-.057-.168,2.026,2.026,0,0,1,1.134-1.349l.258,0c.208.217-.026.47.06.7.13.262.345.091.523.1a.234.234,0,0,0,.227-.2.433.433,0,0,1,.195-.254.442.442,0,0,1,.151-.046c.178.037.182-.092.2-.212.34-.365.51-.036.711.17" transform="translate(-355.68 -123.815)" fill="#ffcb57"/><path d="M341.186,48.576l-.287.117c-.291.291-.341.763-.775.959-.239.108-.449.248-.721.147-.166-.065-.294-.226-.5-.207a.263.263,0,0,0-.064,0c-1.143.267-1.292.173-1.544-.974a2.3,2.3,0,0,1-.036-.758.857.857,0,0,0-.278-.675c-.414-.4-.377-.611.132-.924a1.061,1.061,0,0,0,.333-.284,1.573,1.573,0,0,1,.273-.239,1.115,1.115,0,0,1,.777-.208.229.229,0,0,1,.137.108,1.274,1.274,0,0,1,.058.31c.055.337.131.437.479.177.71-.532,1.114-.429,1.625.3a.423.423,0,0,1-.413.346c-.551.06-.549.485-.554.863-.006.407.282.6.655.675.246.053.525.027.7.27" transform="translate(-309.442 -41.835)" fill="#ffcb57"/><path d="M216.6,2.546c.3-.415.585-.85,1.168-.9.374.414.906.093,1.328.283a2.733,2.733,0,0,1,1.175.942c.382-.045.8-.128.607.5-.108.35.494.5.25.847-.166.238-.568.134-.733.458s-.387.637-.849.465c-.021-.008-.039-.106-.059-.02-.011.048.074.1.139.113.341.048.715.05.692.551-.119.329-.519.3-.7.545A.96.96,0,0,1,218.9,6.3c-.089-.24-.326-.239-.515-.328-.279-.131-.421-.305-.1-.567a2.91,2.91,0,0,0,.2-1.542.191.191,0,0,0-.326-.009c-.375.418-.59.233-.9-.128a3.928,3.928,0,0,1-.71-.876.3.3,0,0,1,.045-.3" transform="translate(-199.003 -1.513)" fill="#ffcb57"/><path d="M409.2,246.712q0-.064,0-.129c.354-.261.292-.719.5-1.049h0c.432.09.757-.327,1.187-.251l-.005,0a.721.721,0,0,0,.641.026l.128-.047a.2.2,0,0,1,.072.1.444.444,0,0,1,.045.039l.048-.046c.469-.228.842.178,1.274.181l-.005,0c.345.1.329.341.255.609a.456.456,0,0,0,.173.248c.567.356.237.871.238,1.328a2.011,2.011,0,0,0-.633.842c-.119.4-.415.508-.794.28-.171-.251-.318-.516-.7-.5-.167.008-.283-.153-.388-.283-.039-.043-.076-.089-.111-.135a3.159,3.159,0,0,0-.484-.486,3.978,3.978,0,0,0-1.188-.48c-.125-.041-.182-.151-.25-.249" transform="translate(-376.065 -225.404)" fill="#ffcb57"/><path d="M245.15,316.859c-.255.046-.509.158-.768.017a.989.989,0,0,1-.365-.88.476.476,0,0,0-.106-.19c-.1-.009,0,.094-.061.109-.815.389-1.151.233-1.533-.648a6.117,6.117,0,0,1-.338-1.857c-.048-.465-.286-.939-.063-1.42a.717.717,0,0,1,.36-.657c.09-.048.121-.158.214-.2.2-.059.392-.071.5.166-.045.207-.235.293-.364.43a.734.734,0,0,0,.217,1.259,3.572,3.572,0,0,1,1.122.85,7.872,7.872,0,0,0,1.223,1.068,1.51,1.51,0,0,0,.6,1.117c.17.57-.39.585-.638.837" transform="translate(-222.243 -285.907)" fill="#ffcb57"/><path d="M263.129,294.794l.268.1a1.288,1.288,0,0,0,.586,1.09,2.491,2.491,0,0,1,.242.2c.135.128.306.247.194.472a.532.532,0,0,1-.47.259.748.748,0,0,1-.484-.084.556.556,0,0,1-.256-.352c-.028-.112.017-.3-.167-.29s-.239.171-.215.334c.08.558.055,1.163.63,1.519a1.267,1.267,0,0,1,.28,1.443c-.339.505-.374,1.174-.86,1.6a.3.3,0,0,1-.1.029l-.08-.041c-.151-.194-.219-.464-.529-.509-.172-.025-.342-.118-.324-.327.016-.188.188-.272.336-.357.22-.126.5-.122.686-.324.043-.047.094-.107.078-.166-.041-.154-.132-.046-.192-.017-.468.222-.636.035-.6-.433a3.691,3.691,0,0,0,.176-.4.837.837,0,0,1,.1-.236c.086-.137.217-.117.347-.1-.127-.072-.247,0-.372.008a.431.431,0,0,1-.461-.6c.34-.819-.064-1.54-.222-2.283-.106-.5-.585-.246-.915-.264-.51.284-1.007.568-1.01,1.265,0,.2-.119.412-.35.389-.27-.026-.317-.267-.287-.494.053-.4,0-.814.064-1.218.8-.525,1.721-.269,2.582-.4a2.686,2.686,0,0,1,.567.034c.212.269.492.194.766.15" transform="translate(-238.162 -270.75)" fill="#ffcb57"/><path d="M91.089,15.385c.47-1.424,1.639-1.187,2.727-1.144.31.255.6-.107.909-.024v-.005a.88.88,0,0,1,.719.568.777.777,0,0,0,.617.392c.278-.006.336-.543.717-.3l.155.49c.342.417.265.985.518,1.434h0c-.16.43-.241.885-.413,1.311-.538-.235-.673-.467-.463-.913.153-.325-.2-.089-.2-.212-.158-.105-.174-.274-.225-.44-.189-.625-.477-.724-1.271-.465-.377-.473-1.041-.576-1.4-1.082-.119-.168-.28-.19-.4.04a1.86,1.86,0,0,1-.385.514c-.37.35-.588-.222-.913-.15-.229-.074-.463.076-.69-.016" transform="translate(-83.714 -13.051)" fill="#ffcb57"/><path d="M107.406,46.343c.23,0,.536-.276.66-.063.224.385-.3.182-.406.378-.23.409.246.548.265.847l-.023.088a.544.544,0,0,1-.357.251c-.33.019-.553-.419-.926-.217-.338.461-.955.542-1.3.959.016-.012.018,0,.018,0l.048-.033a.414.414,0,0,1,.611.1.457.457,0,0,1-.061.622c-.813.254-1.307.076-1.566-.561-.024-.081.009.023-.016-.059a2.443,2.443,0,0,0-.075-.238c-.026.083.046.145.047.224a1.33,1.33,0,0,1-.008.492c-.1.263-.25.432-.562.32-.335.067-.4-.284-.616-.4a.227.227,0,0,1-.074-.157.728.728,0,0,1,.082-.257,1.626,1.626,0,0,0,.091-.63c.017-.151.025-.347.169-.4.493-.162.671-.638,1.01-.95a.463.463,0,0,1,.149-.1c.319.051.317.293.3.528-.022.373.13.315.37.182a1.015,1.015,0,0,0,.511-.524c.1-.261.268-.485.609-.446.109.064.109.275.305.22a.56.56,0,0,0,.744-.183" transform="translate(-94.719 -42.459)" fill="#ffcb57"/><path d="M201.457,423.11c-.34-.377-.55-.354-.87.1-.421.6-.668.543-.858-.048-.067-.209-.185-.115-.3-.084-.235.066-.513.016-.556-.192-.12-.578-.306-.628-.8-.31a4.12,4.12,0,0,1-1.1.493c-1.113.259-.613,1.139-.864,1.708-.367-1.294-.1-2.415,1.956-2.806a20.4,20.4,0,0,1,3.03-.017c.237-.01.361.206.5.365a1.847,1.847,0,0,0,.538.7.2.2,0,0,1-.05.164c-.234.173-.452.219-.629-.075" transform="translate(-180.104 -387.734)" fill="#ffcb57"/><path d="M266.425,148.357c.248.062.5.127.745.184a.925.925,0,0,0,.189.005,1.339,1.339,0,0,0,.224,1.423c-.5.375.007.605.169.8.236.288.433-.041.622-.172.36-.248.635-.723,1.009.1.172.376.364-.391.685-.4l-.415,1.127c-.432-.22-.792-.006-1.155.192-.353-.235-.568.15-.859.191a.364.364,0,0,1-.164-.04c-.214-.175-.052-.567-.389-.673a.963.963,0,0,1-.621-.432c-.141-.324-.363-.207-.584-.17a.54.54,0,0,1-.335-.292,1.323,1.323,0,0,1-.175-.676c.006-.286.245-.627-.23-.806-.095-.036.051-.267.1-.4.418-.181.752-.162.861.37.015.076-.03.154-.017.233a.414.414,0,0,0,.075-.23.37.37,0,0,1,.259-.331" transform="translate(-243.647 -136.213)" fill="#ffcb57"/><path d="M63.439,297.409c-.075-.513-.184-1.021-.252-1.535-.052-.391-.545-.442-.952-.209.21-.232.244-.668.75-.431.177.083.2-.226.188-.388-.015-.292-.175-.532-.472-.5-.765.075-1.458.111-1.666-.881-.051-.244-.361-.171-.57-.182a.187.187,0,0,1-.024-.166.7.7,0,0,1,.919-.118c.1.041.013.194.141.208.007-.11-.074-.2-.079-.305.393-.414.651-.437,1.074-.123.16.119.285.451.558.138.166-.1.314-.114.41.094a.708.708,0,0,1-.007.5c.34.519.152,1.264.743,1.679a.355.355,0,0,1,.054.471c-.207.425-.075.969-.478,1.331-.061.055,0,.209-.076.3l-.12.259a.12.12,0,0,1-.155.017.11.11,0,0,1,.014-.152" transform="translate(-55.539 -268.873)" fill="#ffcb57"/><path d="M215.127,12.756c.158.388.3.8.772.915.142.035.251.068.2.244-.038.133-.053.282.113.307s.267-.132.311-.27c.1-.315.309-.357.537-.188.17.126.464.217.182.59-.141.186,0,.6.042.906.025.195.1.384-.171.466-.127.038-.372-.047-.339.171a.324.324,0,0,0,.424.2c.763-.268.285.213.261.419-.248.3-.1.759-.392,1.046l-.14-.123c-.212-.471-.563-.857-.8-1.311a3.462,3.462,0,0,0-.839-.991.694.694,0,0,1-.257-.483.662.662,0,0,1,.011-.177c.053-.159.129-.319-.007-.475-.175-.228-.093-.47-.04-.712l.131-.529" transform="translate(-197.529 -11.723)" fill="#ffcb57"/><path d="M51.358,333.964c.171.151.026.434.3.583.208.113.395.5.6.368.248-.161-.1-.382-.18-.58s-.178-.464.058-.568c.278-.123.275.2.4.347.381.424.469,1.118,1.146,1.27a.638.638,0,0,1-.26.763,2.309,2.309,0,0,1-1.156.143,1.234,1.234,0,0,1-1.37-.46.66.66,0,0,1-.1-.143,1.121,1.121,0,0,1-.012-.411.635.635,0,0,0-.1-.3,1.366,1.366,0,0,1-.137-.317c-.108-.766.058-.909.806-.7" transform="translate(-46.432 -306.719)" fill="#ffcb57"/><path d="M46.458,131.224c.454-.156.749-.755,1.356-.484l-.062-.291c.154-.142.314-.041.471-.01.222.044.321-.031.27-.263-.024-.17-.117-.346.037-.5.36.022.876.466.927-.348.006-.09.093-.112.192-.057.362.2.44.189.376-.244-.083-.567.452-.787.561-1.228.008-.031.155-.072.194-.045.279.192.19.492.2.762a1.147,1.147,0,0,0-.014.9l-.512.777c-.143.3-.629.16-.707.545-.042.233-.039.49-.325.587-.367.293-.677-.057-1.015-.091a2.417,2.417,0,0,0-1.047.233.386.386,0,0,1-.116.026.188.188,0,0,1-.183.028c-.226-.05-.551.1-.607-.3" transform="translate(-42.697 -117.402)" fill="#ffcb57"/><path d="M16.995,122.5c-.082.067-.245.16-.233.2.207.655.061.974-.687.767-.013.054-.055.139-.035.158.092.085.21.225.3.213,1.073-.135,1.007.541.912,1.245a.979.979,0,0,0-.89.325c-.174.162-.14.4-.224.6a3.181,3.181,0,0,1-.437.493l-.387-.52c-.082-.509-.04-1.029-.121-1.538-.008-.494-.174-.967-.206-1.459a.694.694,0,0,1-.025-.178c.063-.251.169-.455.479-.433l.259.388c.042.118.086.031.129,0,.422.214.565-.037.648-.388a.419.419,0,0,1,.516.129" transform="translate(-13.752 -112.417)" fill="#ffcb57"/><path d="M295.3,410.949a1.836,1.836,0,0,1,1.233-2.149c.069-.02.116-.119.173-.181a1.511,1.511,0,0,1,.665-1.027.431.431,0,0,1,.546.106l-.04.08c-.514.387-.875.825-.535,1.515.036.073-.009.167-.052.243-.551.3-.394.937-.658,1.358.039.042.075-.029.114-.008.444.307.5.811.661,1.263a.71.71,0,0,1-.124.5.492.492,0,0,1-.731-.074c-.079-.276.326-.257.28-.627a.629.629,0,0,1-.268.451,5.35,5.35,0,0,1-.854-1.149c-.1-.167-.151-.367-.411-.3" transform="translate(-271.353 -374.539)" fill="#ffcb57"/><path d="M87.46,403.41c.444-.421.993-.282,1.505-.247a1.417,1.417,0,0,0,.673-.065c.189.034.367.082.446.286a.639.639,0,0,1-.666.56c-.615.013-.7.313-.606.8a.946.946,0,0,0-.065.071.17.17,0,0,1,.11-.029c.209.471.721.89.238,1.466-.192,0-.213-.177-.3-.284a.949.949,0,0,0-.116-.116c-.2-.082-.284.014-.31.2a.564.564,0,0,1-.287.475.481.481,0,0,1-.171.044c-.472-.212-.186-.749-.453-1.05a2.712,2.712,0,0,1-.165-.315c.166-.587-.248-1.229.169-1.792" transform="translate(-80.202 -370.462)" fill="#ffcb57"/><path d="M374.256,52.079a3.861,3.861,0,0,1-.878-.075c-.365-.116-.773-.388-.678-.78s-.245-1.153.653-1.1a.446.446,0,0,0,.474-.257.432.432,0,0,1-.122-.268.332.332,0,0,1,.124-.263c.3-.033.487.135.457.393-.036.313.079.436.328.589.306.188.023,1.488-.358,1.761" transform="translate(-342.513 -45.337)" fill="#ffcb57"/><path d="M194.761,452.517c.311-.208.7-.284.94-.615.169-.233.394-.2.5.056.183.438.636.761.266,1.42-.131.234-.459.959,0,1.428.212.122.234.244,0,.364-.8-.144-.961-.855-1.285-1.422a.249.249,0,0,1-.069-.149c-.039-.165-.145-.307-.168-.478l-.182-.6" transform="translate(-178.992 -415.17)" fill="#ffcb57"/><path d="M323.215,45.892c-.568.5-.7.972-.1,1.592.161.167-.009.651-.028.99-.409.087-.317-.485-.537-.461-.2.022-.272.421-.58.42s-.663.034-.758-.4a7.63,7.63,0,0,1-.068-1.371l.023-.252c.233-.152.461-.244.659.05.033-.21-.218-.39-.031-.63a.932.932,0,0,1,.954-.387c.226.039.2.333.4.4.022.017.042.035.063.053" transform="translate(-295.133 -41.75)" fill="#ffcb57"/><path d="M100.215,232.892c.327.264,1.244-.091.9.9-.067.2.288.067.455.041.25-.04.554-.153.713.089.142.217-.175.279-.28.418a.735.735,0,0,0-.064.284c.332-.011.454.528.859.327a.1.1,0,0,1,.046.1q-.014.055-.032.055a.692.692,0,0,1-.792.242c-.129-.121-.321-.09-.459-.188-.314-.156-.382.246-.616.272a.55.55,0,0,1-.182.01c-.358-.117-.451-.448-.537-.742-.1-.333-.078-.653-.487-.863-.314-.161-.074-.64.473-.953" transform="translate(-91.538 -214.036)" fill="#ffcb57"/><path d="M254.17,31.04c-.013-.458.467-.3.647-.516.126-.287.19-.592.546-.74s.293-.594.469-.882c.082-.135.039-.357.3-.335.164.152.271.358.561.355.32,0,.3.223.206.449l0,0c-.46.223-.206.712-.39,1.038v0c-.5.178-.427.644-.527,1.024-.389.74-1.016.688-1.682.5-.328-.255.156-.627-.128-.889" transform="translate(-233.591 -26.252)" fill="#ffcb57"/><path d="M87.464,223.343c-.083.343-1.092.734.066,1.041.108.029.021.583.141.839.1.2.106.534.442.575.026.211-.06.305-.276.267l-.237-.144c-.162-.109-.222-.3-.342-.439a.973.973,0,0,1-.082-.2c0,.009-.024-.034-.024-.034s.009.049.01.055c.01.366-.009.691-.5.38a5.722,5.722,0,0,1-.887-2.85c-.1-.19-.039-.3.17-.332.382.384.382.384.873.2a1,1,0,0,0,.647.645" transform="translate(-78.787 -204.487)" fill="#ffcb57"/><path d="M103.745,189.995c-.38-.017-.663.048-.672.537a1.264,1.264,0,0,1-.669.963c-.3.206-.151-.279-.422-.359-.75-.223-1.13.141-1.483.672-.5.181-.495-.083-.393-.439a4.58,4.58,0,0,0,.26-1.636l.519.02a1.973,1.973,0,0,0,1.941-.006,1.9,1.9,0,0,1,.918.249" transform="translate(-91.951 -174.371)" fill="#ffcb57"/><path d="M177.532,347.655c.246.049.289-.987.733-.12.091.178.232-.165.251-.332.011-.092-.09-.229.062-.251.069-.01.183.093.232.172a6.34,6.34,0,0,1,.424.772c.083.189-.054.537.311.506.339-.029.383-.349.446-.619.123-.016.19.021.147.159a3.063,3.063,0,0,1-.653,1.394c-.151.109-.412.106-.4.386a.509.509,0,0,1-.523.119.52.52,0,0,1-.25-.247,2.144,2.144,0,0,1-.12-.51.548.548,0,0,1,.191-.418c0-.136-.082-.019-.122-.033a2.191,2.191,0,0,1-1.151-.453c0-.288.232-.387.417-.525" transform="translate(-162.775 -318.861)" fill="#ffcb57"/><path d="M133.664,348.656a1.061,1.061,0,0,1-1.064-.617,15.065,15.065,0,0,0-1.4-1.843c-.144-.183-.34-.343-.218-.618.066-.092.014-.237.139-.3a2.117,2.117,0,0,1,.447-.013,1.414,1.414,0,0,1,1.482,1.3,1.189,1.189,0,0,1,.011.277,1.341,1.341,0,0,0,.452,1.419c.093.115.217.218.154.394" transform="translate(-120.341 -317.303)" fill="#ffcb57"/><path d="M400.464,375.091a.348.348,0,0,1,.043-.048c.37-.288.234.628.63.266s-.236-.566-.2-.587c.3-.179.3-.694.77-.665a7.52,7.52,0,0,1,1.092.041c.4.087.611-.064.624-.415.018-.475.325-.649.68-.81.2.23-.043.44-.029.662a.834.834,0,0,0-.493.41l-.145.24c-.182.278-.127.659-.395.9a1.141,1.141,0,0,1-.906.367,2.277,2.277,0,0,0-1.284.285c-.379-.065-.553-.254-.388-.645" transform="translate(-367.984 -342.683)" fill="#ffcb57"/><path d="M222.208,470.772a3.259,3.259,0,0,0,1.166-.885c.36-.415,1.13-.124,1.348.182.528.74.66.306.9-.141.043-.08.166-.117.252-.174l-.28,1.034c-.619.074-1.083.566-1.7.633-.08.113-.168.127-.266.021-.279-.219-.655.01-.939-.206-.179-.136-.412-.213-.479-.464" transform="translate(-204.217 -431.654)" fill="#ffcb57"/><path d="M89.636,28.329c-.4.283-.435.894-1.073,1.031-.285.061.075.718-.218,1.035a.6.6,0,0,1-.187-.46c-.018-.334-.13-.5-.517-.434s-.6-.146-.571-.561a3.239,3.239,0,0,1-.148-1.9l.247-.649c.206-.109.387-.342.656-.128a.616.616,0,0,1,.148.987,2.283,2.283,0,0,0,.153,1.585c.088.1.2.038.3.01.4-.1.525-.517.841-.714a.307.307,0,0,1,.37.2" transform="translate(-79.795 -24.057)" fill="#ffcb57"/><path d="M444.215,268.087c.416.118.721,0,.728-.459.007-.49.438-.5.694-.7a.748.748,0,0,1,.521-.652c.34.445.538.9.089,1.395-.264.288.252.659-.114.926-.644-.042-1.282.326-1.931.027-.186-.152-.475-.29-.079-.528l.092,0" transform="translate(-407.983 -244.714)" fill="#ffcb57"/><path d="M160.867,364.062l-.248-.236c-.08-.114-.114-.321-.026-.346.753-.216.887-.971,1.319-1.461l1.164.387a.252.252,0,0,1,.259.129l-.259.387c-.173.223-.021.366.126.511l.132.257a11.024,11.024,0,0,0-2.468.372" transform="translate(-147.543 -332.71)" fill="#ffcb57"/><path d="M319.993,60.68a2.441,2.441,0,0,1,.133,1.423,3.153,3.153,0,0,1,.183.537c.089.3.156.562.516.19a.349.349,0,0,1,.519.054c.38.637,1.076.783,1.646,1.125a.149.149,0,0,1-.011.17l0-.006c-.082.063-.136.154-.216.22-.132.086-.176.254-.314.333a.2.2,0,0,1-.148-.027l-.36-.027c-.229-.132-.254-.425-.454-.576a.177.177,0,0,0-.2.017.844.844,0,0,0-.072.494c-.008.206-.06.375-.323.348h0c-.251-.207-.127-.671-.532-.773a5.5,5.5,0,0,1-.368-3.5" transform="translate(-293.984 -55.767)" fill="#ffcb57"/><path d="M348.908,230.944c-.408.3-.367.831-.636,1.206-.139.193-.224.422-.528.339-.383-.21-.219-.62-.34-.926a.563.563,0,0,1,.188-.393,1.186,1.186,0,0,0,.478-1.292,1.034,1.034,0,0,1,.524-1.186.242.242,0,0,1,.114-.131.3.3,0,0,1,.333.072h0c.41.406.083.914.189,1.362a4.952,4.952,0,0,1-.322.949" transform="translate(-319.277 -210.037)" fill="#ffcb57"/><path d="M9.669,211.962c-.744.054-1.256-.61-1.974-.634a1.921,1.921,0,0,1-.646.129,2.875,2.875,0,0,1-.383.408.554.554,0,0,1-.345.044c-.029,0-.087-.177-.065-.2.546-.471-.142-.355-.242-.514-.212.015-.225-.076-.123-.229A.83.83,0,0,1,7,210.859a.754.754,0,0,0,.613-.019,1.445,1.445,0,0,1,2.06,1.122" transform="translate(-5.357 -193.634)" fill="#ffcb57"/><path d="M305.642,213.148l.031-.243a4.954,4.954,0,0,0,.762-.761c.415-.327.792-.087,1.173.079a1.5,1.5,0,0,1,.086.16c.036.514-.29.708-.718.829-.264.075-.542.135-.679.429-.271.58-.052.982.572,1.031.191.015.39.007.527.181.07.2.053.361-.18.434-.181-.007-.363-.241-.543,0-.417.136-.144.489-.23.729a.318.318,0,0,1-.171.049,1.044,1.044,0,0,1-.494-1.5l-.13-.236a1.866,1.866,0,0,1-.006-1.179" transform="translate(-280.807 -194.819)" fill="#ffcb57"/><path d="M250.073,298.37a1.553,1.553,0,0,1,.089,1.226c-.04.152-.066.338.128.365s.211-.176.209-.319c-.009-.8.491-1.165,1.17-1.38.07.047.151.077.221.122.224.142.533.233.471.589a1.257,1.257,0,0,1-.984.668.941.941,0,0,1-.164-.189c-.054-.073-.073-.233-.221-.137a.207.207,0,0,0-.059.231c.059.224.467.446.184.643a1.212,1.212,0,0,1-1.193.148c-.141-.243-.384-.46-.2-.785-.137-.182-.338-.114-.517-.129-.089-.284.247-.419.237-.676a.963.963,0,0,1,.626-.377" transform="translate(-229.02 -274.114)" fill="#ffcb57"/><path d="M116.962,402.241l-.4-.288a3.268,3.268,0,0,1,2.081.239c.768.216.894.763,1.269,1.2a.636.636,0,0,1,.146.649c-.169.08-.186.32-.385.368-.315.059-.545-.116-.536-.386.023-.682-.394-.979-.921-1.217-.1-.062-.194-.127-.3-.184-.3-.162-.644-.236-.953-.384" transform="translate(-107.121 -369.317)" fill="#ffcb57"/><path d="M189.936,194.346c-.248-.168.013-.714-.434-.678-.417.033-.518.369-.658.777a3.9,3.9,0,0,0-.331,1.967.2.2,0,0,1-.295-.024,7.018,7.018,0,0,1,.4-2.436c.26-.33.305-.853.873-.914.093-.01.095-.265.174-.392a.735.735,0,0,1,.663-.126,1.117,1.117,0,0,1,.512.4c.038.48-.787.579-.516,1.163a.776.776,0,0,1-.388.258" transform="translate(-172.98 -176.91)" fill="#ffcb57"/><path d="M188.069,94.63c.966-.037,1.229.638,1.415,1.391-.382.228-.6-.078-.852-.261a2.468,2.468,0,0,1-.289-.416.46.46,0,0,0-.813.089c-.068.166-.12.344-.319.346-.172,0-.232-.16-.275-.31a1,1,0,0,0-.859-.666c-.245-.126-.807.446-.752-.339l2.313-.1c.162.058.169.367.431.264" transform="translate(-170.317 -86.726)" fill="#ffcb57"/><path d="M34.061,330.872c.468.234.789.79,1.429.65-1.511.527-2.7-.257-2.963-2.008-.051-.343-.187-.64-.264-.963l.5.257c.233.285.116.671.279.972.119.219.2.627.535.145.12-.175.251-.111.35.045l.131.257a.306.306,0,0,0,.129.26l-.129.385Z" transform="translate(-29.651 -301.95)" fill="#ffcb57"/><path d="M89.809,189.732c.64.585-.064,1.119-.108,1.671-.024.3-.11.412.241.4-.382.119-.381.493-.518.775-.336.02-.131.652-.546.516-.271-.089-.233-.407-.236-.656a.285.285,0,0,1-.063-.161c.053-.261-.05-.523,0-.785a.57.57,0,0,1,.287-.328.906.906,0,0,0,.571-.914c-.013-.215.144-.346.246-.5l.127-.017" transform="translate(-81.394 -174.371)" fill="#ffcb57"/><path d="M165.982,95.581c.163.572.546-.025.785.148a.4.4,0,0,1-.371.493c-.506.08-.617.433-.723.841-.064.246.006.625-.357.672-.384.05-.522-.293-.674-.572a3.261,3.261,0,0,0-.368-1.068,2.414,2.414,0,0,1,1.708-.514" transform="translate(-150.974 -87.842)" fill="#ffcb57"/><path d="M381.991,383.536a.957.957,0,0,0,.388.645,1.721,1.721,0,0,1-1.939-1.3,1.412,1.412,0,0,1-.139-.472c.029-.244.138-.434.408-.314.25.111.547.084.764.276.3.333-.032.941.517,1.162" transform="translate(-349.511 -351.128)" fill="#ffcb57"/><path d="M210.956,251.35h.129a1.334,1.334,0,0,0,1.435-.541c.084-.13.273-.091.392.042.026.181-.049.373.057.547-.013.378-.4.312-.58.487-.076.017-.114.045-.021.107.171.108.385.139.509.315l.022.084a10.048,10.048,0,0,1-2.2.251.587.587,0,0,1-.1-.137c-.046-.249-.021-.5-.068-.754a.774.774,0,0,1,.429-.4" transform="translate(-193.482 -230.428)" fill="#ffcb57"/><path d="M93.243,306.9c.259-.537.042-1.2.437-1.7.044-.056.027-.159.038-.241-1.05-.041-.135-1.441-1.088-1.571-.1-.014-.091-.107.352-.364a3.361,3.361,0,0,1,1.316,1.559.672.672,0,0,0-.026.115c-.1.124-.129.285-.242.4.2.8-.464,1.229-.786,1.8" transform="translate(-85.081 -278.486)" fill="#ffcb57"/><path d="M310.095,261.585h.13c.284.05.519.3.858.146.258-.117.368.14.5.305a.947.947,0,0,1,.07.158,1.386,1.386,0,0,1,.047.161c.094.292.313.207.515.169a.44.44,0,0,0,.239-.157c.028-.125,0-.259.072-.375.091-.085.186-.126.289-.02.293.236.036.63.256.887L311.26,263c-.264-.322-.521-.082-.78.009l-.261-.374a5.68,5.68,0,0,1-.5-.664l0-.005c-.173-.428.275-.232.382-.379" transform="translate(-284.601 -240.405)" fill="#ffcb57"/><path d="M217.794,110.156c.255.142.463.382.788.377l.009-.007a.149.149,0,0,1,.02.149c-.1.133-.282.122-.393.234a.532.532,0,0,0,.04.326.923.923,0,0,1,.165.81.54.54,0,0,0,.014.693l-.4.39c-.476.654-.682.661-1.055.035.254-.188.508-.349.217-.732a.9.9,0,0,1-.056-.747c.048-.2.132-.381.4-.233.074.06.013.213.154.22a.709.709,0,0,0-.125-.6.59.59,0,0,1,.223-.909" transform="translate(-199.415 -101.237)" fill="#ffcb57"/><path d="M437.116,293.269c.622.316,1.3-.267,1.917.118-.565.255-.607.857-.871,1.311-.4.208-.449-.415-.8-.335-.28.029-.193-.486-.538-.36-.043.033-.086.064-.127.1-.134.11-.107.435-.415.31a.51.51,0,0,1-.081-.169c-.062-.666.418-.826.911-.975" transform="translate(-400.883 -269.508)" fill="#ffcb57"/><path d="M333.035,213.513l.225.047a6.131,6.131,0,0,0,.782,1.264v0c-.536.5-1.119.038-1.677.072-.065,0-.136-.125-.214-.128-.688-.029-.7-.466-.6-.97a5.537,5.537,0,0,1,1.484-.286" transform="translate(-304.667 -196.226)" fill="#ffcb57"/><path d="M267.377,135.274c-.043.228-.089.456-.129.685-.028.157.025.413-.224.366a.348.348,0,0,1-.231-.464c.419-.82-.267-.511-.578-.587a.376.376,0,0,1-.015-.405c.143-.349.163-.787.645-.891.108.461,1.006.6.533,1.3" transform="translate(-244.599 -123.13)" fill="#ffcb57"/><path d="M184.812,240.31l.295.024.389.258c.231.032.411.1.259.386l.127.26a.407.407,0,0,1,.216.293c-.027.462-.377.608-.734.748-.532-.468-.507-1.206-.848-1.769a.208.208,0,0,1,.3-.2" transform="translate(-169.573 -220.832)" fill="#ffcb57"/><path d="M265.022,6.2c.008-.225-.049-.333-.323-.285-.362.063-.471-.178-.459-.5-.027-.193.081-.424-.156-.557-.006-.042.022-.072.04-.106-.038.014-.076.027-.117.038a3.938,3.938,0,0,1-.828-.957c-.1-.148-.251-.284-.1-.483.68.386,1.75.35,1.682,1.546a.269.269,0,0,1,.082.226c-.042.25.242.156.31.29.165.295.014.539-.126.784" transform="translate(-241.72 -3.08)" fill="#ffcb57"/><path d="M154.623,101.933c.351.212.587.476.423.923.057.739-.151.984-.881,1.038a.617.617,0,0,1-.392-.265,2.363,2.363,0,0,1,.85-1.7" transform="translate(-141.323 -93.68)" fill="#ffcb57"/><path d="M238.888,251.456c.32-.351.564-.934,1.181-.388-.014,1.031-.761,1.262-1.567,1.429l0-.024c-.278-.495,0-.776.39-1.016" transform="translate(-219.085 -230.535)" fill="#ffcb57"/><path d="M50.21,100.212a.5.5,0,0,1-.809-.009c-.193-.185-.524-.465-.79,0a.226.226,0,0,1-.217.039,2.127,2.127,0,0,0-1.441-.269.315.315,0,0,0-.358-.18.336.336,0,0,1-.444-.223,6.279,6.279,0,0,1,4.06.642" transform="translate(-42.414 -91.444)" fill="#ffcb57"/><path d="M177.49,157.952l-2.322.252c-.164-.221.009-.348.135-.488a1.351,1.351,0,0,1,.79-.384.394.394,0,0,0,.245-.062c.184-.143.2-.531.559-.412s.461.481.658.753a.284.284,0,0,1,.027.187.344.344,0,0,1-.092.153" transform="translate(-160.925 -144.139)" fill="#ffcb57"/><path d="M313.538,471.544c-.823-.134-1.623.358-2.451.1-.166-.5.007-.772.538-.8a11.176,11.176,0,0,1,1.4-.026,1.379,1.379,0,0,1,.541.326c.154.145.177.285-.025.409" transform="translate(-285.844 -432.682)" fill="#ffcb57"/><path d="M305.275,323.179c.082-.64.612-1.072.778-1.674.12-.176.279-.34.126-.578-.195-.3-.043-.525.183-.725.042-.039.084-.078.124-.119a.852.852,0,0,0,.238-.437c0-.055.012-.109.02-.163a2.941,2.941,0,0,0,.06-.483.774.774,0,0,1,.026-.165.323.323,0,0,1,.151-.195c.4.812-.042,1.568-.155,2.346v0a5.217,5.217,0,0,0-1.129,1.99c-.035.194-.236.225-.421.2" transform="translate(-280.559 -292.842)" fill="#ffcb57"/><path d="M242.385,57.911c.141-.02.342-.109.411-.048.165.145-.045.252-.131.345a.792.792,0,0,0-.153.592.906.906,0,0,1-1.166.157c.205-.321-.328-.917.392-1.046a.54.54,0,0,1,.647,0" transform="translate(-221.806 -53.124)" fill="#ffcb57"/><path d="M240.848,322.152a18.339,18.339,0,0,0,.521,3.18c.283.771.72.969,1.421.563h0l.387.13a1.36,1.36,0,0,1-1.178.527,2.765,2.765,0,0,1-1.08-1.857,7.143,7.143,0,0,0-.213-1.651,1.057,1.057,0,0,1,.144-.893" transform="translate(-221.176 -296.07)" fill="#ffcb57"/><path d="M297.652,448.742c-.553-.044-.528.408-.64.742l-.142-.088c-.135-.193-.108-.488-.377-.6-.147-.057-.18-.2-.243-.321l-.035-.23c-.439-.3-.237-.793-.369-1.185l-.135-.127c.156-.462.379-.154.479,0,.3.457.547.944.815,1.42.089.4.417.207.647.258q.049.043.033.086c-.011.029-.022.043-.033.043" transform="translate(-271.769 -410.527)" fill="#ffcb57"/><path d="M299.08,125.758c-.458-.372-.551.075-.723.326-.085.125-.034.41-.272.338-.155-.047-.385-.275-.367-.386.058-.351-.2-.544-.3-.81.3.084.521-.086.761-.218.328-.181.631-.208.788.229.2.138.316.3.111.521" transform="translate(-273.34 -114.774)" fill="#ffcb57"/><path d="M96.843,453.419c-.1.106-.228.32-.284.3-.9-.293-1.77.572-2.668.074-.162-.09-.207.061-.31.12-.473.271-.85.194-1.056-.355l.035-.082c.113-.163.286-.367.457-.21.522.482,1.116.1,1.662.2.1-.041.211-.07.317-.105a1.008,1.008,0,0,0,.27-.167.88.88,0,0,0,.313-.361c.045-.047.152-.087.155-.07.128.631.775.382,1.109.657" transform="translate(-85.034 -416.101)" fill="#ffcb57"/><path d="M246,.272l.255.391a4.562,4.562,0,0,1-.385,1.027A3.37,3.37,0,0,0,244.7.529c-.059-.113-.332-.009-.259-.255.517-.217,1.034-.487,1.552,0" transform="translate(-224.643 0)" fill="#ffcb57"/><path d="M214.706,34.937l1.165,1.428c-.2.272.11.619-.129.886-.229.158-.507.513-.479-.162.011-.26-.046-.555-.408-.6-.082-.506-.543-.929-.328-1.5a.125.125,0,0,1,.178-.052" transform="translate(-197.107 -32.092)" fill="#ffcb57"/><path d="M212.759,321.905l-.147-.159c.123-.315.248-.629.368-.945a1,1,0,0,0,.083-.276c-.721-.384-.191-1.112-.453-1.616.133-.172.265-.347.527-.27l0,0a1.93,1.93,0,0,1,.235,1.341.826.826,0,0,0,.141.6l-.252.518c-.427.123.089.457-.14.625l-.363.177" transform="translate(-195.396 -292.824)" fill="#ffcb57"/><path d="M355.867,423.695a1.764,1.764,0,0,1,.268,1.559c-.131.477-.146,1.013-.652,1.3l-.125.143-.082-.044a.59.59,0,0,1-.171-.418,1.715,1.715,0,0,0,.145-1.775,2.173,2.173,0,0,1,.451-.789.139.139,0,0,1,.167.02" transform="translate(-326.355 -389.355)" fill="#ffcb57"/><path d="M375.72,346.584q0,.254,0,.509c-.713-.583-.567-1.314-.482-2.111a5.109,5.109,0,0,1,.355-1.864.374.374,0,0,1,.111.142,1.243,1.243,0,0,1,.051.5c-.016.236-.015.374.319.367.235-.005.478.277.181.475-.784.522-.678,1.234-.538,1.979" transform="translate(-344.793 -315.337)" fill="#ffcb57"/><path d="M195.031,252.4c.092-.362.637-.352.645-.783-.006-.363.035-.383.427-.216.1.04-.142.238.1.216a.632.632,0,0,1,.123.646c.358.208.1.516.127.779-.329-.229-.344.17-.515.257-.581-.019-.491-.713-.908-.9" transform="translate(-179.241 -230.957)" fill="#ffcb57"/><path d="M211.072,144.574c.338.535.678.344,1.019,0a1.766,1.766,0,0,1-.995,1.429c-.3.124-.506.067-.523-.3a1.674,1.674,0,0,0-.061-.5c.134-.252.036-.559.192-.807a.266.266,0,0,1,.367.177" transform="translate(-193.468 -132.688)" fill="#ffcb57"/><path d="M415.321,286.3q0,.065,0,.13c.079.092.077.212-.025.245-.19.062-.242-.17-.382-.231-.255-.524-.793-.185-1.157-.376.017-.414-.368-.665-.426-1.048.147-.274.255-.615.688-.412.079.1.054.271.219.314a.785.785,0,0,1,.15.071c.432.35.474.976.933,1.307" transform="translate(-379.866 -261.509)" fill="#ffcb57"/><path d="M145.8,60.554c.457-.457.586.235.906.258a1.119,1.119,0,0,1,.005.788.8.8,0,0,1-.518.666.944.944,0,0,1-.158-.084c-.6-.468-.257-1.072-.235-1.629" transform="translate(-133.891 -55.508)" fill="#ffcb57"/><path d="M29.082,261.232c.074-.395-.094-1.144.7-.454.181.157.4.03.594-.064q.067-.095.14,0c-.045.826-.833.8-1.307,1.139a.362.362,0,0,1-.128-.617" transform="translate(-26.615 -239.406)" fill="#ffcb57"/><path d="M386.094,154.579a3.3,3.3,0,0,1-1.2-2.356,8.225,8.225,0,0,1,.4-2.281c.106.06.054.2.131.269h0a.992.992,0,0,1-.266,1.374,4.924,4.924,0,0,0,.672,2.06c.169.3.387.561.264.934" transform="translate(-353.729 -137.802)" fill="#ffcb57"/><path d="M266.432,439.012c-.229-.431.4-.863,0-1.294-.332-.183-.431-.423-.206-.762a4.465,4.465,0,0,1,.328-.526l.006,0c.043-.061.084-.063.124,0q.013.051.02.1a6.359,6.359,0,0,1,.486.931l-.088.283c-.151.049-.1.136-.042.225-.233.332.06.98-.627,1.04" transform="translate(-244.558 -401.051)" fill="#ffcb57"/><path d="M88.74,69.5q0,.062,0,.123c-.187.2.172.663-.275.7-.348.03-.361-.357-.464-.6-.169-.393-.753-.582-.568-1.148a1.191,1.191,0,0,1,1.3.918" transform="translate(-80.324 -63.024)" fill="#ffcb57"/><path d="M151.041,209.889c-.194-.162-.351-.365-.161-.6a.652.652,0,0,0,.074-.654c-.368-.571-.4-.973.362-1.169.464.869-.171,1.614-.275,2.419" transform="translate(-138.502 -190.673)" fill="#ffcb57"/><path d="M134.6,303.892c-.672.51-.153,1.339-.52,1.931a.246.246,0,0,1-.138.078.849.849,0,0,0-.393,0,.373.373,0,0,1-.331-.263c-.071-.753.593-1.137.866-1.717a.176.176,0,0,1,.1-.045.377.377,0,0,1,.414.016" transform="translate(-122.431 -279.223)" fill="#ffcb57"/><path d="M388,172.208a7.851,7.851,0,0,1-.986-2.42c-.019-.232-.132-.459.066-.664q.06.043.043.09t-.036.048a.443.443,0,0,0,.25.5c.319.143.3.45.324.717a1.888,1.888,0,0,0,.427.981c.182.239.235-.04.351-.055a.358.358,0,0,1,.246.078c.2.2.41.393.6.606-.4.369-.861.011-1.283.114" transform="translate(-355.635 -155.431)" fill="#ffcb57"/><path d="M390.262,336.494l-.256-.259c-.062-.283-.253-.512-.522-.417a1.385,1.385,0,0,1-1.2-.226.417.417,0,0,0-.48,0l-.13.257c-.15.214-.3.3-.468.015-.067-.243-.273-.221-.461-.234a.483.483,0,0,1-.4-.181c.516-.461,1.1.019,1.668-.108a2.118,2.118,0,0,1,2.118.38.6.6,0,0,1,.126.776" transform="translate(-355.07 -308.084)" fill="#ffcb57"/><path d="M88.836,189.944a1.665,1.665,0,0,1-1.034,1.8c-.123.025-.191,0-.142-.146.2-.686.386-1.385,1.176-1.654" transform="translate(-80.547 -174.566)" fill="#ffcb57"/><path d="M13.314,124.594c-.037.514.339,1.027,0,1.542l-.4-.764c-.059-.139.025-.211.129-.274-.027-.486-.206-.943-.233-1.442a2.355,2.355,0,0,1,.1-1.16c.223.137-.009.394.146.548h0a13.024,13.024,0,0,0,.258,1.549" transform="translate(-11.752 -112.578)" fill="#ffcb57"/><path d="M97.852,300.031a6.855,6.855,0,0,1-1.316-1.559c-.052-.137-.191-.28.025-.4a2.271,2.271,0,0,1,1.291,1.96" transform="translate(-88.635 -273.938)" fill="#ffcb57"/><path d="M313.808,306.829l-.027.285a1.269,1.269,0,0,0-.321,1.041.326.326,0,0,1-.061.25h0c-.262.147-.414-.012-.554-.2a2.973,2.973,0,0,1-.093-1.22c.269.13.6.18.75-.077.162-.277-.339-.309-.363-.57,0-.028-.009-.057-.013-.085a.442.442,0,0,1,.158-.464,1.035,1.035,0,0,1,.525,1.041" transform="translate(-287.386 -281.03)" fill="#ffcb57"/><path d="M30.486,153.526c.333-.133.495-.948,1.035-.259h0c.229.356.124.785.258,1.162l.651.252a.652.652,0,0,1-.537.147.256.256,0,0,1-.113-.019,2.375,2.375,0,0,1-.87-.59c-.218-.185-.027-.617-.424-.693" transform="translate(-28.018 -140.607)" fill="#ffcb57"/><path d="M114.853,75.578q0,.082.005.164a7.454,7.454,0,0,1-3.27.238.4.4,0,0,0,.421-.4c.159-.114.1-.319.191-.46l.066-.054c.224.762.767.829,1.422.646a1.107,1.107,0,0,1,1.164-.129" transform="translate(-102.553 -68.984)" fill="#ffcb57"/><path d="M198.032,302.861l-.527.27c-.205-.7-.922-.982-1.294-1.547q-.049-.045-.032-.089t.034-.043c.9.089,1.325.794,1.819,1.409" transform="translate(-180.292 -277.046)" fill="#ffcb57"/><path d="M132.154,305.039c.008.709-.837,1.044-.78,1.773a1.108,1.108,0,0,1,.169.808,1.029,1.029,0,0,1-.032.205c-.077.187-.089.4-.256.55l-.118.242c-.007-.578-.006-1.157-.023-1.735a2.209,2.209,0,0,1,1.041-1.844" transform="translate(-120.497 -280.342)" fill="#ffcb57"/><path d="M83.743,438.562l-.632-.777c-.353-.566.027-.937.352-1.323a.294.294,0,0,1,.167-.019c.166.19.095.406.067.615,0,.064-.014.139.1.132a.326.326,0,0,0,.23-.066.351.351,0,0,1,.216.6c-.244.239-.213.6-.461.806Z" transform="translate(-76.252 -401.103)" fill="#ffcb57"/><path d="M46.347,232.2l-.14,0c-.118-.43.255-.679.391-1.012.168-.41.3-.787-.006-1.181.162-.25.588-.174.659-.535a1.781,1.781,0,0,1-.512,1.945,1.822,1.822,0,0,0-.393.78" transform="translate(-42.445 -210.895)" fill="#ffcb57"/><path d="M89.145,62a2.832,2.832,0,0,0-1.3-.918.442.442,0,0,1,.026-.121c.177-.137-.177-.651.373-.523-.08.19-.138.465.167.373,1.186-.356.821.509.873,1.052L89.145,62" transform="translate(-80.728 -55.526)" fill="#ffcb57"/><path d="M216.254,483.159l1.417.669-1.935.213q0-.182,0-.365c-.066-.409.3-.385.517-.517" transform="translate(-198.263 -444.041)" fill="#ffcb57"/><path d="M124.442,446.581l-.134.261a1.2,1.2,0,0,1,.807-1.371.347.347,0,0,1,.409.428c-.01.1-.094.221.035.282.148.07.216-.053.295-.16s.116-.392.338-.12c-.029.19.038.39-.065.571l-.109.249c-.386-.115-1.117.5-1.084-.508,0-.011-.031-.031-.048-.032s-.04.014-.06.022a1.3,1.3,0,0,1-.384.379" transform="translate(-114.21 -409.403)" fill="#ffcb57"/><path d="M282.923,370.416c.107-.328.683-.377.518-.867.493-.409.814-.029,1.158.251l.032.03c.022.5-.319.419-.642.433a10.348,10.348,0,0,0-1.066.153" transform="translate(-260.017 -339.464)" fill="#ffcb57"/><path d="M28.74,100.371c.208.252.692-.043.8.4a.4.4,0,0,0-.577.068c-.3.4-.51.423-.675-.091-.03-.092-.18-.24-.213-.139-.2.63-.593.065-.871.158.428-.451,1-.359,1.534-.4" transform="translate(-25.003 -92.245)" fill="#ffcb57"/><path d="M353.947,215.354c-.769-.109-.67-.751-.782-1.264a1.582,1.582,0,0,1,1.171,1.264h-.389" transform="translate(-324.572 -196.757)" fill="#ffcb57"/><path d="M48.571,294.765c.1.14.351.242.113.466-.107.1-.208.207-.312.311-.136-.164.074-.364.005-.467-.235-.355-.55-.159-.84-.051-.259.4-.519.127-.778,0-.114-.054-.022-.313-.252-.253-.051.055-.1.049-.143-.009.454-.279.954-.11,1.433-.143.228.208.541-.033.774.146" transform="translate(-42.61 -270.747)" fill="#ffcb57"/><path d="M152.416,300.026a.236.236,0,0,0,.258.245c.039.218.2.313.386.385.043.227.1.452.122.681.008.088-.063.183-.1.275-.258-.219-.445-.546-.845-.549.3-.433-.228-.442-.343-.661a.432.432,0,0,1,.386-.372l.135,0" transform="translate(-139.597 -275.735)" fill="#ffcb57"/><path d="M81.23,414.539c-.127.436-.546.785-.4,1.305l-.261-.271a.463.463,0,0,1,0-.521,10.462,10.462,0,0,1,.377-2.487c.359.4-.032.867.1,1.288.086.191.088.406.167.6.005.029.011.058.016.086" transform="translate(-73.975 -379.162)" fill="#ffcb57"/><path d="M84.622,38.782c-.352.012-.168.406-.373.523-.626-.814-.255-1.633-.01-2.451a4.259,4.259,0,0,0,.383,1.928" transform="translate(-77.112 -33.87)" fill="#ffcb57"/><path d="M168.351,155.092a.384.384,0,0,0-.255.372l-.519-.128c0-.253-.2-.459-.168-.72.022-.084-.026.005.021-.06.164-.226-.083-.725.444-.7.317.015.615.51.6.946a.513.513,0,0,1-.119.29" transform="translate(-153.853 -141.399)" fill="#ffcb57"/><path d="M14.444,107.223c-.188-.146-.1-.364-.146-.548.066-.676.581-1.017,1.046-1.394.068.266.208.61-.161.7-.47.119-.385.411-.352.723l-.387.516" transform="translate(-13.14 -96.757)" fill="#ffcb57"/><path d="M136.641,14.6,136,13.941c.813-.175,1.409.319,2.053.663-.408-.06-.31.634-.761.509-.137-.272-.167-.678-.651-.513" transform="translate(-124.989 -12.779)" fill="#ffcb57"/><path d="M241.578,196.443c-.239-.442-.893-.593-.849-1.251.009-.141-.242-.191-.35-.028-.136.206-.178.59-.479.512-.284-.074.12-.466-.13-.654a.679.679,0,0,1,.909-.132l.266.113c.1.124.373.09.329.351-.135.332.192.331.336.463a.829.829,0,0,1-.032.627" transform="translate(-220.357 -179.004)" fill="#ffcb57"/><path d="M368.744,85.738c.786.061,1.047-.673,1.562-1.024-.355,1.393-.445,1.46-1.58,1.181a.107.107,0,0,1,.018-.156" transform="translate(-338.849 -77.855)" fill="#ffcb57"/><path d="M257.177,370.528l1.178-.527c-.209.372.058.679.138,1.012-.491-.022-1,.012-1.316-.485" transform="translate(-236.355 -340.045)" fill="#ffcb57"/><path d="M335.483,464.693c.111-.442-.395-.391-.518-.646a.487.487,0,0,1,.164-.661c.242-.142.359.12.5.258a1.6,1.6,0,0,0,.6.336.326.326,0,0,1,.176.2,1.508,1.508,0,0,1-.92.514" transform="translate(-307.789 -425.831)" fill="#ffcb57"/><path d="M406.4,134.006h-.128c-.351.24-.66.609-1.165.386-.258-.307.23-.49.128-.771.468.19.9.391,1.382-.067.239-.226.609-.118.683.323-.214.112-.427-.631-.641,0-.054.107-.188.055-.258.13" transform="translate(-372.235 -122.636)" fill="#ffcb57"/><path d="M263.964,144.984q.008.2.015.405c-.01.1-.06.279-.024.3.384.211.365.2.31.749a3.117,3.117,0,0,0,.1.746l-.083.042c-.692-.223-.463-.843-.571-1.318l.249-.924" transform="translate(-242.364 -133.246)" fill="#ffcb57"/><path d="M112.292,189.1c-.186.581-1.409.585-1.942.005.648.3,1.294-.267,1.942-.005" transform="translate(-101.416 -173.721)" fill="#ffcb57"/><path d="M147.133,431.275q0-.33-.006-.66a2.762,2.762,0,0,1,.646-1.42l.375-.261c.05.948-.631,1.58-1.015,2.341" transform="translate(-135.215 -394.206)" fill="#ffcb57"/><path d="M262.377,161.776a2.02,2.02,0,0,1-.9-2.2c.194.071.222.219.221.406,0,.4.318.625.537.9.239.265.542.52.141.887" transform="translate(-240.25 -146.661)" fill="#ffcb57"/><path d="M326.517,409.178a.551.551,0,0,0,.873.022.234.234,0,0,1,.278-.018.8.8,0,0,1-.069.5c-.076.285-.009.759-.469.68a.868.868,0,0,1-.745-.845.613.613,0,0,1,.091-.3Z" transform="translate(-299.959 -376.019)" fill="#ffcb57"/><path d="M64.832,291.9c-.259-.044-.556.113-.774-.146a1.209,1.209,0,0,0,.746-.116c.595-.351,1.1-.051,1.583.282-.023.183.073.439-.154.514-.246.081-.191-.225-.3-.331-.321-.307-.624-.728-1.1-.2" transform="translate(-58.872 -267.883)" fill="#ffcb57"/><path d="M433.238,342.095l-.126-.776c.711.282.848,1.045,1.3,1.545-.492.178-.555-.19-.652-.512l-.519-.257" transform="translate(-398.046 -313.685)" fill="#ffcb57"/><path d="M408.212,195.341c-.389.043-.475-.292-.65-.517.212-.377.423-.665.694-.035.054.127.216.121.339.151a1.458,1.458,0,0,1,.166.039.953.953,0,0,0,.49.043c.317.025.46-.432.818-.295a.288.288,0,0,1-.036.251c-.49.705-1.217.227-1.82.363" transform="translate(-374.564 -178.679)" fill="#ffcb57"/><path d="M17.216,264.344l.128.617-.257-.1c-.269-.2-.529-.431-.9-.26l-.007,0q-.06.1-.123,0a.561.561,0,0,1,.473-.682c.488-.148.516.2.691.425" transform="translate(-14.75 -242.518)" fill="#ffcb57"/><path d="M219.411,320.817c-.565-.183-.34-.731-.311-1.015.034-.334-.11-.621-.065-.93.689.54.528,1.243.376,1.945" transform="translate(-201.293 -293.055)" fill="#ffcb57"/><path d="M305.841,245.295c.073.328-.416.091-.382.379-.358-.581-.649-1.167-.14-1.815.011.538-.022,1.091.522,1.436" transform="translate(-280.347 -224.115)" fill="#ffcb57"/><path d="M269.732,173.325a.6.6,0,0,0-.257-.776c-.116-.179-.047-.3.126-.379l.008-.023.254.273c.269.041.331.215.319.458a.547.547,0,0,0,.22.562.4.4,0,0,1,.1.137c-.1.153-.119.42-.378.358-.3-.071-.322-.368-.4-.611" transform="translate(-247.605 -158.209)" fill="#ffcb57"/><path d="M205.128,154.781c.477.059-.191.9.542.786a2.359,2.359,0,0,1-1.062.5q0-.059,0-.118c.152-.153.016-.326.037-.486.038-.3.015-.668.479-.678" transform="translate(-188.042 -142.249)" fill="#ffcb57"/><path d="M367.743,231.111l-.122-1.413c.49.22.777.482.394,1.061a3.057,3.057,0,0,0-.253.9.533.533,0,0,1-.02-.552" transform="translate(-337.857 -211.101)" fill="#ffcb57"/><path d="M306.3,184.238c.331-.462.684-.763,1.162-.161-.344.27-.684.552-1.162.293q-.067-.044-.045-.088c.015-.03.029-.044.044-.044" transform="translate(-281.454 -168.865)" fill="#ffcb57"/><path d="M.534,214.117l.123.229-.388,1.419a.37.37,0,0,1-.052.494l-.087.03a2.172,2.172,0,0,1,.4-2.172" transform="translate(0 -196.781)" fill="#ffcb57"/><path d="M156,136.2c-.989-.583-.8-1.581-.884-2.485a.138.138,0,0,1,.167,0,.522.522,0,0,1,.091.158A3.863,3.863,0,0,0,156,135.5c.128.149.075.364.086.551a.243.243,0,0,1-.084.153" transform="translate(-142.556 -122.865)" fill="#ffcb57"/><path d="M230.633,114.862l.019-.146c.721.525-.027,1.129.09,1.686-.135.1-.046.271-.111.4l-.133.129c-.482-.13-.513-.347-.125-.645.258-.442.039-.971.26-1.42" transform="translate(-211.476 -105.428)" fill="#ffcb57"/><path d="M323.2,44.337c-.55.011-1.127-.011-.822.841.085.238,0,.243-.217.155a2.5,2.5,0,0,0-.622-.091,1.922,1.922,0,0,1,2.042-1.058.159.159,0,0,1,.041.108q0,.06-.013.06a.341.341,0,0,1-.161.082.31.31,0,0,1-.247-.1" transform="translate(-295.502 -40.582)" fill="#ffcb57"/><path d="M4.165,258.078l.123,0c.019.227-.01.45-.282.48s-.349-.19-.36-.415c-.018-.377-.3-.586-.515-.838a.432.432,0,0,1,.259-.516c-.051.492.492.766.455,1.278-.015.215.2.13.319.014" transform="translate(-2.863 -235.996)" fill="#ffcb57"/><path d="M281.123,182.531l-.126,0c-.083-.618.01-.714.556-.571a.218.218,0,0,0,.224-.067c.411.15.3.472.255.772a.318.318,0,0,1-.4.136c-.246.056.053-.93-.511-.266" transform="translate(-258.222 -167.163)" fill="#ffcb57"/><path d="M34.9,296.625l.143.009c-.248.458-.293,1.274-1.153.649a2.142,2.142,0,0,1,1.01-.657" transform="translate(-31.142 -272.609)" fill="#ffcb57"/><path d="M433.329,141.412c-.181.07-.35.018-.214-.173.327-.455.112-.861-.027-1.285a.242.242,0,0,0,.36.032c.361-.04.374-.019.287.453-.045.187.173.259.187.421.033.432-.484.273-.594.553" transform="translate(-398.003 -128.623)" fill="#ffcb57"/><path d="M214.789,191.56c-.371.117-.3-.327-.512-.4.568.209,1.1-.325,1.672-.079a.147.147,0,0,1,0,.231c-.167.175-.322.352-.587.122-.234-.2-.431-.126-.573.131" transform="translate(-196.928 -175.545)" fill="#ffcb57"/><path d="M177.55,299.406c0,.044,0,.088,0,.132-.584.069-1.191.286-1.681-.259.561.038,1.144-.212,1.683.127" transform="translate(-161.628 -275)" fill="#ffcb57"/><path d="M437.811,140.573c-.02-.175.514-.366-.015-.526.8-.183.59.631.9.931.085.081.017.321.019.488a.1.1,0,0,1,.041.1c-.008.036-.018.054-.028.054-.328.045-.491-.084-.4-.42.048-.184.05-.327-.134-.426a.724.724,0,0,1-.382-.2" transform="translate(-402.351 -128.683)" fill="#ffcb57"/><path d="M461.2,259.233l-.521.652c-.385-.147-.044-.432-.044-.6a.578.578,0,0,0-.344-.563.38.38,0,0,1,.531-.007l.377.515" transform="translate(-423.021 -237.675)" fill="#ffcb57"/><path d="M310.63,299.4c-.5-.241-.868-.543-.516-1.161l.52.258c-.074.3.158.6,0,.9Z" transform="translate(-284.878 -274.088)" fill="#ffcb57"/><path d="M437.928,178.364l-.013-.284a1.957,1.957,0,0,1,.624-1.738c.319.145.211.462.284.706-.688.175-.438.985-.9,1.316" transform="translate(-402.46 -162.065)" fill="#ffcb57"/><path d="M85.207,408.86c-.3-.481.148-.973-.021-1.457.023-.2.047-.392.284-.455q0,.892-.005,1.784c-.045.057-.058.139-.132.175a.112.112,0,0,1-.126-.047" transform="translate(-78.211 -374)" fill="#ffcb57"/><path d="M232.826.738l.259.255c-.278.018-.529-.122-.845.054-.37.205-.438-.153-.45-.449a1.039,1.039,0,0,1,1.036.14" transform="translate(-213.023 -0.464)" fill="#ffcb57"/><path d="M86.389,353.274l.26-.763c.216-.36.431.123.647,0l.141,0c-.237.407-.392.927-1.048.759" transform="translate(-79.395 -323.845)" fill="#ffcb57"/><path d="M28.276,158.066c1.067-.511.113.617.522.64-.03.143-.155.185-.261.248a.318.318,0,0,1-.108.021c-.229.054-.306-.051-.281-.265-.064-.236-.153-.477.129-.645" transform="translate(-25.808 -145.146)" fill="#ffcb57"/><path d="M24.472,167.531l.281.265c-.128.2.232.492-.092.619-.308.121-.459-.129-.577-.37-.012-.277.059-.493.388-.513" transform="translate(-22.133 -153.967)" fill="#ffcb57"/><path d="M408.1,278.321a1.338,1.338,0,0,1,.377,1.057c-.277-.7-1.2-1.158-.79-2.111l.081.042a1.987,1.987,0,0,1,.333,1.012" transform="translate(-374.582 -254.819)" fill="#ffcb57"/><path d="M440.9,243.523c-.475.345-.96-.393-1.435.012h0q0-.145,0-.29c.577-.409,1-.025,1.439.277" transform="translate(-403.884 -223.389)" fill="#ffcb57"/><path d="M332.448,211.611c-.419.423-.956.247-1.452.285-.046.057-.089.057-.129-.007l.014-.16c.525,0,1.008-.556,1.566-.118" transform="translate(-304.08 -194.324)" fill="#ffcb57"/><path d="M265.121,427.66l-.124,0c-.269-.2-.8-.231-.506-.791.737-.152.638.357.63.793" transform="translate(-242.996 -392.281)" fill="#ffcb57"/><path d="M194.211,194.362c.053.755-.848.75-1.046,1.306a1.528,1.528,0,0,1,1.046-1.306" transform="translate(-177.526 -178.626)" fill="#ffcb57"/><path d="M212.483,29.319c-.106.543.3,1,.261,1.532a2.839,2.839,0,0,1-.545-2.066c.241.1.413.237.285.533" transform="translate(-194.995 -26.455)" fill="#ffcb57"/><path d="M446.5,163.127c-.119-.2-.378-.368-.123-.638,0-.027-.005-.053-.008-.08a3.249,3.249,0,0,0,.065-.638.378.378,0,0,1,.069-.148c.149-.122.228-.306.377-.428.295.726-.339,1.272-.379,1.933" transform="translate(-410.141 -148.143)" fill="#ffcb57"/><path d="M45.132,228.256c-.113.309-.088.788-.659.535-.124-.08-.244-.167-.373-.236-.1-.055-.287-.057-.2-.238s.2-.062.314,0c.345.2.667.261.891-.172a.209.209,0,0,1,.024.107" transform="translate(-40.325 -209.677)" fill="#ffcb57"/><path d="M242.993,483.448c.592-.146.97-.869,1.7-.632a2.39,2.39,0,0,1-1.7.632" transform="translate(-223.319 -443.682)" fill="#ffcb57"/><path d="M328.991,146.057c-.248-.056-.557-.085-.59-.385-.025-.229.2-.353.43-.383a.517.517,0,0,1,.161.769" transform="translate(-301.81 -133.525)" fill="#ffcb57"/><path d="M416.566,244.18c-.394.089-.644.858-1.186.251a.9.9,0,0,1,1.186-.251" transform="translate(-381.75 -224.3)" fill="#ffcb57"/><path d="M439.432,301.29l.123-.013c.213-.032.224.14.277.269.034.15.032.329.264.323.218.025.588-.193.5.312-.393.047-.806-.075-1.181.136-.322-.346-.01-.684.012-1.026" transform="translate(-403.71 -276.881)" fill="#ffcb57"/><path d="M1.223,242.107l-.259.516c-.47-.567.028-1.208-.139-1.8l.019-.011c.207.012.212.117.122.266v.381c.13.151.119.372.257.519q0,.064,0,.128" transform="translate(-0.695 -221.317)" fill="#ffcb57"/><path d="M254.913,199.052c-.035-.214.08-.455-.111-.642-.2-.06-.357-.144-.272-.4l-.25-.4c1.116.03.692.865.759,1.444h-.063Z" transform="translate(-233.693 -181.613)" fill="#ffcb57"/><path d="M84.818,158.355c.2-.363.558-.347.895-.388a1.2,1.2,0,0,1-.378.775c-.424.207-.33-.276-.517-.386" transform="translate(-77.951 -145.177)" fill="#ffcb57"/><path d="M229.2,53.668c.074-.291-.31-.648.129-.886.065.544.626.869.636,1.437-.4.013-.137-.882-.765-.551" transform="translate(-210.568 -48.509)" fill="#ffcb57"/><path d="M262.952,157.691l-.126.379c-.45-.367-.483-.922-.643-1.419l.124-.258c.358.362.047,1.055.645,1.3" transform="translate(-240.955 -143.731)" fill="#ffcb57"/><path d="M302.051,226.388c.016.393.21.785.006,1.179-.311.1-.521.078-.371-.326.108-.289.242-.569.364-.853" transform="translate(-277.216 -208.059)" fill="#ffcb57"/><path d="M234.923,191.866v-.232l.272-.017c.135.054.285.048.42.1a.565.565,0,0,1,.609.271l-.909.132-.392-.256" transform="translate(-215.902 -176.103)" fill="#ffcb57"/><path d="M163.784,30.027c-.743-.273-.122-1.036-.518-1.434l.37.539c.1.165.117.372.261.515l-.114.38" transform="translate(-150.047 -26.278)" fill="#ffcb57"/><path d="M319.645,272.681c.268-.109-.041-.592.323-.571.263.015.337.344.457.562-.26.014-.516.32-.78.009" transform="translate(-293.766 -250.078)" fill="#ffcb57"/><path d="M433.561,301.486q-.006.513-.012,1.026c-.576.3-.5-.25-.662-.5.13-.16.284.35.407-.014l.267-.512" transform="translate(-397.839 -277.077)" fill="#ffcb57"/><path d="M162.444,47.59a4.16,4.16,0,0,1,.529-1.3c-.1.546.025,1.166-.529,1.557a.173.173,0,0,1,0-.259Z" transform="translate(-149.238 -42.544)" fill="#ffcb57"/><path d="M447.4,304.177c-.142-.451-.456.011-.657-.123a.2.2,0,0,1-.051-.24c.066-.125.214-.077.308-.144.115-.146.227-.4.388-.045.089.2.136.412.4.443-.1.152-.245.123-.388.109" transform="translate(-410.51 -278.877)" fill="#ffcb57"/><path d="M390,137.13l-.131-.269a1.554,1.554,0,0,1,1.174-1.152c-.419.422-.959.755-1.044,1.422" transform="translate(-358.302 -124.721)" fill="#ffcb57"/><path d="M440.455,354.076c.171.229.287.529.653.512.257.272.009.465-.107.679.069-.511-.83-.581-.546-1.191" transform="translate(-404.743 -325.409)" fill="#ffcb57"/><path d="M408.871,263.179l.255.13c.6.353.6.353-.02.941a.221.221,0,0,1-.225.1l-.039-.031q.015-.57.029-1.141" transform="translate(-375.741 -241.871)" fill="#ffcb57"/><path d="M380.924,337.953l.555.015c-.084.622-.144.652-1.031.518q0-.057,0-.115l.478-.418" transform="translate(-349.644 -310.591)" fill="#ffcb57"/><path d="M33.7,167.73l.261-.248.772.643c-.452.148-.717-.191-1.033-.4" transform="translate(-30.974 -153.922)" fill="#ffcb57"/><path d="M295.843,451.273l.369,1.185c-.947-.139-.245-.79-.369-1.185" transform="translate(-271.766 -414.736)" fill="#ffcb57"/><path d="M212.772,20.586l-.285-.533.264-.769.138.645c.06.172.131.344.006.518a.867.867,0,0,0-.013.122.844.844,0,0,0-.111.018" transform="translate(-195.283 -17.723)" fill="#ffcb57"/><path d="M97.249,252.792c.755.061.266-.539.425-.794.234.007.2.133.122.276l.139.209c-.006.081,0,.162,0,.243-.044.209-.042.44-.271.559-.308-.022-.387-.235-.411-.493" transform="translate(-89.375 -231.595)" fill="#ffcb57"/><path d="M346.759,43.689q0-.076-.008-.152c.348-.192.694,0,1.041.008a.118.118,0,0,1,0,.144l-.776.258c-.242.069-.239-.106-.259-.258" transform="translate(-318.677 -39.934)" fill="#ffcb57"/><path d="M111.788,259.859l.276-.267.126,0c.227-.058.317-.46.648-.258l.384.27c-.519-.141-.917.39-1.434.259" transform="translate(-102.737 -238.282)" fill="#ffcb57"/><path d="M206.027,266.761c.013-.04.03-.08.04-.121.056-.234-.2-.606.069-.682.295-.082.194.406.405.546,0,.042,0,.083,0,.125l-.517.132" transform="translate(-189.329 -244.417)" fill="#ffcb57"/><path d="M98.855,138.161c-.3-.3-.479-.607.014-.9l.279.138-.293.762" transform="translate(-90.581 -126.149)" fill="#ffcb57"/><path d="M354.828,414.962l-.14.009c-.624.176-.762.047-.7-.652.234-.23.405-.251.451.137-.041.3.26.336.389.506" transform="translate(-325.315 -380.622)" fill="#ffcb57"/><path d="M359.606,44.732q0-.072,0-.144h1.156l.047.091c-.047.417-.3.474-.645.363a1.342,1.342,0,0,1-.557-.309Z" transform="translate(-330.489 -40.977)" fill="#ffcb57"/><path d="M263.716,214.735q0-.254-.009-.508c.976-.433.134.6.517.64-.208.1-.361,0-.508-.132" transform="translate(-242.356 -196.786)" fill="#ffcb57"/><path d="M459.334,250.905l-.531.007-.131-.258c.036-.208.213-.345.271-.543l.391.793" transform="translate(-421.536 -229.862)" fill="#ffcb57"/><path d="M274.009,439.191a1.072,1.072,0,0,1-.487-.93.684.684,0,0,1,.487.93" transform="translate(-251.377 -402.778)" fill="#ffcb57"/><path d="M409.695,248.623c-.027.416.092.9-.5,1.049.16-.353.091-.814.5-1.049" transform="translate(-376.065 -228.494)" fill="#ffcb57"/><path d="M307.9,213.992c.058.565-.428.587-.763.761.209-.3.286-.729.763-.761" transform="translate(-282.266 -196.667)" fill="#ffcb57"/><path d="M358.963,94.489l-.018.156c-.452-.249-.436.606-.881.372q0-.069-.006-.138c.151-.232.228-.522.516-.644.186,0,.369,0,.389.253" transform="translate(-329.068 -86.606)" fill="#ffcb57"/><path d="M295.962,185.526v.133a1.56,1.56,0,0,0-.907.239.162.162,0,0,1,0-.245c.125-.062.322-.094.365-.192.273-.62.389-.186.538.066" transform="translate(-271.117 -170.152)" fill="#ffcb57"/><path d="M335.261,99.068l.119.12c.213.229.356.47.121.769l-.267.262a.991.991,0,0,1,.027-1.151" transform="translate(-307.935 -91.047)" fill="#ffcb57"/><path d="M339.077,407.477l-.266,0c.481-.3.9-.329,1.163.276a.108.108,0,0,1-.024.155,1.065,1.065,0,0,1-.872-.427" transform="translate(-311.38 -374.292)" fill="#ffcb57"/><path d="M359.772,444.7l.652-1.3c-.013.537,0,1.084-.652,1.3" transform="translate(-330.644 -407.497)" fill="#ffcb57"/><path d="M299.686,294.956c-.324.3-.624.478-.766-.15a.9.9,0,0,1,.766.15" transform="translate(-274.718 -270.911)" fill="#ffcb57"/><path d="M265.527,224.7c-.126-.2-.32-.379-.273-.654a.268.268,0,0,1,.381,0c.121.244.316.5-.108.653" transform="translate(-243.771 -205.829)" fill="#ffcb57"/><path d="M57.65,169.532c.255-.5.644-.4,1.047-.233a1.39,1.39,0,0,1-1.047.233" transform="translate(-52.982 -155.469)" fill="#ffcb57"/><path d="M17.7,270.324c.443-.4.707-.189.9.26l-.9-.26" transform="translate(-16.267 -248.241)" fill="#ffcb57"/><path d="M153.755,123.782h-.128c-.212-.281-.1-.6-.109-.905l.367.131a.54.54,0,0,1-.13.775" transform="translate(-141.069 -112.927)" fill="#ffcb57"/><path d="M86.457,210.375l.142.146c.113.258.243.516,0,.774-.155-.018-.173-.17-.254-.26a.95.95,0,0,1,.111-.66" transform="translate(-79.345 -193.342)" fill="#ffcb57"/><path d="M83.258,162.764l.517.386a.72.72,0,0,1-.654.358c.185-.222.123-.49.137-.744" transform="translate(-76.391 -149.586)" fill="#ffcb57"/><path d="M316.66,129.76l-.111-.521.51,0c-.309.038.421.872-.4.519" transform="translate(-290.92 -118.775)" fill="#ffcb57"/><path d="M339.1,101.318l-.121-.769c.459.062.388.477.51.763l-.389.006" transform="translate(-311.535 -92.408)" fill="#ffcb57"/><path d="M374.931,44.746q0,.136,0,.272a1.717,1.717,0,0,1-1.026-.627l-.019-.033c.441-.119.673.323,1.046.388" transform="translate(-343.614 -40.748)" fill="#ffcb57"/><path d="M139.129,246.856l-.014-.156.656-1.03a1.388,1.388,0,0,1-.642,1.186" transform="translate(-127.852 -225.78)" fill="#ffcb57"/><path d="M332.8,99.068a2.13,2.13,0,0,0-.027,1.151c-.128.051-.252.2-.388.014.406-.293-.118-.917.415-1.165" transform="translate(-305.47 -91.047)" fill="#ffcb57"/><path d="M282.264,124.631a1.323,1.323,0,0,0-1.342-.009c.451-.54.9-.508,1.342.009" transform="translate(-258.178 -114.172)" fill="#ffcb57"/><path d="M125.686,13.355c-.3.29-.595.453-.91.024.306.082.6-.281.91-.024" transform="translate(-114.674 -12.188)" fill="#ffcb57"/><path d="M365.571,247.152q.01.276.02.552c0,.186-.03.351-.274.346-.174-.372.081-.623.255-.9" transform="translate(-335.685 -227.142)" fill="#ffcb57"/><path d="M282.83,39.5c.031-.383-.2-.862.39-1.038-.288.287-.054.769-.39,1.038" transform="translate(-259.914 -35.348)" fill="#ffcb57"/><path d="M351.8,461.655l-.142-.131c0-.029,0-.058,0-.087.049-.167.094-.335.143-.5.079-.158.126-.351.365-.335l.022.053c-.031.372-.015.763-.389,1" transform="translate(-323.19 -423.306)" fill="#ffcb57"/><path d="M313.739,408.246l-.664,1.027c.016-.475.11-.9.664-1.027" transform="translate(-287.727 -375.193)" fill="#ffcb57"/><path d="M439.517,380.132c-.036-.376-.038-.712.493-.41a.607.607,0,0,1-.493.41" transform="translate(-403.919 -348.871)" fill="#ffcb57"/><path d="M199,376.218c-.134-.109-.292-.331-.185-.4.135-.086.382,0,.581.013l-.4.386" transform="translate(-182.685 -345.357)" fill="#ffcb57"/><path d="M263.776,233.859c.136-.3.014-.711.4-.9q-.008.319-.015.638c-.111.112-.128.361-.384.262" transform="translate(-242.42 -214.098)" fill="#ffcb57"/><path d="M353.1,411.754c0-.04,0-.08,0-.119.161-.065.321-.251.493-.05.1.118.219.269.037.427a.24.24,0,0,0-.4-.133c-.111.03-.152-.016-.136-.124" transform="translate(-324.511 -378.177)" fill="#ffcb57"/><path d="M325.8,103.912c.509.03.425.467.532.773-.45-.07-.22-.607-.532-.773" transform="translate(-299.423 -95.499)" fill="#ffcb57"/><path d="M349.723,104.339l.158-.017c.131-.1.125-.287.256-.384l.264-.125c-.081.362-.058.856-.678.526" transform="translate(-321.408 -95.408)" fill="#ffcb57"/><path d="M247.814,304.252c.241.337-.171.446-.237.676l-.158.117a.907.907,0,0,1,.395-.793" transform="translate(-227.387 -279.619)" fill="#ffcb57"/><path d="M193.861,468.737c.275.109.474.249.227.567-.157-.115-.381-.115-.5-.289l.278-.278" transform="translate(-177.91 -430.786)" fill="#ffcb57"/><path d="M216.748,349.916c-.028-.225-.5-.549.14-.625-.165.182.328.511-.14.625" transform="translate(-199.022 -321.011)" fill="#ffcb57"/><path d="M276.523,52.252c.022-.42-.125-.926.527-1.024-.317.269-.357.68-.527,1.024" transform="translate(-254.135 -47.08)" fill="#ffcb57"/><path d="M448.624,158.14c.031.284-.057.484-.373.522a.724.724,0,0,1-.016-.649l.014-.142.375.269" transform="translate(-411.882 -145.089)" fill="#ffcb57"/><path d="M158.7,62.327q0,.13,0,.259c-.311.173-.229.537-.383.786q0-.394-.005-.788Z" transform="translate(-145.494 -57.281)" fill="#ffcb57"/><path d="M316.633,302.326c.078-.3-.323-.6,0-.9l.142.354c-.036.187.045.4-.145.551" transform="translate(-290.881 -277.017)" fill="#ffcb57"/><path d="M433,389.977c.145-.294.048-.694.395-.9.009.361-.022.7-.395.9" transform="translate(-397.946 -357.577)" fill="#ffcb57"/><path d="M304.917,471.972c.421.05.39.36.38.657l-.385-.517a.091.091,0,0,1-.026-.094c.011-.03.021-.046.032-.046" transform="translate(-280.197 -433.76)" fill="#ffcb57"/><path d="M457.56,248.763a.614.614,0,0,1-.271.543c-.4-.155.369-.523-.122-.661l.393.119" transform="translate(-420.153 -228.513)" fill="#ffcb57"/><path d="M282.087,25.521c-.228-.128-.426.3-.62.057-.085-.106.091-.244.224-.311a.268.268,0,0,1,.389.125l.008.129" transform="translate(-258.658 -23.188)" fill="#ffcb57"/><path d="M146.156,300.067l-.386.372q-.063,0-.126,0l-.414-.016.925-.358" transform="translate(-133.473 -275.773)" fill="#ffcb57"/><path d="M104.169,258.147l.125-.161a.5.5,0,0,1,.254.546l-.264.134c-.17-.144,0-.363-.116-.518" transform="translate(-95.735 -237.099)" fill="#ffcb57"/><path d="M284.875,22.7l-.389-.125,0-.263c.311-.052.435.082.384.387" transform="translate(-261.453 -20.5)" fill="#ffcb57"/><path d="M263.661,241.1l.384-.262c.016.284-.051.5-.394.511q0-.124.01-.249" transform="translate(-242.305 -221.339)" fill="#ffcb57"/><path d="M301.507,469.013l-.005.14-.332.048.1-.449.24.261" transform="translate(-276.786 -430.8)" fill="#ffcb57"/><path d="M85.136,218.524l.254.26q0,.059-.007.118c-.168.015-.237.124-.261.276-.242-.223.017-.436.014-.654" transform="translate(-78.135 -200.832)" fill="#ffcb57"/><path d="M193.577,472.144a.552.552,0,0,1,.5.289l.01.06c-.184-.1-.531.043-.515-.349" transform="translate(-177.904 -433.915)" fill="#ffcb57"/><path d="M310.2,266.34a1.128,1.128,0,0,1,.5.664.806.806,0,0,1-.5-.664" transform="translate(-285.085 -244.776)" fill="#ffcb57"/><path d="M47.863,173.978l.537-.147.14.016c-.205.147-.4.37-.676.132" transform="translate(-43.988 -159.757)" fill="#ffcb57"/><path d="M214.366,94.577c-.352.25-.4,0-.431-.264.221-.039.286.178.431.264" transform="translate(-196.614 -86.673)" fill="#ffcb57"/><path d="M289.7,191.423q0,.123,0,.245c-.192.042-.384.079-.527-.112l.4-.136.133,0" transform="translate(-265.753 -175.923)" fill="#ffcb57"/><path d="M166.183,163.973a.58.58,0,0,1,.132.631l-.282-.6.024-.046a.09.09,0,0,1,.127.014" transform="translate(-152.59 -150.667)" fill="#ffcb57"/><path d="M102.473,259.978l.116.518-.265.123.149-.641" transform="translate(-94.04 -238.929)" fill="#ffcb57"/><path d="M264.322,221.964h-.381l-.123-.263.508.132,0,.131" transform="translate(-242.458 -203.751)" fill="#ffcb57"/><path d="M234.792,135.94c-.222-.2-.232-.349.111-.4.013.146.035.294-.111.4" transform="translate(-215.637 -124.571)" fill="#ffcb57"/><path d="M78.979,443.289q0,.26,0,.521c-.287-.173-.3-.347,0-.521" transform="translate(-72.383 -407.399)" fill="#ffcb57"/><path d="M12.339,153.712l-.129.274c-.068-.1-.213-.226-.188-.278.076-.162.207-.018.317,0" transform="translate(-11.046 -141.193)" fill="#ffcb57"/><path d="M430.612,245.539a.436.436,0,0,1-.641-.026l.641.026" transform="translate(-395.159 -225.635)" fill="#ffcb57"/><path d="M275.707,452.61c-.111-.015-.229-.042-.186-.185.037-.123.127-.166.228-.04l-.042.225" transform="translate(-253.206 -415.689)" fill="#ffcb57"/><path d="M168.084,35.771a.477.477,0,0,1-.261-.515.645.645,0,0,1,.261.515" transform="translate(-154.233 -32.402)" fill="#ffcb57"/><path d="M238.7,190.807c-.168.081-.329.133-.42-.1.186-.154.313-.068.42.1" transform="translate(-218.989 -175.191)" fill="#ffcb57"/><path d="M110.506,324.1a.38.38,0,0,1,.243-.4c.017.192.007.368-.243.4" transform="translate(-101.559 -297.492)" fill="#ffcb57"/><path d="M63.008,149.79c.05.15.235.35.037.445-.329.158-.63-.1-.941-.186-.08-.17.017-.281.129-.387.26.018.4-.083.394-.362,0-.148.023-.342.249-.146a.5.5,0,0,0,.133.636" transform="translate(-57.048 -137.002)" fill="#ffcb57"/><path d="M56.7,150.992l-.129.387c-.19-.106-.423-.156-.516-.389.09-.085.1-.17,0-.255.529-.7.285.537.646.257" transform="translate(-51.515 -138.331)" fill="#ffcb57"/><path d="M43.037,157.534c-.117-.38-.411-.722-.259-1.162.575.279.133.783.259,1.162" transform="translate(-39.276 -143.712)" fill="#ffcb57"/><path d="M34.2,118.945l-.516-.129c.022-.21.109-.4.345-.351.256.054.145.306.171.48" transform="translate(-30.955 -108.866)" fill="#ffcb57"/><path d="M21.494,127.68c-.012.162.034.356-.177.421-.042.013-.151-.074-.173-.135-.066-.188.047-.267.221-.286h.129" transform="translate(-19.415 -117.343)" fill="#ffcb57"/><path d="M90.086,125.7a1.4,1.4,0,0,1-.212-.293c-.038-.115.026-.226.154-.184.077.025.142.142.172.23.016.048-.054.124-.114.247" transform="translate(-82.587 -115.081)" fill="#ffcb57"/><path d="M70.419,150.731c-.4-.138-.305-.379-.133-.636q0,.06.006.121l.126.515" transform="translate(-64.459 -137.943)" fill="#ffcb57"/><path d="M56.053,152.676c.087-.018.209-.116.238.045s-.107.2-.237.21q0-.128,0-.255" transform="translate(-51.515 -140.273)" fill="#ffcb57"/><path d="M133.8,323.681q0-.064,0-.128c.105-.276.6-.222.541-.638a.438.438,0,0,1,.106-.137h.129c.491.282.173,1.029.733,1.271.21.091.425.261.6-.063a.46.46,0,0,0-.173-.667.85.85,0,0,1-.443-.651c-.029-.152-.1-.331.1-.37a1.079,1.079,0,0,1,.62.036c.172.08.13.257-.013.421-.208.238.071.569.135.642.441.515.457.908-.142,1.285-.042.026,0,.19.008.29-.076.268-.137.551-.517.517-.209-.711-.533-1.282-1.424-1.162-.07-.222-.435-.326-.259-.645" transform="translate(-122.919 -296.178)" fill="#ffcb57"/><path d="M155.873,353.242c-.2.644-.268,1.387-1.178,1.478-.049,0-.077.214-.115.329-.4-.44-.794-.884-.517-1.549.455.126.314-.49.646-.516.2-.005.386.009.324-.306-.046-.23.256-.241.278-.172.206.619.6.3.95.22l-.388.516" transform="translate(-141.504 -323.932)" fill="#ffcb57"/><path d="M155.761,355.9c-.114.3.129,1.042-.646.516q0-.129,0-.257l.517-.517.129.258" transform="translate(-142.556 -326.847)" fill="#ffcb57"/><path d="M160.585,303.434c-.186-.068-.33.289-.484.082-.063-.085.06-.307.1-.467.25.007.294.22.386.385" transform="translate(-147.123 -278.513)" fill="#ffcb57"/><path d="M217.615,210.622c.334.016.482.249.652.435.31.339,0,.64-.093.949-.159.546-.066,1.287-.971,1.277a.737.737,0,0,1-.605-.311c-.2-.266.167-.287.21-.438.125-.439.006-.911.215-1.355a.879.879,0,0,1,.592-.556" transform="translate(-199.006 -193.569)" fill="#ffcb57"/><path d="M219.623,246.158a1.427,1.427,0,0,0-.39,1.016c-.194-.163-.586.015-.648-.375q-.045-.044-.027-.084c.012-.026.023-.039.034-.039-.013-.453.585-.153.643-.519a.274.274,0,0,1,0-.383c-.214-.22-.275-.072-.413.115-.366.5-.821.752-1.4.269.1-.568.088-.531.641-.319.313.119.507-.253.768-.37.177-.079.062-.565.373-.321.174.136.769.225.34.716-.038.043.049.194.078.3" transform="translate(-199.821 -225.237)" fill="#ffcb57"/><path d="M203.272,223.775c-.907-.434.032-1.073-.157-1.6-.02-.055.392-.1.372.087-.061.568.4,1.069.173,1.641-.175.093-.256-.095-.388-.129" transform="translate(-186.446 -204.145)" fill="#ffcb57"/><path d="M201.939,246.024c-.051-.08-.087-.21-.156-.23-.165-.05-.2.093-.227.222l-.127-.258c.156-.19.609-.084.52-.518.177-.1.277.032.387.131-.225.39.142.611.259.9-.093.166-.139.379-.389.388l-.267-.638Z" transform="translate(-185.12 -225.352)" fill="#ffcb57"/><path d="M196.917,241.59l-.259-.386c.045-.263.205-.327.388-.155.232.219.107.406-.129.541" transform="translate(-180.736 -221.444)" fill="#ffcb57"/><path d="M209.43,212.424c.016-.255.2-.261.388-.258-.009.266-.028.518-.388.258" transform="translate(-192.474 -194.988)" fill="#ffcb57"/><path d="M208.22,241.84l-.387-.131v-.257c.227-.25.252.106.388.129q0,.129,0,.258" transform="translate(-191.005 -221.822)" fill="#ffcb57"/><path d="M261.236,436.95c.218.454-.679.8-.122,1.288-1.139-.044-.8-.677-.518-1.291.213.173.427.027.64,0" transform="translate(-239.242 -401.57)" fill="#ffcb57"/><path d="M244.487,463.278c-.027.033-.068.133-.118.137a.283.283,0,0,1-.3-.254c-.009-.042.095-.148.153-.154.143-.014.222.087.264.271" transform="translate(-224.308 -425.519)" fill="#ffcb57"/><path d="M378.365,338.655c.264-.33.961.2,1.031-.518.168.026.424-.081.386.255-.191.325.176.428.258.645,0,.382-.4.421-.553.636a1.157,1.157,0,0,0,.008,1.392.754.754,0,0,1,.029.941c-.345.3-.691-.285-1.036,0a1.363,1.363,0,0,1,.365-2.041c.077-.048.25-.021.155-.189a.3.3,0,0,0-.195-.143c-.456-.023-.456-.017-.454-.6,0-.128,0-.255.005-.383" transform="translate(-347.561 -310.76)" fill="#ffcb57"/><path d="M404.366,337.941a.747.747,0,0,1,.989.063c.131.127.2.156.375.063.564-.306.807-.055.834.52-.126-.05-.219-.336-.343-.184-.717.88-1.026-.029-1.457-.323a.685.685,0,0,0-.4-.139" transform="translate(-371.627 -310.437)" fill="#ffcb57"/><path d="M396.752,341.937c-.41-.086-.495-.3-.258-.645.034.327.22.2.388.129l-.13.515" transform="translate(-364.273 -313.66)" fill="#ffcb57"/><path d="M39.479,332.888a.508.508,0,0,0-.12-.04c-.366-.028-.038.857-.572.487a1.347,1.347,0,0,1-.474-1.293,2.973,2.973,0,0,0,0-.316c.448.043.9.093,1.344.125a.483.483,0,0,1,.467.263c-.529,0-.895.131-.647.775" transform="translate(-35.2 -304.868)" fill="#ffcb57"/><path d="M51.236,299.8c.259-.042.519.2.778,0q0,.065,0,.129l-.236.542-.542-.671" transform="translate(-47.088 -275.52)" fill="#ffcb57"/><path d="M90.251,350.554c-.216.445-.431-.047-.647,0,.091-.66.44-.041.646-.13q0,.065,0,.13" transform="translate(-82.349 -321.889)" fill="#ffcb57"/><path d="M20.853,217.394c.159-.326.394-.273.646-.129,0,.268-.457.348-.285.694.011.022-.113.153-.137.143-.349-.144-.18-.46-.224-.708" transform="translate(-19.162 -199.571)" fill="#ffcb57"/><path d="M20.906,244.226c.07-.1.179-.2.2-.306.035-.177-.249-.313-.094-.52a.294.294,0,0,1,.15.077c.166.2.333.4.173.692a.917.917,0,0,0-.044.316c-.25.094-.276-.145-.387-.258" transform="translate(-19.213 -223.692)" fill="#ffcb57"/><path d="M1.962,235.251l-.122-.266.12-.513c.147.259.415.518,0,.779" transform="translate(-1.691 -215.488)" fill="#ffcb57"/><path d="M20.841,253.617l.387.258c-.063.107-.132.254-.274.19-.194-.088-.085-.294-.113-.447" transform="translate(-19.149 -233.083)" fill="#ffcb57"/><path d="M3.564,249.32a.458.458,0,0,1-.257-.519.467.467,0,0,1,.257.519" transform="translate(-3.037 -228.657)" fill="#ffcb57"/><path d="M288.116,135.4a.93.93,0,0,1-.035-.272.572.572,0,0,1,.414-.43c.021-.005.092.084.087.091-.132.183-.272.36-.466.611" transform="translate(-264.753 -123.796)" fill="#ffcb57"/><path d="M421.679,149.307a.559.559,0,0,1,.016.649l-.009-.009c-.107.25.051.541-.122.781h0c-.461.016-.348.391-.427.658-.1.342-.237.675-.358,1.012a1.051,1.051,0,0,1-.777.512c-.138-.184-.365,0-.516-.125-.152-.265-.019-.6-.212-.855a.515.515,0,0,1,.007-.17.42.42,0,0,1,.206-.265l.388.129c.043.087.086.069.129,0,.454-.258.9-.493,1.062-1.076a.661.661,0,0,0-.243-.819c-.268-.193.02-.239.068-.342s.177-.181.054-.268c-.057-.04-.193.031-.293.052.011-.344.58-.245.517-.647q-.067-.042-.045-.085c.015-.028.029-.042.044-.042.319.045.486.212.3.514s.094.291.213.395" transform="translate(-385.325 -136.383)" fill="#ffcb57"/><path d="M398.319,174.849c.163.329.373.652.129,1.032-.258-.117-.877.317-.721-.484.014-.074-.211.311-.443.226l-.129-.129c-.493,0-.672-.315-.678-.739-.005-.36-.067-.71-.1-1.066.474-.363.948,0,1.422,0-.1.223.141.321.182.492.169.194.149.483.337.667" transform="translate(-364.287 -159.478)" fill="#ffcb57"/><path d="M391.958,175.529c.212.134.379.23.289.579a.926.926,0,0,0,.488,1.226c-.24.136.045.674-.182.544a2.235,2.235,0,0,1-.775-1.049,4.942,4.942,0,0,1-.21-1.177l.389-.123" transform="translate(-359.866 -161.318)" fill="#ffcb57"/><path d="M413.235,150.719c.165-.01.21.077.185.2a1.188,1.188,0,0,1-.7.779c-.1.052-.179.018-.154-.1a1.533,1.533,0,0,1,.672-.878" transform="translate(-379.156 -138.515)" fill="#ffcb57"/><path d="M388.395,154.68l-.007-.138c.389-.369.159-.858.249-1.285.769.618.225,1.014-.242,1.423" transform="translate(-356.943 -140.849)" fill="#ffcb57"/><path d="M405.969,140.835l1.165-.386-.131.257c-.08.093-.122.224-.259.259-.294.17-.587.331-.775-.13" transform="translate(-373.1 -129.078)" fill="#ffcb57"/><path d="M414.466,178.154c-.077.066-.154.186-.233.187-.164,0-.111-.135-.072-.223.12-.273-.126-.411-.213-.607.093-.112-.028-.295.128-.386l.132.127a.8.8,0,0,1,.258.9Z" transform="translate(-380.433 -162.783)" fill="#ffcb57"/><path d="M417.412,179.593l-.258-.9c.424.039.386.354.388.645l-.13.258" transform="translate(-383.38 -164.222)" fill="#ffcb57"/><path d="M421.943,138.968l.258-.13c.108.063.267.14.139.276-.2.218-.26-.1-.4-.146" transform="translate(-387.781 -127.597)" fill="#ffcb57"/><path d="M415.543,143.881a.243.243,0,0,1,.259-.259c.015.109.081.256.034.318-.088.118-.21.043-.293-.059" transform="translate(-381.899 -131.994)" fill="#ffcb57"/><path d="M426.231,188.257c.107.085.164.187.062.3a.17.17,0,0,1-.159.011c-.151-.084-.069-.2-.032-.315h.129" transform="translate(-391.552 -173.015)" fill="#ffcb57"/><path d="M412.713,175.665l-.128.386c-.067-.172-.233-.343,0-.515l.128.129" transform="translate(-379.071 -161.324)" fill="#ffcb57"/><path d="M326.22,73.962c-.158.226-.1.624-.516.644-.606-.129-1.218-.213-1.572-.847-.185-.332-.468-.6-.652.051-.088.313-.221.2-.383.007a1.588,1.588,0,0,1-.24-1.149c.4.259.777.357,1.1-.14.073-.114-.121-.414.212-.342.2.043.241.222.24.4a.452.452,0,0,0,.261.467c.346.285,0,1.1.837,1.042.255-.017.416-.477.716-.136" transform="translate(-296.714 -66.333)" fill="#ffcb57"/><path d="M359.821,45l1.026.627v.259c-.639-.44-1.2-.63-1.726.222-.1.166-.47-.226-.548-.5a1.258,1.258,0,0,1,.075-.5c.373-.221.854.677,1.173-.112" transform="translate(-329.532 -41.353)" fill="#ffcb57"/><path d="M344.655,46.381l.259.258-.259.129h0c-.167-.087-.265-.2-.129-.386h.129" transform="translate(-316.573 -42.626)" fill="#ffcb57"/><path d="M251.493,9.209c.023-.382.02-.773.385-1.027L252.67,9.2h0c.277.177.406.381.118.659a2.961,2.961,0,0,1-1.295,1.936c-.025-.351-.28-.352-.547-.4-.411-.077-.467-.374-.317-.718.025-.059.137-.085.214-.111a.221.221,0,0,1,.072.136c-.031.141-.272.341.033.389a.541.541,0,0,0,.531-.385c.124-.322.187-.681.674-.47a.151.151,0,0,0,.119-.032c.125-.093.017-.265-.01-.253-.882.4.36-1.415-.77-.736" transform="translate(-230.268 -7.52)" fill="#ffcb57"/><path d="M409.327,271.06l.117-.139a1.6,1.6,0,0,1,1.423-.388l.515.519s0,0,0,0c.172.11.234.448.481.357.628-.232.562.171.556.545-.583.329-1.206.105-1.811.129h-.129c-.1-.057-.205-.112-.13-.257-.408-.393-.356.36-.647.258a1.541,1.541,0,0,1-.374-1.023" transform="translate(-376.187 -248.581)" fill="#ffcb57"/><path d="M412.19,265.3l-1.423.388c.008-.084,0-.239.026-.243.709-.122.238-.417.1-.661a2.052,2.052,0,0,1,1.295.515" transform="translate(-377.51 -243.344)" fill="#ffcb57"/><path d="M436.842,248.829l-.166.288c-.024-.026-.066-.05-.068-.077-.012-.166.109-.193.235-.21Z" transform="translate(-401.258 -228.683)" fill="#ffcb57"/><path d="M246.807,314.194l.259.774c.132.133.362.2.361.424,0,.505.369.687.73.885.174.114.219.31.312.476a.312.312,0,0,0,.361.2.4.4,0,0,0,.31-.367c.02-.163.1-.459-.056-.461-.448-.009-.662-.51-1.111-.458-.415-.332-.43-.47,0-.621.319-.112.577-.476.983-.292.466.649,1.041,1.216,1.473,1.893a.242.242,0,0,1-.258.258c-.27.1-.151.341-.194.529-.058.257-.157.547-.5.272-.235-.191-.329.021-.476.1a3.261,3.261,0,0,1-1.523-1.344.637.637,0,0,0-.515-.332c-.488-.106-.873-.31-.941-.882-.072-.611.278-.882.78-1.056" transform="translate(-226.1 -288.756)" fill="#ffcb57"/><path d="M281.892,347.524c-.015-.226.032-.452.252-.535.254-.1.219.172.3.3.033.055.117.079.177.117.041-.157.171-.377.11-.462-.607-.856.357-.085.329-.323.043.239-.044.665.424.31.155-.118.26-.416.5-.179.224.218.014.434-.1.628-.147.256-.415.243-.665.3-.167.039-.425.2-.43.313-.008.217.239.148.4.162.429.037.312.4.371.652-.4-.021-.713-.438-1.158-.251-.633-.115-.707-.508-.518-1.033" transform="translate(-258.985 -318.472)" fill="#ffcb57"/><path d="M258.1,348a.685.685,0,0,1,.359.668c0,.184-.148.409-.284.366-.44-.138-.015-.619-.286-.874-.079-.074.06-.171.212-.16" transform="translate(-236.99 -319.819)" fill="#ffcb57"/><path d="M263.675,366.06l-.289-.073c.037-.045.069-.124.112-.13.146-.021.162.1.176.2Z" transform="translate(-242.061 -336.234)" fill="#ffcb57"/><path d="M277.9,301.3c-.234-.191-.986.039-.557-.707.084-.147-.18-.227-.312-.237-.582-.045-.594-.433-.554-.863-.157-.228-.745-.111-.517-.645.537.123.432-.569.834-.679.072-.02-.33-.166-.45-.326a1.309,1.309,0,0,1-.124-.285c.491.042,1.088-.431,1.17.713a9.786,9.786,0,0,1,.116,2.134c-.032.226.059.44.379.323.279-.1.436.093.6.254.081.077.314.072.22.234-.084.144-.276.1-.386-.026-.232-.272-.4-.384-.422.112" transform="translate(-253.565 -273.411)" fill="#ffcb57"/><path d="M302.64,311.036c.113.379.328.747.129,1.161a.391.391,0,0,1-.259.259c-.877-.311-.617-1.162-.806-1.784-.039-.127.286-.52.594-.471.261.042.229.32.168.537-.045.162.053.235.173.3" transform="translate(-277.275 -285.081)" fill="#ffcb57"/><path d="M311.69,335.169a.242.242,0,0,1,.259-.259l.518.259c-.255.2-.484.384-.291.773a.376.376,0,0,1-.228.516,1.739,1.739,0,0,0-.259-1.289" transform="translate(-286.455 -307.795)" fill="#ffcb57"/><path d="M120.5,31.051c-.232.087-.5.241-.479.469.053.672-.618.59-.913.861s-.352-.236-.315-.446c.043-.241.144-.45-.105-.626a.6.6,0,0,1-.2-.242c-.051-.123-.087-.3,0-.362.39-.265.166-.83.549-1.076a.467.467,0,0,1,.583.087c.149.122.167.35.361.431.905-.688,1.137-.552,1.552.9-.029.774-.377.591-.776.258a3.007,3.007,0,0,1-.258-.258" transform="translate(-108.848 -27.166)" fill="#ffcb57"/><path d="M112.568,19.625c-.371.044-.51-.872-.858-.346-.258.39-.722.889-.436,1.507q0,.065,0,.129l-.388-.129c-.241-.228-.1-.511-.116-.773-.023-.315.108-.7-.329-.857l-.072-.048c0-.324.41-.486.337-.862-.021-.108.235-.2.3-.081.366.66,1.288.715,1.563,1.459" transform="translate(-101.432 -16.645)" fill="#ffcb57"/><path d="M97.661,29.5c-.405.274-.613.175-.614-.321,0-.569-.576-1.157.12-1.709.261-.207-.194-.426-.152-.68.381-.193.546.37.9.257h0c.243.3.1.512-.17.681-.282.179-.269.4-.026.558.53.34.456.649.012.982a.245.245,0,0,0-.074.231" transform="translate(-88.984 -24.587)" fill="#ffcb57"/><path d="M143.918,19c.166-.088.181-.415.5-.271.446.2.079.528.151.784-.231-.153-.636-.087-.651-.513" transform="translate(-132.266 -17.178)" fill="#ffcb57"/><path d="M131.354,63.868,130.19,64c.311-.829-.253-.566-.647-.516.181-.745.99-.724,1.423-1.162.408.447-.3,1.173.388,1.549" transform="translate(-119.055 -57.273)" fill="#ffcb57"/><path d="M112.994,68.441l-.333-.521c.05-.022.122-.078.148-.062a.773.773,0,0,1,.444.58l0,0a.174.174,0,0,1-.257,0" transform="translate(-103.54 -62.362)" fill="#ffcb57"/><path d="M124.463,75.438c-.174.093-.264.18-.343.171a.271.271,0,0,1-.184-.19c-.007-.143.127-.134.227-.111a2.137,2.137,0,0,1,.3.13" transform="translate(-113.901 -69.198)" fill="#ffcb57"/><path d="M116.77,75.086h.257c-.02.2.084.467-.255.512q0-.256,0-.512" transform="translate(-107.316 -69.007)" fill="#ffcb57"/><path d="M143.933,47.978a.241.241,0,0,1,.258.258l-.195.136-.063-.394" transform="translate(-132.28 -44.094)" fill="#ffcb57"/><path d="M276.22,173.5c-.037.1,0,.363-.121.265-.6-.491-.547.068-.66.373-.4-.023-.4-.312-.382-.592.011-.205.081-.414-.134-.561.282-.259.511-.38.667.133.081.266.367.339.63.383" transform="translate(-252.665 -158.776)" fill="#ffcb57"/><path d="M217.46,27.763q0-.259-.006-.518c.3.169.3.342.006.518" transform="translate(-199.848 -25.039)" fill="#ffcb57"/><path d="M52.7,349.51l-.3-.148.167-.112.129.26" transform="translate(-48.162 -320.974)" fill="#ffcb57"/><path d="M16.335,130.82a2.764,2.764,0,0,1-.258-1.549,3.268,3.268,0,0,1,.258,1.549" transform="translate(-14.773 -118.805)" fill="#ffcb57"/><path d="M36.544,144.657c-.094-.113-.183-.175-.177-.225s.1-.108.161-.14c.016-.008.106.071.107.111a.889.889,0,0,1-.091.255" transform="translate(-33.422 -132.609)" fill="#ffcb57"/><path d="M27.36,148.81a.68.68,0,0,1,.2-.078c.021,0,.058.079.059.123,0,.022-.068.069-.1.063-.047-.01-.086-.054-.161-.108" transform="translate(-25.145 -136.69)" fill="#ffcb57"/><path d="M318.41,410.265l.136.124c.025.4.111.749.646.648a1.182,1.182,0,0,1-.386.77,4.507,4.507,0,0,0-1.046.077c-.358.068-.389.229-.153.46a.817.817,0,0,1,.186.932c-.049.115-.1.222-.25.232a.769.769,0,0,0-.334-.167c-.178-.047-.193-.319-.418-.284-.015,0-.029.032-.023.056.062.288.335.184.507.267a1.075,1.075,0,0,1,.28.136c.192.446.257.971.761,1.226a.139.139,0,0,1-.024.163h0c-.3.229-.573-.053-.658-.185-.479-.744-.5-.115-.638.184a2.139,2.139,0,0,1-1.293,0c0-.043,0-.086,0-.129q0-.258,0-.516a.341.341,0,0,1,.229-.1c.082,0,.209.037.236-.028s-.078-.137-.148-.184c-.195-.131-.543-.095-.522-.462.035-.607-.465-1.275.2-1.812-.143-.479-.412-.943.013-1.438.18-.21.323-.395.622-.358a3.828,3.828,0,0,0,.055.425.871.871,0,0,0,.661.6c.3.053.188-.346.192-.551,0-.226.147-.339.272-.477l.894.391" transform="translate(-289.819 -376.689)" fill="#ffcb57"/><path d="M312.344,432.145c-.373.593.075,1.224-.087,1.843-.074.283.244.077.37.124.322.119.368.468.542.712l-.823-.1c-.241-.373-.2-.9-.647-1.163h0c.118-.518-.164-1.216.646-1.42" transform="translate(-286.462 -397.157)" fill="#ffcb57"/><path d="M311.69,459.2l.136-.708c.084.085.2.156.247.258C312.257,459.152,312.1,459.29,311.69,459.2Z" transform="translate(-286.455 -421.372)" fill="#ffcb57"/><path d="M306.3,448.767c-.044.261-.205.3-.414.2a.221.221,0,0,1-.051-.209c.148-.182.306.047.465.01Z" transform="translate(-281.068 -412.359)" fill="#ffcb57"/><path d="M106.141,407.715a3.7,3.7,0,0,1-.646,1.42c-.258.152.133.963-.713.6-.438-.19-.343-.223-.118-.437.1-.1.192-.184.062-.313-.1-.1-.263-.142-.338-.017-.239.4-.867.572-.707,1.2l-.386,0c-.224.169-.41.069-.562-.1a6.1,6.1,0,0,1-.648-1.378c-.083-.161.068-.329.3-.2.349-.552-.177-.945-.259-1.419a3.2,3.2,0,0,0-.155-.465c-.062-.123-.24-.206-.091-.376.1-.116.225-.221.386-.163.506.184.824-.128,1.154-.416.435-.273.692.164,1.035.258-.022.257.127.175.258.129.568.289,1.168.543,1.038,1.371-.04.255.167.315.386.306" transform="translate(-93.583 -372.726)" fill="#ffcb57"/><path d="M91.592,434.284l-.175.067c.462.469.186,1.432,1.081,1.612-.116.267-.3.233-.528.145-.276-.108-.553-.226-.811.078-.134.159-.385.124-.373-.087.046-.793-.357.013-.474-.147a.348.348,0,0,0-.145-.528c-.128-.085-.124-.225.061-.264.515-.108.516-.1.33-.617.26-.168.14-.452.217-.659a.4.4,0,0,1,.688-.115c-.031.043-.118.087,0,.127l.128.388" transform="translate(-82.786 -398.521)" fill="#ffcb57"/><path d="M90.27,433.194v-.646a.271.271,0,0,1,0-.387c.318.273.025.776.389,1.033l-.259.13c-.115.029-.166-.006-.129-.129" transform="translate(-82.887 -397.172)" fill="#ffcb57"/><path d="M101.355,423.247c-.031.167.065.421-.236.4-.054,0-.146-.205-.135-.306.033-.3.223-.148.371-.1" transform="translate(-92.808 -388.903)" fill="#ffcb57"/><path d="M102.363,435.487c-.021.172-.1.287-.288.221-.061-.021-.149-.13-.136-.172.065-.211.259-.166.422-.176q0,.064,0,.127" transform="translate(-93.684 -400.112)" fill="#ffcb57"/><path d="M88.033,429.239q0,.193,0,.387H87.9l0,0a.543.543,0,0,1-.128-.516l.129-.127.13.257" transform="translate(-80.65 -394.25)" fill="#ffcb57"/><path d="M342.215,46.384l.129.386c-.1.061-.243.2-.28.171-.2-.138-.071-.368-.108-.558h.259" transform="translate(-314.262 -42.628)" fill="#ffcb57"/><path d="M117.4,256.808l-.648.258c.273.056.088-1.031.648-.258" transform="translate(-107.303 -235.759)" fill="#ffcb57"/><path d="M267.656,49.7c.139,0,.276.02.282.187a.283.283,0,0,1-.276.3c-.159.021-.32.009-.31-.21.009-.179.143-.249.3-.276" transform="translate(-245.706 -45.673)" fill="#ffcb57"/><path d="M102.615,250.359l-.122-.276c.037-.1.125-.226.2-.141a.273.273,0,0,1-.079.417" transform="translate(-94.195 -229.68)" fill="#ffcb57"/><path d="M189,373.294c-.245.023-.391-.054-.388-.334,0-.211.085-.251.262-.177l.126.511" transform="translate(-173.344 -342.569)" fill="#ffcb57"/><path d="M192.117,363.517l-.259-.129c.033-.151.032-.385.268-.27.164.08.155.268-.009.4" transform="translate(-176.325 -333.691)" fill="#ffcb57"/><path d="M132.876,339.7c-.049.269.57.271.259.645l-.377-.115c0-.185-.066-.385.118-.53" transform="translate(-122 -312.196)" fill="#ffcb57"/><path d="M102.254,30.8c-.105-.059-.266-.094-.305-.182-.08-.183.109-.166.219-.213.339-.147.707-.248.1-.612-.363-.216-.8-.627.033-.9.271-.089.207-.338.216-.545.338-.265.489-.293.542.243.048.488-.041.957-.024,1.435a.982.982,0,0,1-.776.774" transform="translate(-93.576 -25.882)" fill="#ffcb57"/><path d="M425.138,287.408c.02-.139.111-.3.231-.241.519.254,1.063-.025,1.58.112-.1.13-.321.259,0,.388-.209.381-.942.369-.778,1.03-.75-.106-.642-.9-1.034-1.289" transform="translate(-390.717 -263.906)" fill="#ffcb57"/><path d="M332.927,89.689c.059.068.12.107.122.15s-.046.1-.072.151c-.042-.035-.11-.064-.12-.106s.034-.1.069-.195" transform="translate(-305.907 -82.427)" fill="#ffcb57"/><path d="M351.911,105.359c0,.185,0,.371-.256.384-.007-.19,0-.368.256-.384" transform="translate(-323.183 -96.829)" fill="#ffcb57"/><path d="M312.6,216.944q.064,0,.129.007c-.158.811.768.632,1,1.087.465-.53.988.326,1.459-.06.083.139.369.416.1.416-.937,0-.547.953-.515,1,.441.656-.088.843-.46,1.134a1.675,1.675,0,0,0-.286.416l-.259.129a.574.574,0,0,1-.255.163c-.261.025-.529.184-.779-.034q0-.064,0-.128c-.031-.408-.273-.791.017-1.235.15-.229-.225-.326-.4-.445-1.372,0-1.481-.125-1.264-1.228.107-.544.594-.517.886-.576a.688.688,0,0,0,.636-.648" transform="translate(-285.812 -199.38)" fill="#ffcb57"/><path d="M313.9,246.454c.367-.2.564.08.708.311s-.079.272-.243.414c-.2.176.215.637-.078.954-.188-.076-.263-.382-.6-.129-.277.2-.521-.135-.689-.388-.176-.346-.717-.815.261-.776a.268.268,0,0,1,.386,0c.257-.016.261-.2.259-.388" transform="translate(-287.368 -226.438)" fill="#ffcb57"/><path d="M319.644,249.054l-.386,0c-.1-.209,0-.258.194-.259s.288.057.192.261" transform="translate(-293.373 -228.65)" fill="#ffcb57"/><path d="M260.389,306.286c-.106.438.578.244.517.645-.44-.074-.76.242-1.085.418-.4.219.217.177.179.356a.528.528,0,0,1,0,.774c-.867-.095-.775-.885-1.035-1.42.34.06.6-.361.97-.157.019.011.131-.093.127-.1-.051-.084-.1-.2-.179-.231-.322-.11-.333-.318-.174-.547a3.3,3.3,0,0,1,.436-.437l.243.7" transform="translate(-237.999 -280.848)" fill="#ffcb57"/><path d="M130.863,409.972c-.1.145-.164.37-.409.275a.324.324,0,0,1-.178-.235c0-.223.2-.146.329-.169l.258.129" transform="translate(-119.729 -376.661)" fill="#ffcb57"/><path d="M156.7,100.377l.13-.775c.7.094.745-.461.906-.9.131.168.259.337.392.5.113.141.34.184.332,0a1.427,1.427,0,0,1,1.24-1.641c.045-.01.071-.1.106-.155.415.211,1.059.175.986.916,0,.049.094.108.144.162a1.073,1.073,0,0,1,.151-.195c.176-.144-.344-.532.127-.493.353.029.974-.372,1.04.428.006.074.09.142.137.213-.525.56.3,1.028.112,1.57-.021.062.154.193-.068.182a.551.551,0,0,1-.174-.075c-.238.011-.21-.111-.129-.258a.533.533,0,0,0-.145.891c.683.728.1.64-.372.657l-.387-.128a.445.445,0,0,0-.167.331c0,.418-.275.507-.608.433a1.163,1.163,0,0,0-.92.1.45.45,0,0,1-.7-.213c-.223-.942-1.088-.879-1.72-1.172-.153-.071-.326-.086-.415-.254q0-.064,0-.128" transform="translate(-144.009 -89.522)" fill="#ffcb57"/><path d="M50.765,356.6c-.022.133-.06.264-.23.227a.207.207,0,0,1-.093-.179c.072-.167.2-.09.323-.048h0" transform="translate(-46.355 -327.679)" fill="#ffcb57"/><path d="M229.163,262.518c0,.041-.005.082-.007.123-.129-.019-.255-.05-.226-.219.007-.041.078-.07.12-.1l.112.2" transform="translate(-210.392 -241.08)" fill="#ffcb57"/><path d="M237.155,253.658q0,.192,0,.383c-.129-.019-.268-.057-.223-.218.019-.07.144-.111.221-.165" transform="translate(-217.743 -233.121)" fill="#ffcb57"/><path d="M332.466,268.093l.776-.129a1.159,1.159,0,0,1,.388.387l-.387.13c-.28-.022-.654.237-.776-.259,0-.043,0-.086,0-.129" transform="translate(-305.548 -246.269)" fill="#ffcb57"/><path d="M332.47,271.152c.174.34.586-.034.776.259-.339.154-.7.366-.776-.259" transform="translate(-305.552 -249.199)" fill="#ffcb57"/><path d="M342.44,268.347l-.388-.387h.258l.129.387" transform="translate(-314.358 -246.265)" fill="#ffcb57"/><path d="M229.279,116.48a1.4,1.4,0,0,1-.26,1.42c.09-.351-.133-.614-.258-.9.2-.207.009-.288-.128-.385.181-.212.428-.1.646-.131" transform="translate(-210.122 -107.047)" fill="#ffcb57"/><path d="M228.634,118.134c.138.013.313-.034.353.161.034.163-.1.2-.225.224l-.128-.385" transform="translate(-210.123 -108.569)" fill="#ffcb57"/><path d="M222.258,127.686l.129.258c-.022.1-.061.259-.174.168-.148-.118-.105-.3.045-.427" transform="translate(-204.138 -117.348)" fill="#ffcb57"/><path d="M443.37,299.261l-.258.129a.258.258,0,0,1-.247-.137l-.141-.388c.694-.645.376.352.646.4" transform="translate(-406.88 -274.469)" fill="#ffcb57"/><path d="M276.618,17.069c.011-.115-.06-.26.1-.32.027-.01.115.054.124.094.035.171-.088.208-.222.226h0" transform="translate(-254.216 -15.392)" fill="#ffcb57"/><path d="M156.708,135.583c.6-.067,1.033.45,1.641.424.3-.013.423.318.495.648.085.389.309.745.79.329.065-.056.162-.172.191-.157.637.329,1.037-.026,1.411-.469.2.3.257.574-.13.774-.547.222-.086.89-.516,1.163-.152-.247-.3-.5-.458-.741-.077-.119-.314-.168-.315-.124-.007.943-1.1.245-1.3.863-.028-.188-.048-.378-.087-.564-.055-.259-.16-.566-.441-.561-.371.007.135.346-.113.475a1.236,1.236,0,0,0-.264.263.886.886,0,0,1-.127-.013,6.311,6.311,0,0,1-.778-2.311" transform="translate(-144.02 -124.6)" fill="#ffcb57"/><path d="M319.114,323.193c-.481-.57.063-.76.383-1.033q0,.065,0,.129a.574.574,0,0,0-.126.516h0c.075.236-.168.261-.259.387" transform="translate(-293.102 -296.077)" fill="#ffcb57"/><path d="M321.276,330.524l.259-.387c.219.337-.161.434-.258.645v-.258" transform="translate(-295.264 -303.408)" fill="#ffcb57"/><path d="M321.74,343.036c-.18-.019-.285-.1-.214-.293.017-.047.088-.075.134-.112l.082.4v0" transform="translate(-295.474 -314.89)" fill="#ffcb57"/><path d="M323.083,324.274c-.245-.242-.079-.384.126-.516l-.126.516" transform="translate(-296.813 -297.545)" fill="#ffcb57"/><path d="M126.383,454.9c.006-.249.215-.294.385-.379.025.282-.092.418-.385.379" transform="translate(-116.151 -417.722)" fill="#ffcb57"/><path d="M338.332,430.633c.108-.35.152-.66-.295-.836a.345.345,0,0,1-.153-.441c.132-.474.64-.056.83-.368.162-.265.235-.242.6.164.037.041.118.042.178.061a1.215,1.215,0,0,1-.129,1.807.375.375,0,0,1-.524-.208c-.118-.3-.345-.118-.51-.18" transform="translate(-310.509 -394.095)" fill="#ffcb57"/><path d="M342.181,445.891c.179.118.54-1.181.593.077,0,.109.287.207.441.31l.124.367-.257.406c-.1.123-.055.334-.255.388-.836-.085-.74-.727-.775-1.29l.129-.258" transform="translate(-314.358 -409.353)" fill="#ffcb57"/><path d="M205.019,255.307c-.014.117.059.269-.111.323-.029.009-.115-.06-.122-.1-.032-.179.1-.21.235-.219v0" transform="translate(-188.201 -234.636)" fill="#ffcb57"/><path d="M419.7,287.1l.13.257a.186.186,0,0,1-.31-.082c-.067-.144.078-.157.18-.175" transform="translate(-385.537 -263.856)" fill="#ffcb57"/><path d="M134.987,327.2c.221.649-.392.468-.645.646q0-.452,0-.9l.388.129a.652.652,0,0,0,.258.129" transform="translate(-123.465 -300.474)" fill="#ffcb57"/><path d="M139.091,327.953l-.284.177.026-.306c.087-.133.173-.015.259,0,0,.043,0,.086,0,.129" transform="translate(-127.569 -301.224)" fill="#ffcb57"/><path d="M89.249,444.918l.129.129c-.014.1-.028.22-.17.206a.249.249,0,0,1-.131-.107,1.978,1.978,0,0,1,.171-.228" transform="translate(-81.866 -408.896)" fill="#ffcb57"/><path d="M95.818,67.8c-.062-.095-.125-.156-.136-.225-.005-.033.089-.082.139-.124a.7.7,0,0,1,.112.189c.008.033-.059.084-.116.159" transform="translate(-87.936 -61.993)" fill="#ffcb57"/><path d="M86.532,430.557l.128.516c-.338-.047-.236-.312-.258-.516h.129" transform="translate(-79.408 -395.698)" fill="#ffcb57"/><path d="M173.428,161.285c.048.088.094.137.094.185,0,.029-.07.065-.115.079-.011,0-.067-.062-.064-.093a.616.616,0,0,1,.085-.171" transform="translate(-159.308 -148.227)" fill="#ffcb57"/><path d="M254.779,202.566l.272.4c-.222.25-.333.012-.437-.117-.156-.2.008-.245.165-.279" transform="translate(-233.942 -186.166)" fill="#ffcb57"/><path d="M421.943,201.4c.193-.044.431-.275.516.125-.18-.009-.378.057-.516-.125" transform="translate(-387.781 -184.993)" fill="#ffcb57"/><path d="M438.367,146.971q0,.064,0,.127c-.189.008-.37,0-.382-.253l.382.126" transform="translate(-402.524 -134.956)" fill="#ffcb57"/><path d="M31.041,163.585l-.153.145a.45.45,0,0,1-.074-.135c0-.028.047-.094.064-.091a.639.639,0,0,1,.163.08" transform="translate(-28.319 -150.267)" fill="#ffcb57"/><path d="M446.639,168.309c.2-.236-.368-.59.122-.781a.55.55,0,0,1-.122.781" transform="translate(-410.401 -153.964)" fill="#ffcb57"/><path d="M444.4,306.115l.247.137v.256c-.266-.016-.264-.2-.248-.393" transform="translate(-408.411 -281.331)" fill="#ffcb57"/><path d="M351.631,466.011l.255-.388a.454.454,0,0,1-.253.519q0-.065,0-.131" transform="translate(-323.162 -427.925)" fill="#ffcb57"/><path d="M432,277.548l-.081.407c-.046-.037-.117-.064-.135-.112-.072-.2.039-.273.216-.294h0" transform="translate(-396.805 -255.077)" fill="#ffcb57"/><path d="M271.749,329.762v-.774c.126.139.57-.712.472.15-.006.049.109.166.136.157.311-.1.664-.218.667.273,0,.41,0,.924-.583,1s-.458-.484-.645-.766a.264.264,0,0,0-.047-.043" transform="translate(-249.747 -302.13)" fill="#ffcb57"/><path d="M286.548,360.417c-.054.023-.113.059-.121.05a.836.836,0,0,1-.089-.148l.131-.066.079.164" transform="translate(-263.155 -331.086)" fill="#ffcb57"/><path d="M329.183,443.962c-.375-.076-.746,0-.88-.4.44-.016.205-.652.331-.573a2.669,2.669,0,0,1,.753.872c.06.1-.165.105-.2.1" transform="translate(-301.723 -407.117)" fill="#ffcb57"/></g></g></svg>