<svg xmlns="http://www.w3.org/2000/svg" xmlns:xlink="http://www.w3.org/1999/xlink" width="40" height="40" viewBox="0 0 40 40"><defs><clipPath id="a"><rect width="40" height="40" transform="translate(162 31)" fill="#fff" stroke="#707070" stroke-width="1"/></clipPath><clipPath id="b"><rect width="37.978" height="40" fill="none"/></clipPath></defs><g transform="translate(-162 -31)" clip-path="url(#a)"><g transform="translate(163.011 31)"><g clip-path="url(#b)"><path d="M15.291,8.179c.676.043,1.353.09,2.029.128a.517.517,0,0,0,.471-.552c-.011-.869-.007-1.739-.022-2.609a3.855,3.855,0,0,1,.754-2.166A15.478,15.478,0,0,1,19.8,1.4a1.537,1.537,0,0,1,.45-.36A6.969,6.969,0,0,1,23.836.006c.29.016.581.021.872.036C26.837.153,26.993.2,28.623,1.6a5.866,5.866,0,0,1,.9,1.119,4.454,4.454,0,0,1,.382.783,4.219,4.219,0,0,1,.142,3.646c-.274.593.044,1.083.747,1.314a4.363,4.363,0,0,0,.562.14,5.139,5.139,0,0,0,.577.073,5.732,5.732,0,0,1,3.787,1.942c.4.418.744.889,1.112,1.338a3.135,3.135,0,0,1,.8,1.831,6.979,6.979,0,0,0,.2,1.14,4.649,4.649,0,0,1-1.521,4.716c-.212.2-.431.387-.64.589a.652.652,0,0,0-.111.793c.408.657.813,1.316,1.228,1.968a7.155,7.155,0,0,1,.774,1.864,7.212,7.212,0,0,1-.21,4.829c-.212.539-.433,1.075-.657,1.609a5.117,5.117,0,0,1-3.69,2.994A12.418,12.418,0,0,1,31,34.584a2.029,2.029,0,0,1-.835-.139c-.544-.194-1.079-.417-1.6-.66-.439-.2-.853-.457-1.284-.677-.654-.334-1.187-.145-1.376.49-.277.926-.543,1.855-.812,2.783a3.949,3.949,0,0,1-.152.56,4.188,4.188,0,0,1-2.634,2.528c-1.786.509-3.58.882-5.369-.005a.7.7,0,0,0-.273-.091c-1.952-.058-3.415-1.259-5-2.159a5.651,5.651,0,0,1-1.094-.941A1.751,1.751,0,0,1,10,34.979c.019-.967.07-1.934.106-2.9a.825.825,0,0,0-.7-.778q-1.158-.1-2.316-.193a4.405,4.405,0,0,1-2.83-1.336A17.471,17.471,0,0,1,.578,24.942a2.557,2.557,0,0,1-.145-.251,4.212,4.212,0,0,1-.29-2.8,14.686,14.686,0,0,1,.7-2.5,8.213,8.213,0,0,1,2.841-2.847,6.156,6.156,0,0,1,.785-.374,1.548,1.548,0,0,0,1-1.315,5.08,5.08,0,0,1,.742-2.182A6.114,6.114,0,0,1,8.59,10.187a18.662,18.662,0,0,0,2.237-1.347,4.547,4.547,0,0,1,3.308-.778c.386.032.773.051,1.159.075l0,.042" transform="translate(0 0)" fill="#e591b3"/><path d="M117.226,115.417c-.217.654-.409,1.295-.651,1.916-.06.154-.27.264-.43.362-.182.11-.5-.069-.677-.379-.094-.167-.135-.364-.225-.534-.19-.36-.354-.383-.605-.087-.125.147-.215.323-.344.465a4.4,4.4,0,0,1-.428.384.494.494,0,0,1-.754-.057.707.707,0,0,1-.092-.517,3.765,3.765,0,0,1,.467-.726c.646-.911.643-.922-.406-1.331a1.182,1.182,0,0,1-.259-.111.457.457,0,0,1-.185-.214c-.012-.045.089-.159.158-.182.634-.209,1.276-.392,1.9-.614.146-.052.249-.224.406-.373-1.482-.461-2.965-.816-4.456-1.146-.054-.012-.109-.135-.115-.211a.459.459,0,0,1,.07-.264c.05-.079.138-.186.212-.188,1.515-.046,3.054-.446,4.517.335.319.17.684-.193.776-.617a9.089,9.089,0,0,1,.31-2.277.43.43,0,0,1,.71-.126,5.35,5.35,0,0,1,.359.439,3.183,3.183,0,0,0,.231.219c.328-.163.661-.338,1-.5s.636-.141.776.111a10.06,10.06,0,0,0,1.079,1.324.347.347,0,0,1-.122.5c-.577.337-1.167.65-1.8,1a3.16,3.16,0,0,0,.512.669c.537.4,1.119.749,1.67,1.134a.667.667,0,0,1,.009,1.016.489.489,0,0,1-.742.1c-.191-.21-.37-.431-.575-.626-.055-.053-.233-.073-.269-.032-.118.132-.287.31-.271.452.042.376.2.737.252,1.113a.774.774,0,0,1-.371.734.582.582,0,0,1-.768-.039c-.322-.333-.33-.9-.871-1.126" transform="translate(-95.133 -93.632)" fill="#fff"/></g></g></g></svg>