<svg xmlns="http://www.w3.org/2000/svg" xmlns:xlink="http://www.w3.org/1999/xlink" width="40" height="40" viewBox="0 0 40 40"><defs><clipPath id="a"><rect width="40" height="40" transform="translate(253 31)" fill="#fff" stroke="#707070" stroke-width="1"/></clipPath></defs><g transform="translate(-253 -31)" clip-path="url(#a)"><g transform="translate(253.431 31)"><path d="M114.806,103.128c.755.557,1.281.917,1.775,1.316a7.233,7.233,0,0,0,3.131,1.317,2.271,2.271,0,0,0,2.317-.962,10.144,10.144,0,0,0,1.963-6.439,7.3,7.3,0,0,0-1.3-4.321,15.031,15.031,0,0,0-3.564-3.915,9,9,0,0,0-3.444-1.523,22.062,22.062,0,0,1-3.3-.9,10.009,10.009,0,0,1-5.016-4.481c-.178-.287-.07-.742-.133-1.112-.085-.493-.192-.984-.32-1.467-.083-.313-.717-.455-.968-.277a3.952,3.952,0,0,0-1.342,1.809,15.732,15.732,0,0,0-1.057,4.417,6.233,6.233,0,0,0,.868,4c.985,1.63,1.946,3.275,2.984,4.87a14.518,14.518,0,0,0,2.081,2.709c1.84,1.732,3.271,3.913,5.325,4.968" transform="translate(-103.512 -65.811)" fill="#9fd9ed"/><path d="M76.288,21.3a4.869,4.869,0,0,0,2.158,1.5,4.035,4.035,0,0,0,1.857.272,10.741,10.741,0,0,1,1.5-.235,2.841,2.841,0,0,0,2.9-2.5,6.49,6.49,0,0,0,.28-2.243,51.083,51.083,0,0,0-1.2-7.494c-.224-.853-.607-1.662-.883-2.5-.4-1.2-.767-2.41-1.136-3.619A14.451,14.451,0,0,1,81.61.7a.9.9,0,0,0-1.12-.66c-.235.088-.461.2-.692.3-.459.2-.935.592-1.376.556-1.834-.152-2.717.894-3.529,2.324A33.779,33.779,0,0,0,73.6,6.347c-1.5,3.367-1.121,6.679.015,10A27.836,27.836,0,0,0,75.11,19.82,8.975,8.975,0,0,0,76.288,21.3" transform="translate(-58.951 0.001)" fill="#9fd9ed"/><path d="M3.739,110.547A14.54,14.54,0,0,0,2.584,112.4a29.669,29.669,0,0,1-2.224,3.953,2.359,2.359,0,0,0,1.954,3.577,4.09,4.09,0,0,0,2.218-.365c1.66-.9,3.4-1.681,4.542-3.312a4,4,0,0,1,1.079-1.051,8.939,8.939,0,0,0,3-3.816,25.859,25.859,0,0,1,1.229-2.337,16.249,16.249,0,0,0,1.489-3.843.394.394,0,0,0-.063-.349c-.193-.134-.437-.313-.638-.289a4.447,4.447,0,0,0-1.054.347,18.252,18.252,0,0,1-4.35,1.269c-2.129.274-3.655,1.608-5.073,3.076a12.823,12.823,0,0,0-.959,1.282" transform="translate(23.249 -85.722)" fill="#9fd9ed"/></g></g></svg>