<svg xmlns="http://www.w3.org/2000/svg" width="1920.001" height="160.501" viewBox="0 0 1920.001 160.501">
  <path id="wave-top" d="M1920,414H0v-.5H.071c.942,0,95.577-.026,212.8-2.308,68.851-1.34,131.919-3.185,187.454-5.483,69.395-2.872,127.121-6.465,171.574-10.678,142.674-13.522,260.881-31.236,386.029-49.989,117.864-17.662,239.741-35.925,391.856-52.141,39.333-4.193,79.722-8.136,120.046-11.719,43.287-3.846,88.206-7.43,133.509-10.653,48.077-3.42,98.3-6.554,149.287-9.316,53.652-2.907,109.966-5.5,167.379-7.711V414Z" transform="translate(0.001 -253.5)" fill="#fff"/>
</svg>
