<svg xmlns="http://www.w3.org/2000/svg" width="1920" height="160.5" viewBox="0 0 1920 160.5">
  <path id="wave-bottom" d="M0,160.5v0H0V0H1920V.5h-.073c-.942,0-95.575.026-212.794,2.308C1638.272,4.15,1575.2,5.994,1519.68,8.293c-69.4,2.872-127.121,6.465-171.574,10.678-142.673,13.522-260.88,31.236-386.028,49.989l-.048.007c-117.85,17.66-239.714,35.92-391.808,52.134-39.32,4.192-79.709,8.135-120.046,11.719-43.287,3.846-88.206,7.43-133.509,10.653-48.09,3.42-98.317,6.555-149.287,9.316C113.727,155.7,57.412,158.291,0,160.5Z" fill="#fff"/>
</svg>
